<?xml version="1.0" encoding="UTF-8" standalone="no"?>
<!DOCTYPE svg PUBLIC "-//W3C//DTD SVG 1.1//EN" "http://www.w3.org/Graphics/SVG/1.1/DTD/svg11.dtd">
<svg xmlns:xl="http://www.w3.org/1999/xlink" version="1.1" xmlns="http://www.w3.org/2000/svg" xmlns:dc="http://purl.org/dc/elements/1.1/" xmlns:xlink="http://www.w3.org/1999/xlink" viewBox="0 0 1280 640" width="1280" height="640">
<defs />
  <g id="logo">
    <defs>
      <!-- 主题渐变色 -->
      <linearGradient id="mainGradient" x1="0%" y1="0%" x2="100%" y2="100%">
        <stop offset="10%" style="stop-color:#4573fb"/>
        <stop offset="100%" style="stop-color:#00d4ff"/>
      </linearGradient>
      <!-- 发光效果 -->
      <filter id="glow">
        <feGaussianBlur stdDeviation="2" result="coloredBlur"/>
        <feMerge>
          <feMergeNode in="coloredBlur"/>
          <feMergeNode in="SourceGraphic"/>
        </feMerge>
      </filter>
    </defs>

    <!-- 背景装饰 - 科技感圆点 -->
    <g fill="#4573fb" opacity="0.1">
      <circle cx="30" cy="30" r="2"/>
      <circle cx="60" cy="40" r="2"/>
      <circle cx="270" cy="30" r="2"/>
      <circle cx="250" cy="50" r="2"/>
      <circle cx="40" cy="270" r="2"/>
      <circle cx="270" cy="260" r="2"/>
    </g>

    <!-- 所有内部连接线 -->
    <g stroke="#00d4ff" stroke-width="2" opacity="0.6">
      <!-- 垂直连线 (最上到最下) -->
      <line x1="150" y1="30" x2="150" y2="270" />

      <!-- 对角线连接 -->
      <line x1="150" y1="30" x2="254" y2="210"/>
      <line x1="150" y1="30" x2="46" y2="210"/>
      <line x1="254" y1="90" x2="46" y2="210"/>
      <line x1="254" y1="210" x2="46" y2="90"/>

      <!-- 水平连接 -->
      <line x1="254" y1="90" x2="46" y2="90"/>
      <line x1="254" y1="210" x2="46" y2="210"/>
    </g>

    <!-- 外圈连接线 -->
    <path d="M 150,30 L 254,90 L 254,210 L 150,270 L 46,210 L 46,90 Z"
          fill="none"
          stroke="url(#mainGradient)"
          stroke-width="4"
          filter="url(#glow)"
          stroke-opacity="0.8">
      <animate attributeName="stroke-opacity"
               values="0.8;1;0.8"
               dur="2s"
               repeatCount="indefinite"/>
    </path>

    <!-- 中心六边形 -->
    <path id="centerHex"
          d="M 150,100 L 193,125 L 193,175 L 150,200 L 107,175 L 107,125 Z"
          fill="url(#mainGradient)"
          filter="url(#glow)">
      <animate attributeName="opacity"
               values="1"
               dur="3s"
               repeatCount="indefinite"/>
    </path>

    <!-- 现代感文字 -->
    <text x="150" y="155"
          font-family="Arial, sans-serif"
          font-size="24"
          fill="white"
          text-anchor="middle"
          dominant-baseline="middle"
          font-weight="600"
          letter-spacing="1">Addax</text>
  </g>
  <g id="logo-slogan" fill="none" stroke-dasharray="none" fill-opacity="1" stroke-opacity="1" stroke="none">
    <title>logo-slogan</title>
    <rect fill="#6d6d6d" x="0" y="0" width="1280" height="640" />
    <g id="logo-slogan_Layer_1">
      <title>Layer 1</title>
      <g id="Graphic_6">
        <rect x="300" y="100" width="205" height="164" id="path"/>
          <use href="#logo"  width="46" height="46" transform="translate(384 140) scale(0.5)"/>
      </g>
      <g id="Graphic_7">
        <text transform="translate(584.8242 144.1211)" fill="#1b1f23">
          <tspan font-family="DIN Alternate" font-weight="bold" font-size="120" fill="#1b1f23" x="0" y="113">Addax</tspan>
        </text>
      </g>
      <g id="Graphic_8">
        <text transform="translate(239.87793 311.0699)" fill="black">
          <tspan font-family="DIN Alternate" font-weight="bold" font-size="60" fill="black" x="0" y="56">Versatile Open-Source ETL tool</tspan>
        </text>
      </g>
      <g id="Graphic_9">
        <text transform="translate(225.75 414.5)" fill="#616161">
          <tspan font-family="Helvetica Neue" font-size="30" fill="#1f2328" x="0" y="29">A versatile open-source ETL tool that can seamlessly transfer </tspan>
          <tspan font-family="Helvetica Neue" font-size="30" fill="#1f2328" x="0" y="64.84">data between various RDBMS and NoSQL databases</tspan>
        </text>
      </g>
    </g>
  </g>
</svg>
