<svg xmlns="http://www.w3.org/2000/svg" viewBox="0 0 115.886 24"><path fill="#FFF" d="M50.827 8.443a4.37 4.37 0 0 1 1.859 1.735c.461.802.697 1.714.685 2.64a5.04 5.04 0 0 1-.685 2.619 4.36 4.36 0 0 1-1.859 1.708 6.4 6.4 0 0 1-2.811.589h-2.86a.42.42 0 0 1-.418-.418V8.251a.42.42 0 0 1 .418-.418h2.832a6.16 6.16 0 0 1 2.839.61m-.096 7.029a3.6 3.6 0 0 0 .94-2.654 3.72 3.72 0 0 0-.94-2.688 3.6 3.6 0 0 0-2.743-.967h-1.186a.41.41 0 0 0-.418.411v6.419a.417.417 0 0 0 .418.418h1.186c.497.038.997-.026 1.468-.188a3.7 3.7 0 0 0 1.275-.751M55.099 11.679a3.75 3.75 0 0 1 1.372-1.419 3.7 3.7 0 0 1 1.899-.501 3.44 3.44 0 0 1 1.639.364 3.2 3.2 0 0 1 1.118.905v-.727c0-.111.044-.217.122-.296a.42.42 0 0 1 .296-.122h.843a.42.42 0 0 1 .412.418v7.001a.408.408 0 0 1-.412.419h-.857a.42.42 0 0 1-.418-.419v-.754a3.2 3.2 0 0 1-1.138.926 3.77 3.77 0 0 1-3.525-.144 3.8 3.8 0 0 1-1.371-1.454 4.5 4.5 0 0 1-.494-2.119 4.3 4.3 0 0 1 .514-2.078m5.678.686a2.382 2.382 0 0 0-2.369-1.209 2.33 2.33 0 0 0-1.773 1.189c-.232.419-.35.892-.343 1.371-.01.497.108.988.343 1.426a2.35 2.35 0 0 0 2.057 1.255 2.34 2.34 0 0 0 2.057-1.234 2.85 2.85 0 0 0 .336-1.413 2.8 2.8 0 0 0-.308-1.357ZM66.838 11.213v4.341a.83.83 0 0 0 .213.631c.199.143.442.211.686.192h.596a.425.425 0 0 1 .419.418v.507a.42.42 0 0 1-.419.419h-.857a2.5 2.5 0 0 1-1.701-.515 2.05 2.05 0 0 1-.596-1.666V11.2h-.521a.42.42 0 0 1-.419-.419v-.493a.42.42 0 0 1 .419-.419h.521V8.333a.42.42 0 0 1 .123-.293.411.411 0 0 1 .295-.118h.83a.42.42 0 0 1 .291.12.403.403 0 0 1 .12.291v1.536h1.523a.426.426 0 0 1 .418.419v.493a.426.426 0 0 1-.418.419ZM70.089 11.679a3.6 3.6 0 0 1 3.271-1.92 3.44 3.44 0 0 1 1.639.364c.436.213.818.523 1.117.905v-.727a.43.43 0 0 1 .419-.418h.829a.42.42 0 0 1 .297.122.43.43 0 0 1 .122.296v7.001a.42.42 0 0 1-.419.419h-.85a.42.42 0 0 1-.411-.419v-.754a3.2 3.2 0 0 1-1.139.926 3.76 3.76 0 0 1-3.524-.144 3.8 3.8 0 0 1-1.372-1.454 4.4 4.4 0 0 1-.5-2.119 4.26 4.26 0 0 1 .521-2.078m5.671.686a2.4 2.4 0 0 0-1.437-1.136 2.388 2.388 0 0 0-1.82.217 2.3 2.3 0 0 0-.885.899c-.232.419-.35.892-.343 1.371-.01.497.108.988.343 1.426a2.35 2.35 0 0 0 2.057 1.227 2.34 2.34 0 0 0 2.057-1.227c.233-.434.348-.92.336-1.412a2.8 2.8 0 0 0-.308-1.337ZM82.713 10.123a3.5 3.5 0 0 1 1.618-.363 3.7 3.7 0 0 1 1.9.493 3.54 3.54 0 0 1 1.371 1.42 4.35 4.35 0 0 1 .494 2.098 4.5 4.5 0 0 1-.494 2.119 3.63 3.63 0 0 1-1.371 1.454 3.842 3.842 0 0 1-3.532.157 3.1 3.1 0 0 1-1.111-.884v.685a.42.42 0 0 1-.118.296.4.4 0 0 1-.293.123h-.816a.42.42 0 0 1-.418-.419V7.606a.42.42 0 0 1 .122-.293.416.416 0 0 1 .296-.118h.816a.41.41 0 0 1 .411.411v3.429a3.1 3.1 0 0 1 1.125-.912m3.346 2.249a2.3 2.3 0 0 0-.891-.898 2.4 2.4 0 0 0-1.193-.309 2.367 2.367 0 0 0-2.058 1.228c-.235.433-.353.92-.342 1.412-.01.493.108.98.342 1.413a2.35 2.35 0 0 0 2.058 1.234 2.35 2.35 0 0 0 2.057-1.255c.235-.438.353-.929.343-1.426a2.75 2.75 0 0 0-.316-1.399M93.362 16.5a2.33 2.33 0 0 1-1.238-.411 2.33 2.33 0 0 1-.819-1.015.2.2 0 0 1-.011-.058.145.145 0 0 1 .1-.134l5.486-1.591a.42.42 0 0 0 .295-.487c0-.123-.069-.26-.11-.398a4 4 0 0 0-1.077-1.789 3.6 3.6 0 0 0-1.748-.912 4.4 4.4 0 0 0-2.119.109 4.36 4.36 0 0 0-1.893 1.077 3.44 3.44 0 0 0-.96 1.755 4.3 4.3 0 0 0 .137 2.181c.125.416.308.813.542 1.179.326.572.8 1.046 1.372 1.372.63.343 1.34.516 2.057.5a3.87 3.87 0 0 0 2.345-.685 3.56 3.56 0 0 0 1.028-1.145.42.42 0 0 0 .005-.419.42.42 0 0 0-.361-.212h-.898a.43.43 0 0 0-.364.212 1.93 1.93 0 0 1-1.769.871m-2.194-4.423c.295-.46.753-.793 1.282-.932a2.5 2.5 0 0 1 1.707.068c.336.143.622.381.823.686a.414.414 0 0 1-.057.54.4.4 0 0 1-.169.098l-3.381.98a.4.4 0 0 1-.189.011.42.42 0 0 1-.296-.223.4.4 0 0 1-.043-.185c.018-.373.137-.733.343-1.043ZM104.505 10.144c.492.253.896.65 1.159 1.138.297.561.443 1.189.425 1.824v4.196a.42.42 0 0 1-.123.296.41.41 0 0 1-.295.123h-.768a.41.41 0 0 1-.412-.419v-3.97a2.27 2.27 0 0 0-.535-1.618 1.94 1.94 0 0 0-1.46-.562 1.97 1.97 0 0 0-1.468.562 2.27 2.27 0 0 0-.541 1.618v3.97a.42.42 0 0 1-.253.387.4.4 0 0 1-.159.032h-.816a.42.42 0 0 1-.418-.419v-7.001q0-.083.031-.16a.42.42 0 0 1 .227-.226.4.4 0 0 1 .16-.032h.816a.42.42 0 0 1 .412.418v.48a2.8 2.8 0 0 1 1.035-.754 3.4 3.4 0 0 1 1.323-.267 3.55 3.55 0 0 1 1.66.384M108.173 11.68a3.62 3.62 0 0 1 3.271-1.92c.53 0 1.054.115 1.536.336.469.19.884.494 1.207.884V7.606a.4.4 0 0 1 .123-.293.411.411 0 0 1 .295-.118h.83a.41.41 0 0 1 .412.411v9.696q0 .083-.03.16a.41.41 0 0 1-.382.259h-.83a.42.42 0 0 1-.386-.258.4.4 0 0 1-.032-.161v-.754c-.291.4-.675.722-1.118.94a3.5 3.5 0 0 1-1.638.37 3.65 3.65 0 0 1-1.9-.514 3.8 3.8 0 0 1-1.371-1.454 4.5 4.5 0 0 1-.494-2.119 4.3 4.3 0 0 1 .507-2.091m5.678.685a2.38 2.38 0 0 0-1.438-1.136 2.38 2.38 0 0 0-1.819.217 2.33 2.33 0 0 0-.891.899c-.23.42-.346.893-.336 1.371-.013.497.102.988.336 1.426.206.389.517.712.898.933a2.32 2.32 0 0 0 2.377-.012c.362-.217.659-.528.859-.9a2.85 2.85 0 0 0 .336-1.413 2.8 2.8 0 0 0-.322-1.357Z"></path><path fill="#BAE7FF" d="M38.56 20.765a.26.26 0 0 1-.077.182.25.25 0 0 1-.184.072.3.3 0 0 1-.096 0 4.3 4.3 0 0 1-1.556-1.337 4.3 4.3 0 0 1-.35 1.995.254.254 0 0 1-.425.028 4.28 4.28 0 0 1-.59-3.127c-4.176-2.393-8.421-.302-8.421-.302a4.3 4.3 0 0 1 1.578.473.26.26 0 0 1 .117.257.3.3 0 0 1-.035.093l-.055.055a4 4 0 0 1-.343.226l-.178.096a4.4 4.4 0 0 1-1.063.412 4 4 0 0 1-.837.157c-1.338.13-2.686.13-4.025 0-1.563 1.324-7.879 4.163-13.467 3.23-4.06-.946-6.226-2.825-7.365-4.8 1.043.727 5.383 3.175 13.913.473 9.84-3.12 12.988-4.834 21.141-2.743q.303.686.453 1.42a4.29 4.29 0 0 1 1.865 3.14"></path><path fill="#52AEFF" d="M34.432 13.229a13.5 13.5 0 0 1 1.783 3.038c-8.154-2.126-11.301-.411-21.141 2.743-8.53 2.702-12.871.254-13.913-.473a9.38 9.38 0 0 1-.967-6.419c.178-.185.391-.39.631-.596.932.843 5.486 4.375 14.4 2.146-.021-.062 13.927-3.593 19.207-.439"></path><path fill="#0072F5" d="M29.776 9.163a16.6 16.6 0 0 1 4.656 4.066c-5.28-3.154-19.2.377-19.2.377-8.915 2.229-13.461-1.302-14.4-2.146a22.8 22.8 0 0 1 7.981-4.375 12.2 12.2 0 0 0 6.858.933 28.9 28.9 0 0 1 14.105 1.145"></path><path fill="#015BCF" d="M27.815 8.128q1.008.465 1.961 1.035a28.9 28.9 0 0 0-14.105-1.145c-2.328.358-4.71.034-6.858-.933a27 27 0 0 1 15.717-.192c1.124.329 2.222.742 3.285 1.235M15.252 1.003a1.01 1.01 0 0 1-.617.926 4.3 4.3 0 0 0-1.947 1.947 4.4 4.4 0 0 1-.096-.912 4.3 4.3 0 0 1 .795-2.489l.117-.151c.137-.149.317-.253.515-.298a1.003 1.003 0 0 1 1.233.984ZM11.776 4.891v.466a4.3 4.3 0 0 0-1.79-1.083h-.048a1.07 1.07 0 0 1-.709-.717 1.07 1.07 0 0 1 .202-.988 1.068 1.068 0 0 1 1.769.183c.379.649.577 1.387.576 2.139"></path><path fill="#1560C1" d="M15.979 19.702a.918.918 0 1 0 .002-1.836.918.918 0 0 0-.002 1.836"></path></svg>