<?xml version="1.0" encoding="UTF-8" standalone="no"?>
<!DOCTYPE svg PUBLIC "-//W3C//DTD SVG 1.1//EN" "http://www.w3.org/Graphics/SVG/1.1/DTD/svg11.dtd">
<svg xmlns:xl="http://www.w3.org/1999/xlink" version="1.1" xmlns="http://www.w3.org/2000/svg" xmlns:dc="http://purl.org/dc/elements/1.1/" viewBox="0 -183 512 160" width="512" height="160">
  <defs/>
  <g id="Canvas_1" fill="none" stroke-dasharray="none" fill-opacity="1" stroke-opacity="1" stroke="none">
    <title>Canvas 1</title>
    <rect x="0" y="-183" width="512" height="160"/>
    <g id="Canvas_1_Layer_1">
      <title>Layer 1</title>
      <g id="Group_2">
        <g id="Graphic_10">
          <path d="M 477.301 -116.74 C 476.841 -116.648 476.379 -115.633 476.379 -115.08 C 476.287 -111.388 476.195 -101.606 476.195 -94.962 C 476.195 -94.777 476.471 -94.408 476.748 -94.408 C 478.132 -94.316 481.454 -94.224 484.315 -94.224 C 488.283 -94.224 490.59 -94.777 491.883 -95.33 C 495.204 -96.992 496.773 -100.591 496.773 -104.56 C 496.773 -113.51 490.498 -116.925 481.177 -116.925 C 480.531 -117.017 478.687 -117.017 477.301 -116.74 Z M 501.111 -75.49 C 501.111 -84.626 494.374 -89.702 482.193 -89.702 C 481.639 -89.702 477.763 -89.794 476.84 -89.61 C 476.563 -89.517 476.195 -89.332 476.195 -89.055 C 476.195 -82.504 476.102 -72.075 476.379 -68.015 C 476.563 -66.262 477.856 -63.77 479.425 -63.032 C 481.085 -62.109 484.869 -61.925 487.453 -61.925 C 494.743 -61.925 501.111 -65.985 501.111 -75.49 Z M 458.477 -121.815 C 459.399 -121.815 462.167 -121.539 469.273 -121.539 C 476.01 -121.539 481.362 -121.723 487.914 -121.723 C 495.942 -121.723 507.016 -118.863 507.016 -106.866 C 507.016 -100.96 502.863 -96.253 497.419 -93.946 C 497.143 -93.854 497.143 -93.67 497.419 -93.578 C 505.17 -91.639 512 -86.841 512 -77.798 C 512 -68.938 506.463 -63.309 498.434 -59.802 C 493.543 -57.68 487.453 -56.942 481.27 -56.942 C 476.563 -56.942 463.921 -57.495 456.908 -57.31 C 456.17 -57.588 457.554 -60.91 458.199 -61.463 C 459.861 -61.556 461.152 -61.648 462.906 -62.202 C 465.398 -62.847 465.674 -63.586 466.043 -67.369 C 466.228 -70.599 466.228 -82.043 466.228 -90.163 C 466.228 -101.329 466.321 -108.896 466.228 -112.587 C 466.136 -115.447 465.121 -116.371 463.091 -116.925 C 461.521 -117.201 458.938 -117.571 456.815 -117.847 C 456.353 -118.309 457.922 -121.447 458.477 -121.815 Z M 405.229 -64.416 C 407.445 -62.664 411.782 -61.926 415.658 -61.926 C 420.641 -61.926 425.624 -62.847 430.423 -67.186 C 435.314 -71.614 438.728 -78.443 438.728 -89.332 C 438.728 -99.761 434.76 -108.251 426.639 -113.233 C 422.025 -116.095 416.119 -117.293 409.29 -117.293 C 407.26 -117.293 405.322 -117.201 404.123 -116.648 C 403.845 -116.463 403.2 -115.633 403.2 -115.172 C 403.015 -113.326 403.015 -99.115 403.015 -90.809 C 403.015 -82.227 403.015 -70.23 403.2 -68.846 C 403.2 -67.461 403.845 -65.339 405.23 -64.416 Z M 384.281 -121.816 C 386.035 -121.816 392.771 -121.539 396.001 -121.539 C 401.816 -121.539 405.968 -121.815 416.949 -121.815 C 426.177 -121.815 433.929 -119.324 439.466 -114.618 C 446.202 -108.804 449.71 -100.775 449.71 -90.994 C 449.71 -77.059 443.342 -69.03 436.974 -64.416 C 430.608 -59.71 422.302 -56.942 410.49 -56.942 C 404.215 -56.942 393.418 -57.126 384.466 -57.219 L 384.374 -57.219 C 383.913 -58.049 385.112 -61.279 385.85 -61.371 C 388.25 -61.648 388.896 -61.741 390.096 -62.201 C 392.033 -62.94 392.403 -63.955 392.68 -67.369 C 392.956 -73.737 392.864 -81.396 392.864 -90.071 C 392.864 -96.253 392.956 -108.343 392.771 -112.219 C 392.495 -115.448 391.111 -116.279 388.342 -116.833 C 386.958 -117.109 385.112 -117.479 382.529 -117.755 C 382.159 -118.402 383.82 -121.262 384.281 -121.815 Z" fill="#8e714e"/>
        </g>
        <g id="Graphic_9">
          <path d="M 272.621 -60.818 C 270.314 -61.095 268.653 -61.463 266.623 -62.386 C 266.346 -62.571 265.884 -63.493 265.884 -63.863 C 265.7 -67.093 265.7 -76.321 265.7 -82.503 C 265.7 -87.487 264.87 -91.824 262.747 -94.869 C 260.255 -98.377 256.657 -100.406 252.042 -100.406 C 247.982 -100.406 242.537 -97.638 238.015 -93.762 C 237.923 -93.67 237.185 -93.023 237.277 -94.039 C 237.277 -95.054 237.462 -97.084 237.554 -98.469 C 237.647 -99.761 236.908 -100.406 236.908 -100.406 C 233.955 -98.93 225.65 -96.992 222.604 -96.716 C 220.39 -96.253 219.836 -94.131 222.144 -93.393 L 222.236 -93.393 C 224.726 -92.655 226.388 -91.824 227.679 -90.993 C 228.602 -90.255 228.51 -89.24 228.51 -88.409 C 228.602 -81.489 228.602 -70.876 228.326 -65.062 C 228.234 -62.755 227.588 -61.925 225.926 -61.556 L 226.111 -61.648 C 224.819 -61.371 223.804 -61.095 222.235 -60.91 C 221.681 -60.356 221.681 -57.403 222.235 -56.757 C 223.25 -56.757 228.602 -57.034 233.033 -57.034 C 239.123 -57.034 242.261 -56.757 243.829 -56.757 C 244.475 -57.495 244.66 -60.264 244.291 -60.91 C 242.537 -61.002 241.245 -61.186 240.046 -61.556 C 238.385 -61.926 237.923 -62.755 237.83 -64.693 C 237.647 -69.585 237.647 -79.92 237.647 -86.933 C 237.647 -88.871 238.2 -89.794 238.753 -90.348 C 240.876 -92.193 244.291 -93.485 247.336 -93.485 C 250.289 -93.485 252.226 -92.562 253.703 -91.362 C 255.733 -89.702 256.379 -87.302 256.656 -85.549 C 257.117 -81.581 256.933 -73.737 256.933 -66.908 C 256.933 -63.217 256.656 -62.294 255.273 -61.833 C 254.626 -61.556 252.965 -61.186 251.027 -61.003 C 250.381 -60.356 250.566 -57.495 251.027 -56.849 C 253.703 -56.849 256.841 -57.126 261.455 -57.126 C 267.176 -57.126 270.868 -56.849 272.345 -56.849 C 272.805 -57.403 272.99 -60.079 272.621 -60.818 Z M 298.183 -96.068 C 293.293 -96.068 290.247 -92.285 290.247 -86.38 C 290.247 -80.381 292.923 -73.46 300.49 -73.46 C 301.782 -73.46 304.182 -74.014 305.288 -75.306 C 307.042 -76.966 308.242 -80.289 308.242 -83.796 C 308.242 -91.455 304.458 -96.069 298.183 -96.069 Z M 297.537 -55.281 C 295.692 -55.281 294.399 -54.727 293.569 -54.265 C 289.693 -51.775 287.94 -49.375 287.94 -46.513 C 287.94 -43.838 288.955 -41.716 291.17 -39.87 C 293.846 -37.563 297.537 -36.455 302.243 -36.455 C 311.656 -36.455 315.809 -41.531 315.809 -46.513 C 315.809 -50.021 314.055 -52.328 310.457 -53.619 C 307.873 -54.727 303.167 -55.281 297.537 -55.281 Z M 298.183 -31.287 C 292.554 -31.287 288.493 -32.487 284.987 -35.163 C 281.572 -37.747 280.096 -41.623 280.096 -44.299 C 280.096 -45.037 280.281 -47.068 281.942 -48.913 C 282.956 -50.021 285.172 -52.143 290.432 -55.742 C 290.616 -55.834 290.708 -55.926 290.708 -56.112 C 290.708 -56.296 290.523 -56.481 290.339 -56.572 C 286.002 -58.233 284.71 -60.91 284.34 -62.386 L 284.34 -62.571 C 284.249 -63.125 284.064 -63.678 284.895 -64.232 C 285.541 -64.693 286.464 -65.247 287.478 -65.892 C 289.047 -66.816 290.708 -67.831 291.723 -68.662 C 291.908 -68.846 291.908 -69.03 291.908 -69.215 C 291.908 -69.4 291.723 -69.585 291.538 -69.676 C 285.08 -71.799 281.85 -76.598 281.85 -83.796 C 281.85 -88.502 283.972 -92.747 287.755 -95.423 C 290.339 -97.453 296.799 -99.945 301.044 -99.945 L 301.321 -99.945 C 305.658 -99.853 308.057 -98.93 311.471 -97.73 C 313.317 -97.084 315.071 -96.808 317.471 -96.808 C 321.069 -96.808 322.638 -97.915 323.929 -99.206 C 324.022 -99.022 324.207 -98.56 324.299 -97.361 C 324.391 -96.161 324.022 -94.408 323.099 -93.116 C 322.361 -92.101 320.7 -91.362 319.039 -91.362 L 318.577 -91.362 C 316.916 -91.547 316.177 -91.732 316.177 -91.732 L 315.809 -91.547 C 315.717 -91.362 315.809 -91.178 315.901 -90.901 L 315.994 -90.716 C 316.178 -89.886 316.547 -87.395 316.547 -86.748 C 316.547 -79.181 313.502 -75.86 310.272 -73.368 C 307.134 -71.061 303.536 -69.585 299.475 -69.215 C 299.383 -69.215 299.015 -69.215 298.183 -69.123 C 297.722 -69.123 297.076 -69.03 296.983 -69.03 L 296.891 -69.03 C 296.153 -68.846 294.308 -67.923 294.308 -66.355 C 294.308 -64.971 295.138 -63.309 299.106 -63.032 C 299.936 -62.94 300.766 -62.94 301.69 -62.847 C 306.95 -62.479 313.502 -62.017 316.547 -61.002 C 320.792 -59.434 323.468 -55.65 323.468 -51.128 C 323.468 -44.298 318.578 -37.931 310.457 -33.964 C 306.489 -32.21 302.52 -31.287 298.183 -31.287 Z M 350.783 -95.607 C 348.846 -95.607 347.092 -95.147 345.8 -94.224 C 342.202 -92.009 340.356 -87.579 340.356 -81.12 C 340.356 -69.03 346.446 -60.54 355.121 -60.54 C 357.705 -60.54 359.735 -61.279 361.488 -62.755 C 364.164 -64.971 365.549 -69.4 365.549 -75.583 C 365.549 -87.579 359.55 -95.608 350.784 -95.608 Z M 352.445 -56.111 C 336.757 -56.111 331.128 -67.646 331.128 -78.443 C 331.128 -86.01 334.173 -91.824 340.263 -95.977 C 344.601 -98.653 349.769 -100.129 354.383 -100.129 C 366.379 -100.129 374.777 -91.547 374.777 -79.181 C 374.777 -70.784 371.455 -64.14 365.087 -60.079 C 362.042 -58.049 356.782 -56.111 352.444 -56.111 L 352.445 -56.111 Z M 187.999 -95.608 C 186.061 -95.608 184.308 -95.147 183.015 -94.224 C 179.417 -92.009 177.571 -87.579 177.571 -81.12 C 177.571 -69.03 183.661 -60.54 192.336 -60.54 C 194.92 -60.54 196.95 -61.279 198.704 -62.755 C 201.379 -64.971 202.764 -69.4 202.764 -75.583 C 202.764 -87.579 196.858 -95.608 187.999 -95.608 Z M 189.66 -56.111 C 173.972 -56.111 168.343 -67.646 168.343 -78.443 C 168.343 -86.01 171.388 -91.824 177.478 -95.977 C 181.816 -98.653 186.984 -100.129 191.598 -100.129 C 203.595 -100.129 211.992 -91.547 211.992 -79.181 C 211.992 -70.784 208.67 -64.14 202.302 -60.079 C 199.349 -58.049 194.089 -56.111 189.66 -56.111 Z M 84.182 -57.034 C 83.997 -57.31 83.812 -58.141 83.905 -59.156 C 83.905 -59.895 84.09 -60.356 84.182 -60.54 C 86.12 -60.818 87.135 -61.095 88.242 -61.371 C 90.088 -61.833 90.826 -62.847 90.918 -65.154 C 91.196 -70.691 91.196 -81.212 91.103 -88.502 L 91.103 -88.687 C 91.103 -89.517 91.103 -90.533 90.088 -91.271 C 88.611 -92.193 86.858 -93.023 84.551 -93.671 C 83.721 -93.946 83.167 -94.408 83.259 -94.961 C 83.259 -95.515 83.813 -96.161 85.013 -96.346 C 88.058 -96.623 95.993 -98.56 99.131 -99.945 C 99.316 -99.761 99.593 -99.206 99.593 -98.468 L 99.501 -97.454 C 99.408 -96.438 99.316 -95.238 99.316 -94.039 C 99.316 -93.67 99.686 -93.393 100.054 -93.393 C 100.239 -93.393 100.424 -93.485 100.608 -93.578 C 106.514 -98.192 111.866 -99.853 114.634 -99.853 C 119.157 -99.853 122.664 -97.73 125.34 -93.301 C 125.524 -93.023 125.709 -92.931 125.986 -92.931 C 126.17 -92.931 126.446 -93.023 126.539 -93.208 C 131.984 -97.361 137.429 -99.853 141.027 -99.853 C 149.609 -99.853 154.685 -93.485 154.685 -82.688 C 154.685 -79.643 154.685 -75.675 154.593 -72.075 C 154.593 -68.846 154.501 -65.893 154.501 -63.77 C 154.501 -63.31 155.146 -61.833 156.161 -61.556 C 157.453 -60.91 159.207 -60.633 161.514 -60.264 L 161.606 -60.264 C 161.791 -59.618 161.422 -57.219 161.053 -56.757 C 160.499 -56.757 159.668 -56.757 158.746 -56.849 C 156.40998 -56.970885 154.0712 -57.03257 151.732 -57.034 C 146.011 -57.034 143.058 -56.942 140.196 -56.757 C 140.013 -57.495 139.92 -59.71 140.196 -60.264 C 141.858 -60.54 142.688 -60.818 143.704 -61.094 C 145.55 -61.648 146.011 -62.479 146.104 -64.878 C 146.104 -66.631 146.472 -81.581 145.918 -85.18 C 145.365 -88.871 142.596 -93.208 136.505 -93.208 C 134.198 -93.208 130.6 -92.285 127.093 -89.61 C 126.909 -89.425 126.723 -88.964 126.723 -88.687 L 126.723 -88.594 C 127.093 -86.657 127.093 -84.441 127.093 -81.027 L 127.093 -75.029 C 127.093 -70.876 127 -67 127.093 -64.048 C 127.093 -62.017 128.293 -61.556 129.308 -61.186 C 129.862 -61.095 130.23 -61.002 130.692 -60.91 C 131.522 -60.725 132.353 -60.54 133.645 -60.264 C 133.83 -59.894 133.83 -58.695 133.553 -57.68 C 133.46 -57.126 133.275 -56.85 133.183 -56.757 C 130.046 -56.849 126.816 -56.942 122.11 -56.942 C 120.726 -56.942 118.326 -56.849 116.296 -56.849 C 114.634 -56.849 113.066 -56.757 112.144 -56.757 C 112.051 -56.942 111.866 -57.587 111.866 -58.603 C 111.866 -59.433 112.051 -60.079 112.236 -60.264 C 112.697 -60.356 113.066 -60.448 113.528 -60.448 C 114.634 -60.633 115.558 -60.818 116.48 -61.002 C 118.05 -61.463 118.603 -62.294 118.695 -64.324 C 118.972 -68.938 119.249 -82.134 118.603 -85.457 C 117.496 -90.809 114.451 -93.485 109.559 -93.485 C 106.699 -93.485 103.099 -92.101 100.147 -89.885 C 99.685 -89.517 99.316 -88.595 99.316 -87.764 L 99.316 -82.319 C 99.316 -75.675 99.316 -67.369 99.408 -63.77 C 99.501 -62.664 99.869 -61.371 101.992 -60.91 C 102.454 -60.818 103.192 -60.633 104.115 -60.54 L 105.775 -60.264 C 105.961 -59.71 105.868 -57.495 105.499 -56.757 C 104.576 -56.757 103.469 -56.849 102.176 -56.849 C 100.239 -56.942 97.747 -57.034 94.979 -57.034 C 91.749 -57.034 89.442 -56.942 87.596 -56.849 C 86.304 -57.034 85.289 -57.034 84.182 -57.034 Z" fill="#442d22"/>
        </g>
        <g id="Graphic_8">
          <path d="M 35.641 -34.886 L 31.858 -36.179 C 31.858 -36.179 32.32 -55.465 25.398 -56.849 C 20.785 -62.202 26.138 -283.862 42.748 -57.588 C 42.748 -57.588 37.026 -54.728 36.011 -49.836 C 34.903 -45.037 35.641 -34.886 35.641 -34.886 Z" fill="white"/>
        </g>
        <g id="Graphic_7">
          <path d="M 35.641 -34.886 L 31.858 -36.179 C 31.858 -36.179 32.32 -55.465 25.398 -56.849 C 20.785 -62.202 26.138 -283.862 42.748 -57.588 C 42.748 -57.588 37.026 -54.728 36.011 -49.836 C 34.903 -45.037 35.641 -34.886 35.641 -34.886 Z" fill="#a6a385"/>
        </g>
        <g id="Graphic_6">
          <path d="M 37.672 -53.527 C 37.672 -53.527 70.802 -75.306 63.049 -120.617 C 55.575 -153.56 37.949 -164.357 36.011 -168.51 C 33.889 -171.463 31.858 -176.63 31.858 -176.63 L 33.243 -84.996 C 33.243 -84.903 30.382 -56.942 37.673 -53.526" fill="white"/>
        </g>
        <g id="Graphic_5">
          <path d="M 37.672 -53.527 C 37.672 -53.527 70.802 -75.306 63.049 -120.617 C 55.575 -153.56 37.949 -164.357 36.011 -168.51 C 33.889 -171.463 31.858 -176.63 31.858 -176.63 L 33.243 -84.996 C 33.243 -84.903 30.382 -56.942 37.673 -53.526" fill="#499d4a"/>
        </g>
        <g id="Graphic_4">
          <path d="M 29.921 -52.328 C 29.921 -52.328 -1.179 -73.553 .667 -110.926 C 2.42 -148.3 24.383 -166.664 28.628 -169.986 C 31.397 -172.939 31.489 -174.047 31.674 -177 C 33.612 -172.847 33.243 -114.894 33.519 -108.066 C 34.349 -81.766 32.043 -57.31 29.921 -52.328 Z" fill="white"/>
        </g>
        <g id="Graphic_3">
          <path d="M 29.921 -52.328 C 29.921 -52.328 -1.179 -73.553 .667 -110.926 C 2.42 -148.3 24.383 -166.664 28.628 -169.986 C 31.397 -172.939 31.489 -174.047 31.674 -177 C 33.612 -172.847 33.243 -114.894 33.519 -108.066 C 34.349 -81.766 32.043 -57.31 29.921 -52.328 Z" fill="#58aa50"/>
        </g>
      </g>
    </g>
  </g>
</svg>
