<?xml version="1.0" encoding="UTF-8" standalone="no"?>
<!-- Created with Inkscape (http://www.inkscape.org/) by Marsupilami -->
<svg
   xmlns:svg="http://www.w3.org/2000/svg"
   xmlns="http://www.w3.org/2000/svg"
   version="1.0"
   width="1024"
   height="290"
   viewBox="0 0 74.34375 21.03125"
   id="svg2675">
  <defs
     id="defs2677" />
  <g
     transform="translate(-5.6852679,-373.27513)"
     id="layer1">
    <path
       d="M 12.747768,373.27513 C 8.7302679,373.27513 6.4665179,375.93266 6.4665179,378.93138 C 6.4665179,382.48513 10.354038,383.90641 11.560268,384.52513 C 13.229018,385.39013 15.747738,386.37262 15.747768,389.49388 C 15.747768,392.05888 14.222758,393.4626 11.872768,393.46263 C 8.4740179,393.46263 6.7402579,389.79011 6.1540179,388.36888 L 5.6852679,388.49388 C 5.9927679,390.13138 6.3427679,392.31388 6.6227679,393.11888 C 6.9615179,393.27263 7.5077779,393.52886 8.2790179,393.77513 C 9.0202679,394.02263 10.071528,394.24389 11.185268,394.30638 C 15.079018,394.24388 17.966518,391.54888 17.966518,388.08763 C 17.966518,384.40888 15.002738,383.07635 12.716518,382.05638 C 10.366518,380.97638 8.5915379,379.87389 8.5915179,377.58763 C 8.5915179,375.64013 9.6802879,374.0251 12.060268,374.02513 C 14.765208,374.02513 15.762338,376.1129 16.435268,377.93138 C 16.435268,377.93139 16.478018,378.0323 16.497768,378.08763 C 16.519868,378.14823 16.538718,378.21543 16.560268,378.27513 C 16.582888,378.34217 16.579798,378.38903 16.591518,378.43138 C 17.997768,378.69888 18.136498,378.88761 19.154018,380.68138 C 20.656518,383.34638 21.541548,385.00137 22.122768,385.99388 C 22.655268,386.89263 22.747788,387.20136 22.747768,387.58763 L 22.747768,390.30638 C 22.747768,392.92513 22.571498,393.22635 20.341518,393.49388 L 20.341518,393.83763 L 27.247768,393.83763 L 27.247768,393.49388 C 24.921518,393.22638 24.716518,392.92512 24.716518,390.30638 L 24.716518,387.30638 C 24.716518,386.91888 24.756528,386.65388 25.216518,385.80638 C 26.331518,383.72138 27.195238,382.06386 28.091518,380.68138 C 29.057058,379.20066 29.309408,378.76356 30.591518,378.49388 C 32.153948,378.75604 32.318258,379.14975 32.341518,381.58763 L 32.341518,390.30638 C 32.341518,392.92513 32.127758,393.22635 30.091518,393.49388 L 30.091518,393.83763 L 35.497768,393.83763 C 37.364018,393.83763 38.911508,393.57887 40.122768,392.90013 C 41.527768,392.10013 42.404028,390.9026 42.404018,389.18138 C 42.404018,386.73388 40.415278,385.43389 38.185268,385.11888 L 38.185268,385.05638 C 39.372768,384.76888 41.372738,383.71888 41.372768,381.58763 C 41.372768,380.37388 40.946498,379.51261 40.122768,378.93138 C 39.322768,378.37388 38.184008,378.08761 36.560268,378.08763 L 30.904018,378.08763 L 25.716518,378.08763 L 25.716518,378.43138 L 26.716518,378.58763 C 27.612768,378.75888 27.822738,379.08011 27.435268,380.02513 C 26.829018,381.52763 25.269008,384.44891 24.372768,386.11888 C 23.257768,384.27763 21.122748,380.37015 20.904018,379.83763 C 20.541518,378.94013 20.633998,378.77137 21.216518,378.65013 L 22.341518,378.43138 L 22.341518,378.08763 L 16.997768,378.08763 C 16.757248,376.27189 16.586298,375.05253 16.466518,373.99388 C 15.539018,373.77763 14.510268,373.27516 12.747768,373.27513 z M 49.247768,377.71263 L 48.935268,377.80638 L 43.966518,390.58763 C 43.044018,392.93888 42.760278,393.1051 41.185268,393.49388 L 41.185268,393.83763 L 46.372768,393.83763 L 46.372768,393.49388 L 45.841518,393.36888 C 44.532768,393.07763 44.322798,392.7926 44.685268,391.33763 C 44.929018,390.36888 45.551498,388.46512 45.841518,387.71263 L 51.029018,387.71263 C 51.734018,389.58138 52.421488,391.47516 52.591518,392.05638 C 52.811518,392.81013 52.745248,393.0576 51.872768,393.27513 L 51.060268,393.49388 L 51.060268,393.83763 L 56.841518,393.83763 L 56.841518,393.49388 C 55.340268,393.12763 55.052778,392.95014 54.279018,390.96263 C 53.309018,388.49013 52.216538,385.39013 51.029018,382.33763 L 49.247768,377.71263 z M 61.560268,377.71263 C 58.407768,377.71263 56.654028,379.79885 56.654018,382.15013 C 56.654018,384.93763 59.707778,386.04012 60.654018,386.52513 C 61.961518,387.20388 63.904018,387.9839 63.904018,390.43138 C 63.904018,392.44263 62.715258,393.52515 60.872768,393.52513 C 58.206518,393.52513 56.862748,390.64012 56.404018,389.52513 L 56.029018,389.65013 C 56.271518,390.93513 56.529038,392.64385 56.747768,393.27513 C 57.012768,393.39513 57.422758,393.58265 58.029018,393.77513 C 58.612768,393.97013 59.436538,394.1339 60.310268,394.18138 C 63.362768,394.13388 65.654018,392.05389 65.654018,389.33763 C 65.654018,386.45388 63.321538,385.38512 61.529018,384.58763 C 59.686518,383.73763 58.310268,382.88138 58.310268,381.08763 C 58.310268,379.56013 59.162768,378.30639 61.029018,378.30638 C 63.281518,378.30638 63.996538,380.17261 64.529018,381.65013 L 64.904018,381.55638 C 64.709018,380.07763 64.562798,379.12263 64.466518,378.27513 C 63.737768,378.10638 62.940268,377.71263 61.560268,377.71263 z M 65.716518,378.08763 L 65.716518,378.43138 C 67.654018,378.69888 67.872778,378.96888 67.872768,381.58763 L 67.872768,390.30638 C 67.872768,392.92513 67.678998,393.22635 65.497768,393.49388 L 65.497768,393.83763 L 76.841518,393.83763 C 77.037768,393.18263 77.592778,390.7051 77.716518,390.02513 L 77.341518,389.96263 C 76.782768,391.07638 76.346518,391.90264 75.935268,392.33763 C 75.401518,392.92013 74.254018,393.30636 72.872768,393.30638 C 71.732768,393.30638 70.850288,393.28762 70.341518,392.90013 C 69.930268,392.58513 69.810248,392.00137 69.810268,390.61888 L 69.810268,385.96263 L 72.247768,385.96263 C 73.287768,385.96263 73.815288,386.01387 74.154018,386.30638 C 74.495268,386.57138 74.661528,387.10386 74.904018,388.02513 L 75.247768,388.02513 L 75.247768,383.21263 L 74.904018,383.21263 C 74.419018,385.00513 74.330268,385.24387 72.247768,385.24388 L 69.810268,385.24388 L 69.810268,379.33763 C 69.810268,378.65888 69.850268,378.61886 70.529018,378.61888 L 72.122768,378.61888 C 73.965268,378.61888 74.697738,379.05013 75.060268,379.46263 C 75.400268,379.85138 75.816498,380.47015 76.154018,381.68138 L 76.497768,381.61888 C 76.376518,380.26263 76.268988,378.50136 76.247768,378.08763 L 65.716518,378.08763 z M 78.872768,378.15013 C 78.242768,378.15013 77.747748,378.64513 77.747768,379.27513 C 77.747768,379.89513 78.242788,380.40012 78.872768,380.40013 C 79.502768,380.40013 80.029018,379.89513 80.029018,379.27513 C 80.029018,378.64513 79.502788,378.15014 78.872768,378.15013 z M 78.872768,378.27513 C 79.394018,378.27513 79.810258,378.73013 79.810268,379.27513 C 79.810268,379.82013 79.394038,380.27514 78.872768,380.27513 C 78.351518,380.27513 77.935258,379.82013 77.935268,379.27513 C 77.935268,378.73013 78.351538,378.27512 78.872768,378.27513 z M 35.779018,378.55638 C 38.639018,378.55638 39.247748,380.41511 39.247768,381.86888 C 39.247768,383.97763 38.074048,385.02515 35.747768,385.02513 L 34.216518,385.02513 L 34.216518,379.33763 C 34.216518,378.85388 34.289018,378.75388 34.435268,378.68138 C 34.629018,378.58263 34.978998,378.5564 35.779018,378.55638 z M 78.341518,378.65013 L 78.341518,378.71263 C 78.500268,378.73388 78.497768,378.74265 78.497768,378.90013 L 78.497768,379.65013 C 78.497768,379.80138 78.500248,379.8139 78.341518,379.83763 L 78.341518,379.90013 L 78.904018,379.90013 L 78.904018,379.83763 C 78.740268,379.81388 78.716538,379.80138 78.716518,379.65013 L 78.716518,379.33763 L 78.810268,379.33763 C 78.850268,379.33763 78.872768,379.38261 78.904018,379.43138 C 78.922768,379.47138 79.031528,379.65011 79.091518,379.74388 C 79.174018,379.87013 79.242758,379.89515 79.404018,379.90013 L 79.497768,379.93138 L 79.529018,379.86888 L 79.497768,379.86888 C 79.474018,379.84763 79.442748,379.82516 79.404018,379.77513 C 79.364018,379.72763 79.311518,379.68014 79.247768,379.58763 C 79.187768,379.49888 79.126498,379.36639 79.091518,379.30638 C 79.245268,379.25888 79.341538,379.14514 79.341518,378.99388 C 79.341518,378.72263 79.110258,378.65013 78.904018,378.65013 L 78.341518,378.65013 z M 78.841518,378.71263 C 78.945268,378.71263 79.091538,378.76765 79.091518,378.99388 C 79.091518,379.04263 79.100278,379.17513 78.997768,379.24388 C 78.971518,379.25888 78.907738,379.27512 78.841518,379.27513 L 78.716518,379.27513 L 78.716518,378.80638 C 78.716518,378.71263 78.720268,378.71263 78.841518,378.71263 z M 48.372768,380.80638 L 48.435268,380.80638 L 50.747768,386.99388 L 46.060268,386.99388 L 48.372768,380.80638 z M 34.216518,385.52513 L 35.622768,385.52513 C 38.167768,385.52513 40.091488,386.8026 40.091518,389.49388 C 40.091518,392.16013 38.370268,393.30636 36.310268,393.30638 C 34.541518,393.30638 34.216518,392.84761 34.216518,390.93138 L 34.216518,385.52513 z"
       id="path2602"
       style="fill:#231f20;fill-opacity:1;fill-rule:nonzero;stroke:none" />
  </g>
</svg>
