<?xml version="1.0" encoding="UTF-8"?>
<svg version="1.1" viewBox="0 0 562.5 146.7" xml:space="preserve" xmlns="http://www.w3.org/2000/svg" xmlns:cc="http://creativecommons.org/ns#" xmlns:dc="http://purl.org/dc/elements/1.1/" xmlns:rdf="http://www.w3.org/1999/02/22-rdf-syntax-ns#"><title>Apache Phoenix logo</title><metadata><rdf:RDF><cc:Work rdf:about=""><dc:format>image/svg+xml</dc:format><dc:type rdf:resource="http://purl.org/dc/dcmitype/StillImage"/><dc:title/></cc:Work></rdf:RDF></metadata><defs><clipPath id="cvfe"><path d="m0 0h1440v388h-1440z"/></clipPath><clipPath id="cvfq"><path d="m579 32h54v252h-54z"/></clipPath><clipPath id="cvfp"><path d="m584.1 144c4.297 11.68 3.676 13.37 17.5 35.3 14.54 23.06 26.86 50.93 24.1 104.3 0 0 16.25-45.88-3.199-103-14.26-41.89-31.54-48.24-0.859-148.5 0 0-59.54 52.18-37.54 111.9"/></clipPath><clipPath id="cvfo"><path d="m0 0h1440v388h-1440z"/></clipPath><linearGradient id="cvfd" x2="1" gradientTransform="matrix(-47.61 2.111 2.111 47.61 628.7 157.6)" gradientUnits="userSpaceOnUse"><stop style="stop-color:#f7931d" offset="0"/><stop style="stop-color:#ed1c24" offset=".559"/><stop style="stop-color:#ed1c24" offset="1"/></linearGradient><clipPath id="cvfn"><path d="m552 62h71v230h-71z"/></clipPath><clipPath id="cvfm"><path d="m572.1 199.6s5.95 6.488 11.21 12.41c2.601 2.933 42.2 56.26 38.36 79.2 0.953-5.555 7.422-52.72-35.08-116.8-17.85-26.91-25.65-72.75-6.109-111.7 0 0-57.71 81.87-8.376 136.9m49.48 92.05c0.031-0.144 0.055-0.289 0.082-0.437-0.035 0.199-0.063 0.348-0.082 0.437m-0.02 0.114c0-4e-3 8e-3 -0.043 0.02-0.114-8e-3 0.036-0.012 0.075-0.02 0.114"/></clipPath><clipPath id="cvfl"><path d="m0 0h1440v388h-1440z"/></clipPath><linearGradient id="cvfc" x2="1" gradientTransform="matrix(-64.63 2.866 2.866 64.63 618.1 176.4)" gradientUnits="userSpaceOnUse"><stop style="stop-color:#f7931d" offset="0"/><stop style="stop-color:#ed1c24" offset=".559"/><stop style="stop-color:#ed1c24" offset="1"/></linearGradient><clipPath id="cvfk"><path d="m538 135h82v158h-82z"/></clipPath><clipPath id="cvfj"><path d="m564.2 236.9c30.06 20.16 47.58 35.67 55.21 55.98 0 0-0.664-5.855-4.547-15.48-5.812-14.43-22.01-47.04-45.44-68.08-33.15-29.79-26.61-74.28-26.61-74.28-12.74 74.28 7.453 92.51 21.38 101.9"/></clipPath><clipPath id="cvfi"><path d="m0 0h1440v388h-1440z"/></clipPath><linearGradient id="cvfb" x2="1" gradientTransform="matrix(-75.5 3.348 3.348 75.5 615.8 212.4)" gradientUnits="userSpaceOnUse"><stop style="stop-color:#f7931d" offset="0"/><stop style="stop-color:#ed1c24" offset=".559"/><stop style="stop-color:#ed1c24" offset="1"/></linearGradient><clipPath id="cvfh"><path d="m443 14h243v365h-243z"/></clipPath><clipPath id="cvfg"><path d="m625.9 171.7c26.74 75.7 19.46 118.7-5.586 142.9-9.808 9.496-27.89 22.51-56.19 19.08-28.59-3.461-45.53-18.19-57.4-34.02-18.32-24.41-24.73-56.95-0.796-106.2 14-31.41 23-58.39 22.91-58.37 1.734-4.73 3.207-9.453 4.152-14 11.57 2.188 15.68-7.254 15.68-7.254-4.848 1.883-6.469-2.054-6.469-2.054 9.887-4.797 7.254-13.11 7.254-13.11-5.195 3.203-11.11 2.211-11.11 2.211-0.27-0.203-11.7-0.461-12.22-0.75-21.54-15.97-35.93-12.26-44.27-6.18-2.106 1.418-3.664 2.871-4.809 4.34-2.879 3.192-4.258 5.953-4.258 5.953s-21.3 3.422-27.98 16.84c0 0 13.98-9.058 27.46-5.316 1.457 2.515 7.937 6.32 13.4 19.48 2.672 6.43-0.109 21.5-3.398 27.64-17.93 33.45-39.15 56.73-39.15 90.72 0 30.25 10.78 57.98 28.69 79.58 36.77 45.17 95.6 45.17 96.07 45.17 68.9 0 117.3-55.85 117.3-124.8 0-14.36-2.41-32.14-4.449-40.96-15.66-59.53-51.72-109.5-0.965-197.9 0 0-97.62 33.1-53.89 156.9"/></clipPath><clipPath id="cvff"><path d="m0 0h1440v388h-1440z"/></clipPath><linearGradient id="cvfa" x2="1" gradientTransform="matrix(242.1 0 0 242.1 443.1 196.6)" gradientUnits="userSpaceOnUse"><stop style="stop-color:#f7931d" offset="0"/><stop style="stop-color:#ed1c24" offset=".559"/><stop style="stop-color:#ed1c24" offset="1"/></linearGradient></defs><g transform="matrix(1.333 0 0 1.333 -30.16 -19.68)"><g transform="matrix(.2991 0 0 .2896 19.2 13.17)"><g clip-path="url(#cvfe)"><path d="m108.2 270c39.39 0 65.2-21.05 65.2-52.29v-0.683c0-33.95-25.47-51.61-63.84-51.61h-60.1v104.6zm-85.57-129.4h88.96c53.65 0 88.96 28.52 88.96 75.38v0.676c0 51.28-42.78 77.76-93.38 77.76h-57.73v83.88h-26.82z" style="fill:#808080"/><path d="m222.3 140.7h26.82v105.6h137.2v-105.6h26.82v237.7h-26.82v-107h-137.2v107h-26.82z" style="fill:#808080"/><path d="m717.4 140.7h171.8v24.45h-145v81.16h129.7v24.44h-129.7v83.2h146.7v24.45h-173.5z" style="fill:#808080"/><path d="m917.8 140.7h25.13l149.7 190.5v-190.5h26.14v237.7h-21.39l-153.5-194.9v194.9h-26.14z" style="fill:#808080"/><path d="m1148 140.7h26.82v237.7h-26.82z" style="fill:#808080"/><path d="m1413 140.7-87.6 116.5 91 121.2h-31.92l-76.06-102.5-76.06 102.5h-30.9l91-121.2-87.6-116.5h31.58l72.66 97.79 72.67-97.79z" style="fill:#808080"/><path d="m70.52 78.84-14.71-32.94-14.81 32.94zm-18.04-41.46h6.848l29.52 65.25h-7.864l-7.589-17.12h-35.27l-7.676 17.12h-7.504z" style="fill:#808080"/><path d="m124.9 73.1c10.74 0 17.77-5.739 17.77-14.25v-0.184c0-9.262-6.942-14.07-17.41-14.07h-16.38v28.51zm-23.32-35.26h24.24c14.63 0 24.25 7.777 24.25 20.54v0.191c0 13.97-11.66 21.19-25.45 21.19h-15.73v22.86h-7.309z" style="fill:#808080"/><path d="m199 78.84-14.71-32.94-14.81 32.94zm-18.05-41.46h6.855l29.52 65.25h-7.871l-7.586-17.12h-35.26l-7.684 17.12h-7.492z" style="fill:#808080"/><path d="m223.4 70.41v-0.184c0-18.32 13.7-33.51 32.77-33.51 11.76 0 18.78 4.164 25.26 10.28l-4.988 5.367c-5.465-5.179-11.57-8.887-20.37-8.887-14.34 0-25.08 11.66-25.08 26.57v0.183c0 15 10.83 26.75 25.08 26.75 8.887 0 14.72-3.426 20.91-9.344l4.813 4.719c-6.75 6.851-14.16 11.39-25.91 11.39-18.69 0-32.49-14.72-32.49-33.33" style="fill:#808080"/><path d="m294.6 37.84h7.309v28.78h37.39v-28.78h7.321v64.78h-7.321v-29.14h-37.39v29.14h-7.309z" style="fill:#808080"/><path d="m364.9 37.84h46.83v6.664h-39.52v22.12h35.36v6.668h-35.36v22.67h39.99v6.66h-47.3z" style="fill:#808080"/></g><g clip-path="url(#cvfq)"><g clip-path="url(#cvfp)"><g clip-path="url(#cvfo)"><path d="m584.1 144c4.297 11.68 3.676 13.37 17.5 35.3 14.54 23.06 26.86 50.93 24.1 104.3 0 0 16.25-45.88-3.199-103-14.26-41.89-31.54-48.24-0.859-148.5 0 0-59.54 52.18-37.54 111.9" style="fill:url(#cvfd)"/></g></g></g><g clip-path="url(#cvfn)"><g clip-path="url(#cvfm)"><g clip-path="url(#cvfl)"><path d="m572.1 199.6s5.95 6.488 11.21 12.41c2.601 2.933 42.2 56.26 38.36 79.2 0.953-5.555 7.422-52.72-35.08-116.8-17.85-26.91-25.65-72.75-6.109-111.7 0 0-57.71 81.87-8.376 136.9m49.48 92.05c0.031-0.144 0.055-0.289 0.082-0.437-0.035 0.199-0.063 0.348-0.082 0.437m-0.02 0.114c0-4e-3 8e-3 -0.043 0.02-0.114-8e-3 0.036-0.012 0.075-0.02 0.114" style="fill:url(#cvfc)"/></g></g></g><g clip-path="url(#cvfk)"><g clip-path="url(#cvfj)"><g clip-path="url(#cvfi)"><path d="m564.2 236.9c30.06 20.16 47.58 35.67 55.21 55.98 0 0-0.664-5.855-4.547-15.48-5.812-14.43-22.01-47.04-45.44-68.08-33.15-29.79-26.61-74.28-26.61-74.28-12.74 74.28 7.453 92.51 21.38 101.9" style="fill:url(#cvfb)"/></g></g></g><g clip-path="url(#cvfh)"><g clip-path="url(#cvfg)"><g clip-path="url(#cvff)"><path d="m625.9 171.7c26.74 75.7 19.46 118.7-5.586 142.9-9.808 9.496-27.89 22.51-56.19 19.08-28.59-3.461-45.53-18.19-57.4-34.02-18.32-24.41-24.73-56.95-0.796-106.2 14-31.41 23-58.39 22.91-58.37 1.734-4.73 3.207-9.453 4.152-14 11.57 2.188 15.68-7.254 15.68-7.254-4.848 1.883-6.469-2.054-6.469-2.054 9.887-4.797 7.254-13.11 7.254-13.11-5.195 3.203-11.11 2.211-11.11 2.211-0.27-0.203-11.7-0.461-12.22-0.75-21.54-15.97-35.93-12.26-44.27-6.18-2.106 1.418-3.664 2.871-4.809 4.34-2.879 3.192-4.258 5.953-4.258 5.953s-21.3 3.422-27.98 16.84c0 0 13.98-9.058 27.46-5.316 1.457 2.515 7.937 6.32 13.4 19.48 2.672 6.43-0.109 21.5-3.398 27.64-17.93 33.45-39.15 56.73-39.15 90.72 0 30.25 10.78 57.98 28.69 79.58 36.77 45.17 95.6 45.17 96.07 45.17 68.9 0 117.3-55.85 117.3-124.8 0-14.36-2.41-32.14-4.449-40.96-15.66-59.53-51.72-109.5-0.965-197.9 0 0-97.62 33.1-53.89 156.9" style="fill:url(#cvfa)"/></g></g></g></g></g></svg>
