<?xml version="1.0" encoding="UTF-8" standalone="no"?>
<!DOCTYPE svg PUBLIC "-//W3C//DTD SVG 1.1//EN" "http://www.w3.org/Graphics/SVG/1.1/DTD/svg11.dtd">
<svg xmlns:xl="http://www.w3.org/1999/xlink" version="1.1" xmlns="http://www.w3.org/2000/svg" xmlns:dc="http://purl.org/dc/elements/1.1/" viewBox="-18.458 -22.75 300 90" width="300" height="90">
  <defs/>
  <g id="Canvas_1" fill="none" stroke-dasharray="none" fill-opacity="1" stroke-opacity="1" stroke="none">
    <title>Canvas 1</title>
    <rect fill="white" x="-18.458" y="-22.75" width="300" height="90"/>
    <g id="Canvas_1_Layer_1">
      <title>Layer 1</title>
      <g id="Group_11">
        <g id="Group_8">
          <title>Graphic_3</title>
          <g id="Graphic_9">
            <path d="M 121.01028 46.037404 L 113.30487 46.037404 C 113.03239 33.031264 112.28195 20.80386 111.05504 9.346251 L 110.98655 9.346251 L 99.25497 46.037404 L 93.38844 46.037404 L 81.72684 9.346251 L 81.65984 9.346251 C 80.79475 20.346746 80.24978 32.57713 80.02346 46.037404 L 73 46.037404 C 73.45265 29.669174 74.59022 14.323871 76.40825 0 L 85.95849 0 L 97.07363 33.82786 L 97.14213 33.82786 L 108.32576 0 L 117.46356 0 C 119.46473 16.77769 120.64697 32.124482 121.01028 46.037404 Z M 154.42719 12.071063 C 151.28993 29.09592 147.1506 41.466273 142.01366 49.18806 C 138.01132 55.13202 133.6263 58.10698 128.85119 58.10698 C 127.57812 58.10698 126.00726 57.722824 124.14605 56.96047 L 124.14605 52.85539 C 125.0558 52.98642 126.1234 53.060866 127.3503 53.060866 C 129.58078 53.060866 131.3735 52.44741 132.74037 51.217523 C 134.37526 49.71962 135.1927 48.0356 135.1927 46.1729 C 135.1927 44.895366 134.55542 42.283716 133.28384 38.32901 L 124.828 12.069574 L 132.3979 12.069574 L 138.46694 31.70906 C 139.83083 36.16852 140.39962 39.281957 140.17181 41.05532 C 143.49072 32.191486 145.80904 22.526595 147.12976 12.068085 L 154.42719 12.068085 Z" fill="#5d87a1"/>
          </g>
        </g>
        <g id="Group_6">
          <title>Graphic_4</title>
          <g id="Graphic_7">
            <path d="M 264.52892 47.35514 L 242.6411 47.35514 L 242.6411 1.3177366 L 250.00404 1.3177366 L 250.00404 41.68813 L 264.52892 41.68813 L 264.52892 47.35514 M 236.91154 48.4674 L 228.44825 44.290845 C 229.1987 43.67441 229.91637 43.007354 230.56258 42.23458 C 234.15993 38.008883 235.95413 31.759685 235.95413 23.482513 C 235.95413 8.25186 229.97742 .63281135 218.01952 .63281135 C 212.15596 .63281135 207.58185 2.5654917 204.3106 6.432341 C 200.71622 10.66101 198.92201 16.887874 198.92201 25.120377 C 198.92201 33.212918 200.51223 39.14944 203.69416 42.91504 C 206.6051 46.326264 210.99308 48.03411 216.8611 48.03411 C 219.04988 48.03411 221.0585 47.766096 222.88844 47.2256 L 233.9068 53.640074 L 236.91154 48.4674 M 209.49518 38.14289 C 207.63099 35.14411 206.6989 30.328787 206.6989 23.68948 C 206.6989 12.097864 210.2203 6.295356 217.27057 6.295356 C 220.95576 6.295356 223.65675 7.683074 225.38395 10.452555 C 227.24516 13.455803 228.18172 18.227945 228.18172 24.774937 C 228.18172 36.461846 224.65734 42.30605 217.61154 42.30605 C 213.92485 42.30754 211.22387 40.92429 209.49518 38.14289 M 195.7133 34.59468 C 195.7133 38.498754 194.2809 41.70153 191.4191 44.21044 C 188.55433 46.70893 184.7128 47.96115 179.89896 47.96115 C 175.39632 47.96115 171.03067 46.52281 166.80498 43.66101 L 168.78382 39.7078 C 172.41987 41.52881 175.71198 42.4341 178.66758 42.4341 C 181.44153 42.4341 183.60947 41.81916 185.18182 40.599693 C 186.75268 39.37576 187.68924 37.658976 187.68924 35.48806 C 187.68924 32.752827 185.78187 30.415147 182.2828 28.457154 C 179.0562 26.685283 172.60302 22.98073 172.60302 22.98073 C 169.10543 20.431617 167.3544 17.694894 167.3544 13.1863 C 167.3544 9.454946 168.66023 6.442764 171.27337 4.1512425 C 173.88949 1.850787 177.26498 .7042818 181.40282 .7042818 C 185.67616 .7042818 189.56087 1.8492981 193.05995 4.1155072 L 191.2851 8.070206 C 188.29227 6.798627 185.33816 6.162838 182.42425 6.162838 C 180.06424 6.162838 178.24174 6.730135 176.97463 7.869195 C 175.6971 9.003789 174.90943 10.455533 174.90943 12.236338 C 174.90943 14.958171 176.857 17.32563 180.45137 19.322336 C 183.72114 21.097186 190.33514 24.865764 190.33514 24.865764 C 193.92206 27.41041 195.7133 30.12182 195.7133 34.59468" fill="#f8981d"/>
          </g>
        </g>
      </g>
      <g id="Group_4">
        <title>Graphic_5</title>
        <g id="Graphic_5">
          <path d="M 59.46485 42.150876 C 55.38894 42.047275 52.23318 42.45759 49.58452 43.578126 C 48.819775 43.88348 47.60382 43.88348 47.49749 44.849974 C 47.910534 45.25893 47.958245 45.918707 48.31676 46.483064 C 48.927466 47.50136 49.99211 48.871356 50.96406 49.58566 C 52.03143 50.40357 53.10289 51.2133 54.22615 51.926243 C 56.20685 53.15174 58.45201 53.864686 60.38227 55.086096 C 61.506896 55.79631 62.6247 56.715096 63.75069 57.47984 C 64.30414 57.88743 64.65857 58.548574 65.376965 58.80349 L 65.376965 58.648086 C 65.017085 58.19006 64.91485 57.52755 64.56178 57.01772 L 63.032295 55.54276 C 61.55461 53.55797 59.7184 51.82537 57.7377 50.40221 C 56.10734 49.278947 52.54126 47.752185 51.880115 45.87372 L 51.776514 45.77012 C 52.89705 45.665156 54.22615 45.25893 55.29079 44.94676 C 57.023395 44.490094 58.60332 44.593696 60.38091 44.13703 C 61.19882 43.932553 62.00991 43.676275 62.830544 43.424087 L 62.830544 42.964695 C 61.909034 42.047275 61.25198 40.82859 60.28276 39.96161 C 57.68999 37.721903 54.832764 35.53127 51.880115 33.697794 C 50.298826 32.676772 48.26496 32.01972 46.58143 31.151373 C 45.97482 30.844658 44.95243 30.693345 44.59528 30.183515 C 43.68195 29.06298 43.16803 27.58802 42.505523 26.261645 C 41.03329 23.463035 39.60331 20.35771 38.33283 17.398245 C 37.414044 15.413455 36.85514 13.43139 35.734606 11.595186 C 30.48636 2.9389903 24.786903 -2.3038015 16.027106 -7.449808 C 14.144554 -8.521268 11.904848 -8.977933 9.512466 -9.539564 L 5.6914715 -9.741314 C 4.8762896 -10.098468 4.0597445 -11.067689 3.3481643 -11.525718 C .44186354 -13.357832 -7.040634 -17.328777 -9.178101 -12.085985 C -10.554913 -8.772093 -7.141509 -5.514092 -5.969174 -3.83329 C -5.1035546 -2.6664075 -3.981657 -1.3386698 -3.376405 -.013658352 C -3.0178885 .8519612 -2.917013 1.7707449 -2.5584967 2.6854387 C -1.7433147 4.9265074 -.9812969 7.4197645 .09016298 9.510883 C .649067 10.57689 1.2584086 11.697425 1.9727152 12.662557 C 2.3816693 13.226913 3.0932495 13.476375 3.248652 14.396522 C 2.538435 15.410728 2.4825447 16.94158 2.0749537 18.21479 C .2428392 23.968775 .9585089 31.096846 3.5553677 35.32543 C 4.3678233 36.598642 6.306266 39.40134 8.899035 38.327155 C 11.194631 37.4111 10.686165 34.508887 11.345944 31.96383 C 11.497257 31.349034 11.397745 30.945533 11.703097 30.54203 L 11.703097 30.641544 C 12.413314 32.066067 13.130347 33.43879 13.788763 34.867403 C 15.36869 37.36066 18.119588 39.95888 20.411094 41.68603 C 21.63114 42.60754 22.597636 44.18338 24.12576 44.74637 L 24.12576 44.593696 L 24.024886 44.593696 C 23.715444 44.13703 23.262868 43.932553 22.85664 43.578126 C 21.937856 42.660706 20.920924 41.54017 20.20798 40.52324 C 18.07324 37.6701 16.183872 34.511613 14.50716 31.25225 C 13.686525 29.67096 12.979034 27.942446 12.317892 26.363883 C 12.009813 25.754542 12.009813 24.835758 11.49862 24.529042 C 10.732513 25.648214 9.616068 26.617435 9.057164 27.988794 C 8.087943 30.182152 7.987067 32.879886 7.627188 35.68531 L 7.4268 35.78346 C 5.8046155 35.37587 5.240259 33.697794 4.624101 32.27327 C 3.0987023 28.65539 2.8424243 22.84824 4.1660726 18.674182 C 4.5204995 17.606812 6.0540775 14.245209 5.4420095 13.228276 C 5.135294 12.253602 4.115635 11.698788 3.556731 10.931317 C 2.899678 9.966186 2.1799186 8.744776 1.72189 7.673316 C .5004803 4.8229057 -.11431409 1.6644168 -1.4297832 -1.1846304 C -2.0445776 -2.512368 -3.111948 -3.886454 -3.9762044 -5.109227 C -4.946789 -6.483313 -6.014159 -7.451171 -6.78163 -9.080172 C -7.035181 -9.640439 -7.390971 -10.556496 -6.9833805 -11.165838 C -6.883868 -11.574792 -6.676665 -11.727468 -6.270437 -11.829707 C -5.610658 -12.387248 -3.725379 -11.678394 -3.0642366 -11.371678 C -1.1762317 -10.608297 .4023313 -9.895354 1.978168 -8.82662 C 2.6911113 -8.315428 3.4558555 -7.3475695 4.3705496 -7.092655 L 5.4420095 -7.092655 C 7.068284 -6.738228 8.901762 -6.994506 10.432613 -6.533751 C 13.130347 -5.666768 15.57453 -4.3949204 17.766524 -3.0221976 C 24.436566 1.2077513 29.937 7.218014 33.650303 14.396522 C 34.259645 15.56613 34.51865 16.63759 35.074826 17.857637 C 36.14765 20.354984 37.474024 22.901405 38.53867 25.345588 C 39.608765 27.73797 40.628424 30.18079 42.15655 32.168306 C 42.918567 33.23704 45.98027 33.797306 47.352993 34.357574 C 48.36856 34.81424 49.94985 35.220467 50.86591 35.780734 C 52.59851 36.848104 54.3243 38.073604 55.9533 39.2473 C 56.76439 39.858007 59.31354 41.131217 59.46485 42.150876 M 7.5194965 -2.103414 C 6.816436 -2.1107218 6.11553 -2.024541 5.4351936 -1.8471361 L 5.4351936 -1.7448976 L 5.5333426 -1.7448976 C 5.94366 -.9310789 6.656603 -.36672215 7.16507 .34349493 C 7.575387 1.16004 7.931177 1.9697692 8.333315 2.784951 L 8.431464 2.6840755 C 9.14986 2.1756095 9.507014 1.3604276 9.507014 .13765468 C 9.197572 -.22222502 9.14986 -.5739256 8.892219 -.9310789 C 8.59232 -1.4409084 7.931177 -1.69446 7.5194965 -2.103414" fill="#5d87a1"/>
        </g>
      </g>
    </g>
  </g>
</svg>
