<?xml version="1.0" encoding="UTF-8" standalone="no"?>
<!DOCTYPE svg PUBLIC "-//W3C//DTD SVG 1.1//EN" "http://www.w3.org/Graphics/SVG/1.1/DTD/svg11.dtd">
<svg xmlns:xl="http://www.w3.org/1999/xlink" version="1.1" xmlns="http://www.w3.org/2000/svg" xmlns:dc="http://purl.org/dc/elements/1.1/" viewBox="0 -222.5 512 90" width="512" height="90">
  <defs/>
  <g id="Canvas_1" fill="none" stroke-dasharray="none" fill-opacity="1" stroke-opacity="1" stroke="none">
    <title>Canvas 1</title>
    <rect fill="white" x="0" y="-222.5" width="512" height="90"/>
    <g id="Canvas_1_Layer_1">
      <title>Layer 1</title>
      <g id="Graphic_2">
        <path d="M 222.034 -167.477 L 255.866 -167.477 L 237.977 -196.258 L 205.144 -144.221 L 190.202 -144.221 L 230.137 -206.729 C 231.873 -209.254 234.767 -210.78 237.977 -210.78 C 241.081 -210.78 243.975 -209.307 245.659 -206.834 L 285.752 -144.221 L 270.81 -144.221 L 263.76 -155.849 L 229.507 -155.849 L 222.035 -167.477 Z M 377.251 -155.85 L 377.251 -210.149 L 364.571 -210.149 L 364.571 -150.535 C 364.571 -148.904 365.202 -147.325 366.412 -146.115 C 367.622 -144.905 369.253 -144.221 371.042 -144.221 L 428.867 -144.221 L 436.339 -155.849 L 377.25 -155.849 Z M 167.471 -165.584 C 179.784 -165.584 189.781 -175.528 189.781 -187.84 C 189.781 -200.153 179.784 -210.15 167.471 -210.15 L 111.998 -210.15 L 111.998 -144.22 L 124.674 -144.22 L 124.674 -198.52 L 166.63 -198.52 C 172.523 -198.52 177.258 -193.731 177.258 -187.838 C 177.258 -181.946 172.523 -177.158 166.63 -177.158 L 130.883 -177.21 L 168.734 -144.22 L 187.15 -144.22 L 161.684 -165.582 L 167.472 -165.582 Z M 33.97 -144.221 C 15.77 -144.22 1 -158.953 1 -177.158 C 1 -195.364 15.77 -210.148 33.97 -210.148 L 72.29 -210.148 C 90.494 -210.148 105.253 -195.364 105.253 -177.158 C 105.253 -158.953 90.494 -144.221 72.289 -144.221 Z M 71.438 -155.849 C 83.229 -155.849 92.779 -165.373 92.779 -177.159 C 92.779 -188.944 83.229 -198.52 71.438 -198.52 L 34.818 -198.52 C 23.031 -198.52 13.476 -188.944 13.476 -177.158 C 13.476 -165.373 23.031 -155.849 34.817 -155.849 L 71.437 -155.849 Z M 312.218 -144.221 C 294.014 -144.221 279.228 -158.953 279.228 -177.158 C 279.228 -195.364 294.014 -210.148 312.218 -210.148 L 357.732 -210.148 L 350.312 -198.52 L 313.06 -198.52 C 301.274 -198.52 291.698 -188.944 291.698 -177.158 C 291.698 -165.373 301.274 -155.849 313.06 -155.849 L 358.783 -155.849 L 351.311 -144.221 Z M 467.278 -155.849 C 457.544 -155.849 449.283 -162.373 446.758 -171.371 L 500.952 -171.371 L 508.423 -182.999 L 446.758 -182.999 C 449.283 -191.944 457.544 -198.52 467.278 -198.52 L 504.478 -198.52 L 512 -210.15 L 466.435 -210.15 C 448.23 -210.15 433.445 -195.365 433.445 -177.16 C 433.445 -158.954 448.23 -144.222 466.435 -144.222 L 505.529 -144.222 L 513 -155.849 L 467.277 -155.849 Z" fill="#ea1b22"/>
      </g>
    </g>
  </g>
</svg>
