<?xml version="1.0" encoding="UTF-8" standalone="no"?>
<!DOCTYPE svg PUBLIC "-//W3C//DTD SVG 1.1//EN" "http://www.w3.org/Graphics/SVG/1.1/DTD/svg11.dtd">
<svg xmlns:xl="http://www.w3.org/1999/xlink" version="1.1" xmlns="http://www.w3.org/2000/svg" xmlns:dc="http://purl.org/dc/elements/1.1/" viewBox="0 -141.54 680 150" width="680" height="150">
  <defs>
    <linearGradient x1="0" x2="1" id="Gradient" gradientUnits="userSpaceOnUse">
      <stop offset="0" stop-color="#909ca9"/>
      <stop offset=".19150198" stop-color="#c1c6cd"/>
      <stop offset="1" stop-color="#ededee"/>
    </linearGradient>
    <linearGradient id="Obj_Gradient" xl:href="#Gradient" gradientTransform="translate(3.6700836 -60.77212) rotate(30.578164) scale(92.58272)"/>
    <linearGradient x1="0" x2="1" id="Gradient_2" gradientUnits="userSpaceOnUse">
      <stop offset="0" stop-color="#939fab"/>
      <stop offset=".09366892" stop-color="#b9c0c7"/>
      <stop offset="1" stop-color="#dcdee1"/>
    </linearGradient>
    <linearGradient id="Obj_Gradient_2" xl:href="#Gradient_2" gradientTransform="translate(26.780077 -113.232) scale(38.07797)"/>
    <radialGradient cx="0" cy="0" r="1" id="Gradient_3" gradientUnits="userSpaceOnUse">
      <stop offset="0" stop-color="#ee352c"/>
      <stop offset="1" stop-color="#a91d22"/>
    </radialGradient>
    <radialGradient id="Obj_Gradient_3" xl:href="#Gradient_3" gradientTransform="translate(67.95488 -77.19855) scale(61.422846)"/>
  </defs>
  <g id="Canvas_1" fill="none" stroke-dasharray="none" fill-opacity="1" stroke-opacity="1" stroke="none">
    <title>Canvas 1</title>
    <rect fill="white" x="0" y="-141.54" width="680" height="150"/>
    <g id="Canvas_1_Layer_1">
      <title>Layer 1</title>
      <g id="Group_6">
        <title>Group_2</title>
        <g id="Group_11">
          <title>Graphic_5</title>
          <g id="Graphic_12">
            <path d="M 77.95129 -68.94617 L 53.840564 -61.163095 L 32.864484 -52.00947 L 26.998578 -50.4811 C 25.502688 -49.07732 23.939567 -47.65693 22.241984 -46.21162 C 20.384727 -44.625103 18.653528 -43.1881 17.31731 -42.141496 C 15.838229 -40.98691 13.65322 -38.827255 12.543908 -37.456703 C 10.888344 -35.405027 9.57734 -33.22045 9.005876 -31.550867 C 8.0058145 -28.52735 8.493239 -25.462296 10.426131 -22.63813 C 12.905275 -19.033161 17.846755 -15.361745 23.603412 -12.861526 C 26.536365 -11.582346 31.477844 -9.945987 35.19236 -9.023982 C 41.36921 -7.470687 53.32793 -5.801109 59.908165 -5.543609 C 61.23598 -5.485464 63.026 -5.485464 63.09323 -5.543609 C 63.2361 -5.634981 64.26137 -7.5620585 65.44632 -9.954294 C 69.48858 -18.111153 72.40473 -25.76963 73.99306 -32.306748 C 74.9427 -36.26889 75.690645 -41.54344 76.17807 -47.79814 C 76.30413 -49.54248 76.36295 -55.39847 76.2537 -57.383694 C 76.08563 -60.62318 75.799895 -63.2563 75.34609 -65.83128 C 75.27045 -66.21337 75.25364 -66.55393 75.28726 -66.570545 C 75.3629 -66.62869 75.58139 -66.69514 78.54796 -67.54239 L 77.94288 -68.94617 Z M 72.44675 -65.75652 C 72.66525 -65.75652 73.24512 -60.224475 73.39639 -56.7358 C 73.43 -55.99653 73.413195 -55.51476 73.37958 -55.51476 C 73.23671 -55.51476 70.30376 -57.225873 68.20279 -58.52167 C 66.37915 -59.65964 62.91675 -61.92728 62.3705 -62.35921 C 62.185615 -62.48381 62.20242 -62.50042 63.69831 -63.00711 C 66.22788 -63.85436 72.24506 -65.76483 72.44675 -65.76483 Z M 60.16028 -61.761154 C 60.32836 -61.761154 60.74015 -61.528576 61.74861 -60.913904 C 65.50514 -58.58812 70.6063 -55.780564 72.79131 -54.841944 C 73.46362 -54.55122 73.53925 -54.659204 71.99294 -53.620906 C 68.67341 -51.38649 64.5387 -49.19361 59.47116 -46.975807 C 58.58035 -46.5771 57.832406 -46.269765 57.8156 -46.269765 C 57.78198 -46.269765 57.89123 -46.71831 58.0341 -47.258224 C 59.25266 -51.743666 59.95018 -56.278947 59.9838 -59.925445 C 60.000605 -61.72793 60.000605 -61.72793 60.16868 -61.77777 C 60.13507 -61.761154 60.15188 -61.761154 60.16868 -61.761154 Z M 57.63071 -60.80592 C 57.73996 -60.69794 57.66433 -56.66104 57.52146 -55.5646 C 57.19371 -52.93148 56.68107 -50.4811 55.84909 -47.731687 C 55.647396 -47.067177 55.46251 -46.51065 55.428895 -46.469117 C 55.35326 -46.37775 52.85731 -48.794903 52.042134 -49.733524 C 50.62188 -51.353266 49.512567 -52.97301 48.688985 -54.55953 C 48.268794 -55.37355 47.61329 -56.95176 47.67212 -57.00991 C 47.966254 -57.20926 57.57189 -60.88068 57.639116 -60.81423 Z M 45.714015 -56.17927 C 45.73082 -56.17927 45.74763 -56.17927 45.77284 -56.16266 C 45.806455 -56.12943 45.940917 -55.83871 46.05017 -55.51476 C 46.630037 -53.944855 47.94104 -51.64399 49.075565 -50.165455 C 50.310937 -48.54571 51.932884 -46.817985 53.28591 -45.68001 C 53.72291 -45.32284 54.126294 -44.97397 54.17672 -44.924133 C 54.28597 -44.81615 54.319584 -44.83276 51.353015 -43.71971 C 47.907426 -42.423914 44.15089 -41.12812 39.85651 -39.757567 C 38.8303 -39.43094 37.80502 -39.10145 36.78069 -38.76911 C 36.612614 -38.710964 36.67144 -38.802334 37.14206 -39.5416 C 39.27664 -42.83923 42.52054 -49.30159 44.34418 -53.878405 C 44.655127 -54.66751 44.96607 -55.46492 45.01649 -55.64766 C 45.09213 -55.896854 45.176164 -55.988223 45.41988 -56.11282 C 45.545937 -56.146045 45.671994 -56.187576 45.73082 -56.187576 Z M 42.06673 -54.68412 C 42.117154 -54.6509 41.19273 -52.72382 40.276706 -50.95456 C 38.51189 -47.548946 36.579 -44.20148 33.990605 -40.131354 C 33.553603 -39.42531 33.13341 -38.777415 33.082985 -38.710964 C 32.990543 -38.58637 32.956928 -38.619592 32.662793 -39.176122 C 32.040905 -40.380546 31.53667 -41.933837 31.259343 -43.354227 C 30.982016 -44.758005 31.040843 -47.208386 31.351787 -48.720146 C 31.587094 -49.8332 31.57029 -49.81659 32.11654 -50.0907 C 34.45282 -51.261897 41.9911 -54.75888 42.06673 -54.68412 Z M 73.505635 -53.421554 L 73.505635 -52.665674 C 73.505635 -48.64539 73.06864 -43.13826 72.42994 -39.117977 C 72.32069 -38.411934 72.22825 -37.838793 72.21144 -37.82218 C 72.21144 -37.82218 71.682 -37.96339 71.06011 -38.14613 C 68.32885 -38.99338 65.353875 -40.239337 62.67304 -41.692953 C 60.908225 -42.648185 58.336636 -44.21809 58.412275 -44.28454 C 58.42908 -44.301155 59.193834 -44.69986 60.084644 -45.16502 C 63.65629 -47.000726 67.08508 -48.98595 70.05164 -50.946254 C 71.16096 -51.68552 72.84173 -52.873333 73.2031 -53.19728 L 73.49723 -53.41325 Z M 28.309584 -48.08886 C 28.385218 -48.08886 28.36841 -47.94765 28.250756 -47.299756 C 28.175122 -46.8346 28.082678 -45.970736 28.049063 -45.372676 C 27.906197 -42.739556 28.3432 -40.795863 29.654203 -38.12952 C 30.01557 -37.39025 30.309705 -36.77558 30.2929 -36.758968 C 30.16684 -36.650985 18.098872 -33.154 14.308723 -32.132316 C 13.182603 -31.82498 12.190946 -31.559175 12.123715 -31.534256 C 11.997656 -31.50103 11.980849 -31.517645 12.031272 -31.82498 C 12.451466 -34.474715 14.493608 -37.930165 17.334119 -40.8457 C 19.233395 -42.789393 20.746093 -43.92737 23.326083 -45.380984 C 25.183342 -46.427587 28.049063 -47.989185 28.267564 -48.06394 C 28.267564 -48.080555 28.284373 -48.080555 28.30118 -48.080555 Z M 56.7399 -43.063504 C 56.75671 -43.080117 57.19371 -42.84754 57.723155 -42.540203 C 61.622556 -40.30579 67.05146 -38.2375 71.682 -37.174284 L 72.10219 -37.082914 L 71.52232 -36.758968 C 69.10201 -35.429946 61.13513 -32.148927 52.99177 -29.14202 C 51.806827 -28.71009 50.63869 -28.278157 50.42018 -28.18679 C 50.201686 -28.095417 49.99999 -28.04558 49.99999 -28.06219 C 49.99999 -28.078806 50.32774 -28.71009 50.74794 -29.48258 C 53.02539 -33.693915 55.319644 -38.827255 56.48778 -42.398996 C 56.63065 -42.739556 56.723095 -43.04689 56.7399 -43.063504 Z M 53.840564 -42.124884 C 53.85737 -42.10827 53.714504 -41.72618 53.52962 -41.294247 C 51.94129 -37.489925 49.86553 -33.35335 47.209905 -28.70178 C 46.53759 -27.513972 45.974534 -26.558737 45.94932 -26.558737 C 45.932516 -26.558737 45.386264 -26.882686 44.73076 -27.28139 C 40.864976 -29.62379 37.4446 -32.506103 35.20076 -35.297044 L 34.87301 -35.69575 L 36.528575 -36.144294 C 42.470117 -37.747425 47.520847 -39.47515 52.52956 -41.601582 C 53.24389 -41.892306 53.823754 -42.124884 53.840564 -42.124884 Z M 71.85007 -35.911715 C 71.85007 -35.911715 71.86688 -35.895104 71.85007 -35.911715 C 71.86688 -35.4964 70.942456 -31.78345 70.1693 -29.10049 C 69.530604 -26.84946 68.98435 -25.080202 67.98429 -21.965312 C 67.54729 -20.59476 67.16071 -19.465093 67.143904 -19.465093 C 67.12709 -19.465093 67.01784 -19.481704 66.90859 -19.51493 C 61.496495 -20.486777 56.64746 -21.840718 52.092557 -23.643202 C 50.81517 -24.14989 48.991526 -24.955608 48.882275 -25.046976 C 48.84866 -25.080202 49.941163 -25.58689 51.327803 -26.18495 C 59.62243 -29.773307 68.2196 -33.84343 71.17776 -35.587766 C 71.52232 -35.803732 71.79965 -35.911715 71.85007 -35.911715 Z M 30.284494 -34.507937 C 30.31811 -34.474715 28.007044 -31.17708 24.763146 -26.69164 C 23.637027 -25.121736 22.317618 -23.286026 21.830193 -22.604902 C 21.334364 -21.923782 20.594823 -20.835645 20.17463 -20.187747 L 19.409876 -19.01655 L 18.586297 -19.69767 C 17.61985 -20.486777 15.947479 -22.181278 15.199534 -23.119898 C 13.628009 -25.046976 12.577524 -27.08204 12.15733 -28.934362 C 11.955637 -29.798226 11.955637 -30.230153 12.140522 -30.2883 C 12.41785 -30.36306 17.283695 -31.492726 21.838597 -32.53933 C 24.368164 -33.112466 27.309522 -33.8019 28.360007 -34.051086 C 29.418895 -34.30028 30.27609 -34.499633 30.2929 -34.499633 Z M 32.62077 -33.627462 L 33.20064 -32.979565 C 35.82265 -30.08064 38.503487 -27.937597 41.747385 -26.060356 C 42.32725 -25.736408 42.76425 -25.445685 42.730636 -25.42907 C 42.60458 -25.337702 31.46944 -21.433705 26.30946 -19.664448 C 23.410122 -18.659375 21.02342 -17.84535 21.006613 -17.84535 C 20.989806 -17.84535 20.821728 -17.953332 20.645247 -18.07793 L 20.317495 -18.310507 L 20.84694 -19.066388 C 22.56133 -21.51677 24.712723 -24.199728 29.393684 -29.78161 L 32.62077 -33.619155 Z M 47.167884 -23.344172 C 47.184694 -23.360783 47.991465 -23.07006 48.97472 -22.712885 C 51.344614 -21.83241 53.21868 -21.275884 55.73984 -20.644598 C 58.84087 -19.872106 63.32014 -19.116226 65.96736 -18.90026 C 66.370745 -18.867033 66.58925 -18.825503 66.51361 -18.775666 C 66.38755 -18.70091 63.70672 -17.82043 61.74021 -17.20576 C 58.605564 -16.233912 49.04195 -13.442971 41.234745 -11.225171 C 39.797683 -10.80985 38.55391 -10.46929 38.48668 -10.452679 C 38.301792 -10.419453 37.705117 -10.577273 37.705117 -10.65203 C 37.705117 -10.685256 38.14212 -11.25009 38.671566 -11.856453 C 41.293573 -14.954732 43.898774 -18.410187 46.06698 -21.6912 C 46.672054 -22.58829 47.17629 -23.327556 47.17629 -23.352475 Z M 43.9576 -23.2528 C 43.97441 -23.23619 42.680213 -21.184513 40.41957 -17.654302 C 39.453125 -16.159156 38.37743 -14.464655 37.999252 -13.874903 C 37.63789 -13.301762 37.091636 -12.396368 36.78069 -11.88968 L 36.25125 -10.967671 L 35.97392 -11.042427 C 35.318417 -11.225171 30.70469 -12.8283 29.486126 -13.31007 C 27.973427 -13.90813 26.410307 -14.622476 25.242168 -15.237147 C 23.788297 -16.009643 21.964655 -17.16423 22.107522 -17.197451 C 22.141137 -17.214067 24.63709 -17.878575 27.645676 -18.692601 C 35.62936 -20.835645 40.058205 -22.081603 42.95754 -22.97869 C 43.48699 -23.144817 43.940796 -23.269415 43.9576 -23.2528 Z M 66.64807 -17.994866 L 66.66488 -17.994866 C 66.740514 -17.812127 63.78235 -9.705102 62.706656 -7.1550455 C 62.471344 -6.581904 62.378904 -6.432391 62.25284 -6.4490026 C 61.9419 -6.465618 57.66433 -7.063678 55.05072 -7.43746 C 50.51263 -8.1185885 42.898714 -9.439299 40.98263 -9.87123 L 40.54563 -9.962602 L 43.26008 -10.577273 C 49.09237 -11.873069 51.89927 -12.579108 54.73978 -13.442971 C 58.328235 -14.5228 61.883075 -15.876741 65.47153 -17.529708 C 66.03459 -17.7789 66.51361 -17.97825 66.63967 -17.994866 Z" fill="url(#Obj_Gradient)"/>
          </g>
        </g>
        <g id="Group_9">
          <title>Graphic_4</title>
          <g id="Graphic_10">
            <path d="M 53.09262 -124.4992 C 52.68923 -124.54904 46.218246 -122.24818 42.04992 -120.57029 C 36.419325 -118.30265 32.040905 -116.13468 29.351664 -114.26575 C 28.3516 -113.55971 27.09102 -112.32206 26.889328 -111.83198 C 26.813694 -111.64924 26.780077 -111.43328 26.780077 -111.21731 L 29.225605 -108.93306 L 35.04109 -107.09735 L 48.873874 -104.64697 L 64.68997 -101.96401 L 64.85805 -103.31795 C 64.80762 -103.31795 64.765605 -103.33456 64.71518 -103.33456 L 62.63942 -103.65851 L 62.21923 -104.39778 C 60.06784 -108.14395 57.697944 -112.79552 56.311304 -115.92703 C 55.235605 -118.36079 54.21874 -121.16835 53.647275 -123.1868 C 53.33633 -124.40783 53.30272 -124.48259 53.10102 -124.4992 Z M 52.79848 -123.5772 L 52.81529 -123.5772 C 52.8321 -123.56058 52.90773 -123.0539 52.974966 -122.46414 C 53.28591 -119.939 53.848965 -117.51354 54.73978 -114.88042 C 55.41209 -112.8952 55.41209 -113.00318 54.63053 -113.24407 C 52.77327 -113.75076 44.445027 -115.17114 38.411043 -116.00178 C 37.4446 -116.12638 36.621018 -116.25097 36.621018 -116.27589 C 36.545384 -116.35065 40.974227 -118.6349 42.923925 -119.5403 C 45.41988 -120.67827 52.26904 -123.50244 52.781676 -123.5938 Z M 35.234378 -115.5034 L 35.94871 -115.27082 C 39.814493 -113.97502 49.52937 -112.13932 54.88264 -111.70739 C 55.48772 -111.64924 55.99196 -111.5994 56.008764 -111.5994 C 56.02557 -111.58279 55.512934 -111.30868 54.85743 -111.00134 C 52.26904 -109.72216 49.42853 -108.15226 47.46202 -106.94783 C 46.882154 -106.59066 46.35271 -106.29994 46.277074 -106.29994 C 46.20144 -106.29994 45.823266 -106.37469 45.41988 -106.42453 L 44.68874 -106.53251 L 42.865097 -108.30177 C 39.65482 -111.38344 37.14206 -113.75906 36.175613 -114.65615 L 35.225974 -115.5034 Z M 34.50324 -114.94687 L 37.074827 -111.77384 C 38.478276 -110.0295 39.89853 -108.31839 40.209473 -107.93629 C 40.52042 -107.5542 40.77253 -107.25517 40.755726 -107.23025 C 40.68009 -107.17211 37.041213 -107.87815 35.10832 -108.31008 C 33.125006 -108.75862 32.301425 -108.97459 31.082864 -109.35668 L 30.0828 -109.68063 L 30.0828 -109.92982 C 30.09961 -111.13425 31.654327 -112.93673 34.276335 -114.77244 L 34.511646 -114.93857 Z M 56.336515 -110.62756 C 56.41215 -110.62756 56.49619 -110.46143 56.723095 -109.97966 C 57.34498 -108.62572 59.27787 -104.98753 59.74849 -104.2898 C 59.891355 -104.05721 60.15188 -104.0406 57.58029 -104.44761 C 51.40344 -105.43607 49.41172 -105.76002 49.41172 -105.80156 C 49.41172 -105.81817 49.596606 -105.94276 49.831913 -106.07566 C 51.748 -107.12227 53.68089 -108.45129 55.38688 -109.87998 C 55.80707 -110.22054 56.18524 -110.54449 56.26088 -110.60264 C 56.27769 -110.63587 56.31971 -110.65248 56.336515 -110.63587 Z" fill="url(#Obj_Gradient_2)"/>
          </g>
        </g>
        <g id="Group_7">
          <title>Graphic_3</title>
          <g id="Graphic_8">
            <path d="M 27.015386 -112.08948 C 27.015386 -112.08948 26.612 -111.4582 26.998578 -110.51957 C 27.233887 -109.94643 27.93141 -109.2404 28.71297 -108.51774 C 28.71297 -108.51774 36.822713 -100.70144 37.805965 -99.58008 C 42.285233 -94.46335 44.23493 -89.42138 44.419816 -82.46895 C 44.529066 -78.00012 43.67187 -74.0712 41.537285 -69.51931 C 37.74714 -61.33753 29.746646 -52.316806 17.409754 -42.29932 L 19.216587 -42.897376 C 20.384727 -43.76124 21.964655 -44.68325 25.687572 -46.701697 C 34.267934 -51.353266 43.93239 -55.61444 55.77346 -60.016816 C 72.83333 -66.35458 100.87707 -73.78048 116.84444 -76.18933 L 118.5 -76.43852 L 118.24788 -76.83722 C 116.79401 -79.07164 115.78555 -80.4588 114.58379 -81.93734 C 111.08778 -86.22343 106.83542 -89.7038 101.64182 -92.58611 C 94.49852 -96.53164 85.25426 -99.6133 73.55606 -101.89756 C 71.35425 -102.32949 66.50521 -103.16013 62.56379 -103.74988 C 54.21874 -105.02906 48.82345 -105.90953 42.88191 -106.92291 C 40.74732 -107.28009 37.562252 -107.82 35.444474 -108.27685 C 34.35197 -108.50943 32.259406 -108.9995 30.612245 -109.55604 C 29.30124 -110.06272 27.401964 -110.5611 27.006982 -112.09778 Z M 31.721556 -107.58742 C 31.738366 -107.60403 32.0325 -107.49606 32.410676 -107.37146 C 33.099793 -107.13888 33.99901 -106.86477 35.049493 -106.58235 C 35.848676 -106.3646 36.64988 -106.15416 37.453 -105.95107 C 38.545505 -105.67696 39.46153 -105.42776 39.478336 -105.42776 C 39.604393 -105.30317 41.444845 -99.4804 42.06673 -97.25429 C 42.30204 -96.40704 42.486923 -95.68439 42.470117 -95.68439 C 42.45331 -95.66778 42.251616 -95.97511 42.01631 -96.39043 C 39.88172 -100.10338 36.511767 -103.86617 32.61237 -106.88969 C 32.099732 -107.24686 31.721556 -107.57081 31.721556 -107.59573 Z M 40.688495 -105.13704 C 40.780937 -105.13704 41.184323 -105.0789 41.671747 -104.97091 C 44.77278 -104.2898 50.32774 -103.24319 53.88258 -102.64513 C 54.48766 -102.55376 54.95828 -102.44578 54.95828 -102.41255 C 54.95828 -102.37933 54.73978 -102.24643 54.46245 -102.10522 C 53.85737 -101.79788 51.437054 -100.37749 50.63869 -99.83757 C 48.61335 -98.50856 46.78971 -97.06325 45.478704 -95.76745 C 44.94926 -95.24415 44.495454 -94.81222 44.495454 -94.81222 C 44.495454 -94.81222 44.386203 -95.11956 44.29376 -95.49334 C 43.638256 -97.99356 42.26842 -101.70651 41.033055 -104.32302 C 40.83136 -104.73834 40.671687 -105.11212 40.671687 -105.15366 C 40.671687 -105.12043 40.671687 -105.13704 40.688495 -105.13704 Z M 56.47098 -102.16336 C 56.58023 -102.13014 56.76511 -101.51546 57.12648 -100.16152 C 57.79879 -97.55332 58.109734 -94.62948 58.000484 -91.91329 C 57.96687 -91.15741 57.92485 -90.45137 57.89123 -90.36 L 57.84081 -90.17726 L 56.89117 -90.4846 C 54.94147 -91.09927 51.77321 -92.01297 49.05876 -92.76885 C 47.512446 -93.18417 46.25186 -93.55796 46.25186 -93.59949 C 46.25186 -93.70747 48.512506 -95.94188 49.47895 -96.78914 C 51.3194 -98.39227 56.311304 -102.2132 56.47938 -102.15505 Z M 57.73156 -101.98062 C 57.79039 -102.03046 65.27824 -100.75958 68.68181 -100.10338 C 71.21138 -99.6133 74.89228 -98.85742 75.11078 -98.77436 C 75.22003 -98.74113 74.83345 -98.52517 73.61489 -97.98525 C 68.80787 -95.84221 65.22782 -93.91513 61.68138 -91.57273 C 60.74855 -90.95806 59.96699 -90.45968 59.95018 -90.45968 C 59.933376 -90.45968 59.916566 -90.98298 59.916566 -91.61427 C 59.916566 -95.03649 59.22745 -98.49194 57.95006 -101.41579 C 57.824 -101.70651 57.71475 -101.97231 57.73156 -101.98893 Z M 77.1025 -98.20122 C 77.16132 -98.14308 76.91761 -96.68946 76.69911 -95.8256 C 76.04361 -93.14264 74.27879 -89.16388 72.110594 -85.41771 C 71.724015 -84.7532 71.37946 -84.21329 71.34584 -84.19667 C 71.312225 -84.18006 70.8164 -84.44586 70.25334 -84.76981 C 68.13556 -85.99085 65.73205 -87.14544 63.11004 -88.22526 C 62.378904 -88.5326 61.74021 -88.78179 61.7234 -88.82332 C 61.597345 -88.9313 67.46325 -92.76885 70.56428 -94.60456 C 73.02662 -96.08309 77.03526 -98.27598 77.1025 -98.20953 Z M 78.48914 -97.98525 C 78.65721 -97.98525 81.96834 -97.08817 83.69954 -96.58148 C 87.98552 -95.31891 92.90179 -93.54135 96.11207 -92.09603 L 97.43988 -91.49798 L 96.50705 -91.28201 C 88.67464 -89.49614 81.96834 -87.44447 75.497355 -84.85288 C 74.96791 -84.63691 74.497295 -84.45417 74.45528 -84.45417 C 74.42166 -84.45417 74.59814 -84.86949 74.84185 -85.37618 C 76.791555 -89.46291 78.05213 -93.73239 78.36308 -97.37058 C 78.37989 -97.71115 78.43871 -97.98525 78.48914 -97.98525 Z M 45.470303 -90.4929 C 45.520726 -90.55105 48.058694 -89.95299 49.42853 -89.5709 C 51.504287 -88.99776 55.91632 -87.53583 55.91632 -87.42785 C 55.91632 -87.41124 55.420494 -86.99592 54.840625 -86.48923 C 52.453925 -84.52893 50.159664 -82.45233 47.403195 -79.82752 C 46.579614 -79.05503 45.890494 -78.42374 45.85688 -78.42374 C 45.823266 -78.42374 45.806455 -78.531725 45.823266 -78.67293 C 46.24346 -81.69645 46.151017 -85.59214 45.57115 -89.53767 C 45.51232 -90.04436 45.4619 -90.47629 45.478704 -90.4929 Z M 98.70046 -90.43476 C 98.73408 -90.40153 97.53232 -88.52429 96.76757 -87.46108 C 95.67506 -85.91609 94.06993 -83.85611 90.43945 -79.35406 C 88.52337 -76.97843 86.37197 -74.29547 85.66605 -73.39008 C 84.93491 -72.49299 84.33824 -71.73711 84.31302 -71.73711 C 84.29622 -71.73711 84.06091 -72.06106 83.80039 -72.459765 C 81.75824 -75.483285 79.32112 -78.13302 76.42178 -80.50864 C 75.87553 -80.95719 75.27045 -81.44726 75.07716 -81.58847 C 74.87547 -81.72968 74.7158 -81.87919 74.7158 -81.89581 C 74.7158 -81.94564 77.81683 -83.26636 80.16151 -84.20498 C 84.27941 -85.86625 89.8932 -87.84317 94.10354 -89.12235 C 96.30536 -89.80348 98.65844 -90.47629 98.70046 -90.43476 Z M 100.10391 -90.07759 C 100.17955 -90.0942 100.61655 -89.87823 101.14599 -89.5709 C 105.57483 -87.07068 109.91124 -83.8395 113.34002 -80.52525 C 114.30646 -79.58663 116.69316 -77.13625 116.65955 -77.11964 C 116.65955 -77.11964 115.81916 -77.04488 114.83591 -76.97843 C 107.16317 -76.40529 97.33903 -74.80216 87.90148 -72.551135 C 87.26279 -72.40993 86.69972 -72.277025 86.66611 -72.277025 C 86.6325 -72.277025 87.33842 -72.98307 88.23764 -73.82201 C 93.7758 -79.09656 96.31376 -82.43572 99.29714 -88.37478 C 99.71733 -89.25525 100.0787 -90.01113 100.12072 -90.06928 C 100.10391 -90.06928 100.10391 -90.06928 100.12072 -90.06928 Z M 59.521586 -85.97424 C 59.7737 -85.9244 62.14359 -84.81965 63.93362 -83.93917 C 65.572376 -83.12515 68.034714 -81.82936 68.16077 -81.72137 C 68.17758 -81.70476 67.30358 -81.25622 66.22788 -80.73291 C 62.799096 -79.03841 59.86614 -77.43528 56.807134 -75.59957 C 55.93313 -75.07627 55.20199 -74.64434 55.18518 -74.64434 C 55.10955 -74.64434 55.12636 -74.7191 55.622185 -75.59957 C 57.26094 -78.55664 58.57195 -82.08685 59.31989 -85.52569 C 59.39553 -85.7998 59.46276 -85.97424 59.521586 -85.97424 Z M 57.15169 -85.54231 C 57.21052 -85.48416 56.58863 -83.27466 56.202053 -82.06193 C 55.454106 -79.77768 54.19353 -76.91198 52.974966 -74.75232 C 52.680827 -74.245635 52.24383 -73.50637 52.00852 -73.09936 L 51.55471 -72.3767 L 50.53784 -73.34855 C 49.352894 -74.48652 48.386445 -75.18426 47.15108 -75.81554 C 46.65525 -76.06473 46.277074 -76.2807 46.277074 -76.32223 C 46.277074 -76.46344 49.39491 -79.25438 51.781616 -81.27283 C 53.49601 -82.73475 57.10127 -85.59214 57.160097 -85.54231 Z M 71.63998 -79.65309 L 72.53079 -79.07995 C 74.57293 -77.76754 76.97644 -76.01489 78.81689 -74.48652 C 79.85897 -73.63927 81.85909 -71.8534 82.26248 -71.42147 L 82.48098 -71.18889 L 81.0019 -70.77357 C 72.65685 -68.48932 66.20267 -66.454256 58.6812 -63.71315 C 57.84081 -63.40582 57.134885 -63.156625 57.07606 -63.156625 C 56.96681 -63.156625 56.87436 -63.065255 58.75683 -64.77637 C 63.572255 -69.15383 67.83302 -73.97983 71.00128 -78.68124 Z M 67.83302 -78.714465 C 67.866636 -78.68124 65.370685 -75.20087 63.874795 -73.24056 C 62.08477 -70.89817 58.916505 -66.96925 56.731496 -64.41089 C 55.82388 -63.34767 55.033915 -62.467196 55.0003 -62.45058 C 54.94147 -62.43397 54.924664 -62.699774 54.924664 -63.11509 C 54.924664 -65.29136 54.361606 -67.61715 53.37835 -69.60237 C 52.958155 -70.43301 52.88252 -70.63236 52.974966 -70.71543 C 53.319523 -71.02276 58.62237 -74.01306 61.975515 -75.79893 C 64.23616 -76.98674 67.77419 -78.756 67.824614 -78.714465 Z M 44.79799 -73.13258 C 44.85682 -73.13258 45.26861 -72.916616 45.74763 -72.66742 C 46.915766 -72.03614 47.949443 -71.338404 48.882275 -70.57422 C 48.91589 -70.54099 48.445273 -70.1589 47.823387 -69.710355 C 46.09219 -68.48932 43.47018 -66.52071 41.94067 -65.31628 C 40.33553 -64.05371 40.285107 -64.02049 40.46159 -64.28629 C 41.663346 -66.10539 42.26842 -67.13538 42.90712 -68.447786 C 43.47018 -69.618985 44.03324 -71.00615 44.436626 -72.21057 C 44.57949 -72.733875 44.764377 -73.13258 44.79799 -73.13258 Z M 50.941224 -68.381335 C 51.03367 -68.39795 51.14292 -68.24013 51.630343 -67.51747 C 52.672426 -65.9891 53.470795 -63.92912 53.672486 -62.27615 L 53.7061 -61.918975 L 51.21015 -60.96374 C 46.74769 -59.25263 42.62979 -57.55813 39.839704 -56.29556 C 39.058143 -55.938386 37.68831 -55.29049 36.7975 -54.85025 C 35.906687 -54.401706 35.17555 -54.061145 35.17555 -54.07776 C 35.17555 -54.09437 35.73861 -54.50969 36.436133 -55.01638 C 41.881847 -58.92868 46.604825 -63.21477 50.14286 -67.50086 C 50.52944 -67.9494 50.873995 -68.36472 50.90761 -68.381335 Z M 48.11752 -67.70021 C 48.19316 -67.625455 46.108995 -65.30798 44.68874 -63.87928 C 41.167516 -60.33246 37.68831 -57.55813 33.36872 -54.858556 C 32.822466 -54.517995 32.326636 -54.21066 32.276214 -54.177434 C 32.150155 -54.102676 32.30983 -54.285417 34.209106 -56.32048 C 35.41086 -57.59966 36.326883 -58.67949 37.36056 -60.016816 C 38.049678 -60.89729 38.18414 -61.02189 39.1842 -61.72793 C 41.865037 -63.638395 48.04189 -67.783276 48.11752 -67.70852 Z" fill="url(#Obj_Gradient_3)"/>
          </g>
        </g>
      </g>
      <g id="Group_4">
        <title>Graphic_6</title>
        <g id="Graphic_5">
          <path d="M 224.17528 -83.67751 C 223.35477 -83.67751 222.53426 -83.63007 221.71375 -83.63007 C 204.97538 -82.87108 193.70706 -76.704285 187.0883 -64.60788 C 181.45413 -53.6974 182.05584 -39.4189 187.143 -28.41354 C 193.05065 -17.69281 202.62325 -12.00038 218.59582 -9.86572 C 221.98726 -9.39135 224.22998 -7.82594 230.79405 -1.42196 L 238.83503 6.5 L 253.4401 6.5 L 243.7581 -1.70658 C 238.39743 -6.21308 234.0761 -10.15034 234.0761 -10.4824 C 234.0761 -10.81446 236.1547 -11.57345 238.61623 -12.23757 C 246.82132 -14.32479 253.6042 -19.63772 258.36314 -27.79686 C 262.19218 -34.34315 262.7392 -36.38294 263.3409 -44.49464 C 264.7631 -68.73489 249.55635 -83.86725 224.28468 -83.72494 Z M 236.9752 -20.30184 C 229.86414 -17.40819 219.58043 -16.83894 212.85226 -18.92617 C 205.9053 -21.06083 199.17712 -27.13275 196.1139 -34.01109 C 192.72245 -41.50612 193.21476 -55.40513 197.0985 -61.666794 C 203.27966 -71.62854 211.48475 -76.18248 223.46417 -76.18248 C 241.18716 -76.18248 251.30676 -67.02716 252.61958 -49.85501 C 253.6589 -35.52907 247.97003 -24.7609 237.0299 -20.30184 Z M 489.09016 -62.99503 C 482.9637 -62.99503 478.25944 -60.907804 475.1415 -56.82823 L 472.68 -53.602525 L 472.68 -62.04629 L 462.0681 -62.04629 L 462.0681 -11.3837 L 472.68 -11.3837 L 472.68 -27.55968 C 472.68 -42.35998 472.8988 -44.11515 475.3603 -48.14728 C 478.75175 -53.6974 484.6047 -56.496174 490.2389 -55.16794 L 494.0132 -54.2192 L 494.0132 -62.99503 L 489.14486 -62.99503 Z M 426.8409 -63.469396 C 424.7623 -63.469396 422.57426 -63.23221 420.38624 -62.85272 C 406.2188 -59.72188 398.2325 -48.33703 398.7248 -36.62012 C 398.7248 -26.80069 401.02223 -21.86725 406.6564 -16.74407 C 418.1982 -8.77467 428.646 -8.158 442.7588 -12.42731 C 445.1656 -13.28118 447.7912 -14.27735 447.7912 -14.27735 L 447.7912 -22.24675 L 442.7588 -20.06465 C 431.32635 -15.8902 422.73836 -15.8902 415.8461 -20.82364 C 411.47004 -24.57116 409.5008 -29.07766 408.6256 -34.24828 L 451.34676 -34.24828 L 451.34676 -41.07919 C 451.34676 -55.02563 441.39126 -63.80145 426.8409 -63.56427 Z M 409.5555 -41.26894 C 409.5555 -41.26894 411.14184 -49.949885 416.9948 -53.36534 C 419.78453 -55.02563 423.06657 -55.83206 426.1845 -55.83206 C 429.35713 -55.83206 432.52976 -54.97819 435.1554 -53.27047 C 440.51605 -49.80757 441.44596 -41.31637 441.44596 -41.31637 L 409.6102 -41.31637 L 409.6102 -41.26894 Z M 154.15855 -50.42425 C 142.67143 -56.25899 137.58427 -60.48087 138.18598 -65.461744 C 139.9911 -79.21844 160.1756 -77.32096 171.38923 -72.10291 L 171.44393 -81.3531 C 171.44393 -81.3531 165.26276 -83.63007 156.40127 -83.72494 C 142.78083 -83.91469 133.97403 -80.16718 129.8715 -72.52984 C 123.79973 -61.23986 129.16038 -52.74866 148.57909 -43.26129 C 159.4645 -37.94836 164.27815 -33.29954 164.27815 -28.27123 C 164.27815 -17.88256 149.3449 -14.22992 133.91933 -20.7762 C 130.7467 -22.10444 128.06637 -23.19549 127.90227 -23.19549 C 127.35526 -20.2544 127.62877 -13.1863 127.62877 -13.1863 C 127.62877 -13.1863 132.38772 -11.52601 139.4441 -10.34009 C 157.05768 -7.399 173.08494 -14.32479 174.56186 -25.61477 C 175.87467 -36.19319 171.33453 -41.74331 154.04914 -50.42425 Z M 582.84694 -63.61171 C 580.7683 -63.61171 578.5803 -63.37452 576.2829 -62.94759 C 562.1154 -59.81676 554.12914 -48.431905 554.67614 -36.715 C 554.67614 -26.89556 556.9189 -22.057 562.6077 -16.88638 C 574.14955 -8.91699 584.59736 -8.25287 598.8195 -12.56963 C 601.2263 -13.42349 603.85196 -14.41966 603.85196 -14.41966 L 603.85196 -22.38906 L 598.8195 -20.20696 C 587.3871 -16.03252 578.7991 -16.03252 571.9068 -20.96595 C 567.4761 -24.71347 565.56156 -29.17253 564.68635 -34.39059 L 607.3528 -34.39059 L 607.3528 -41.2215 C 607.3528 -55.07307 597.3973 -63.89633 582.84694 -63.65914 Z M 565.56156 -41.41125 C 565.56156 -41.41125 567.1479 -50.0922 573.00084 -53.55509 C 575.7906 -55.21538 579.0179 -56.021806 582.1905 -56.021806 C 585.3632 -56.021806 588.5358 -55.16794 591.1614 -53.46021 C 596.5221 -49.99732 597.452 -41.41125 597.452 -41.41125 L 565.61626 -41.41125 L 565.61626 -41.36381 Z M 371.3745 -50.32938 C 359.8874 -56.16412 354.80025 -60.386 355.40196 -65.36687 C 357.20707 -79.123565 377.3916 -77.22609 388.6052 -72.00803 L 388.6599 -81.258225 C 388.6599 -81.258225 382.47874 -83.535195 373.61725 -83.63007 C 359.9968 -83.81982 351.19 -80.0723 347.08747 -72.43497 C 341.0157 -61.14499 346.48576 -52.65379 365.79506 -43.16641 C 376.6805 -37.85348 381.49413 -33.29954 381.49413 -28.27123 C 381.49413 -17.88256 366.56087 -14.18248 351.19 -20.7762 C 348.0174 -22.10444 345.33705 -23.19549 345.17295 -23.19549 C 344.62594 -20.2544 344.89945 -13.1863 344.89945 -13.1863 C 344.89945 -13.1863 349.6037 -11.57345 356.66007 -10.34009 C 374.27365 -7.399 390.3009 -14.32479 391.83254 -25.56733 C 393.14535 -36.09832 388.6052 -41.64843 371.3745 -50.32938 Z M 645.0962 -63.184774 C 638.9697 -63.184774 634.2108 -61.09755 631.14755 -56.97054 L 628.686 -53.744836 L 628.686 -62.1886 L 618.0741 -62.1886 L 618.0741 -11.47858 L 628.686 -11.47858 L 628.686 -27.65455 C 628.686 -42.45486 628.9048 -44.21002 631.36635 -48.24216 C 634.7578 -53.79227 640.61075 -56.59105 646.2449 -55.21538 L 650.0192 -54.26664 L 650.0192 -63.04246 L 645.1509 -63.04246 Z M 287.13564 -50.614 L 287.13564 -82.82364 L 276.46903 -82.82364 L 276.46903 -11.3837 L 321.3782 -11.3837 L 321.3782 -19.82747 L 287.13564 -19.82747 L 287.13564 -50.566565 Z M 534.1634 -40.55738 L 525.35664 -21.29801 L 516.87805 -40.65226 L 508.29006 -62.09373 L 497.34994 -62.09373 C 504.461 -45.2062 512.1191 -28.03405 519.8866 -11.3837 C 523.278 -11.33627 526.61475 -11.3837 530.0062 -11.3837 L 541.8762 -36.47781 L 553.96504 -62.09373 L 543.5172 -62.09373 C 543.5172 -62.09373 538.9224 -51.94223 534.1087 -40.50995 Z M 311.7509 -102.27276 C 313.4466 -102.27276 314.92353 -102.74713 316.07224 -103.7433 C 317.22096 -104.73948 317.87736 -105.87797 317.87736 -107.30107 C 317.87736 -108.72418 317.27566 -109.95754 316.07224 -110.85884 C 314.86883 -111.80758 313.5013 -112.23451 311.8056 -112.23451 C 310.0552 -112.23451 308.63297 -111.76014 307.48425 -110.8114 C 306.28084 -109.81523 305.78854 -108.6293 305.78854 -107.25363 C 305.78854 -105.78309 306.33554 -104.59717 307.48425 -103.69587 C 308.57826 -102.74713 310.0005 -102.3202 311.7509 -102.3202 Z M 307.97656 -110.47934 C 309.01587 -111.3332 310.274 -111.76014 311.8603 -111.76014 C 313.3372 -111.76014 314.59533 -111.38064 315.63464 -110.47934 C 316.67395 -109.62548 317.22096 -108.58187 317.22096 -107.30107 C 317.22096 -106.02028 316.67395 -104.92923 315.63464 -104.07536 C 314.59533 -103.2215 313.3372 -102.79457 311.8603 -102.79457 C 310.3287 -102.79457 309.12527 -103.17406 308.08596 -104.07536 C 307.04665 -104.92923 306.49964 -106.02028 306.49964 -107.30107 C 306.49964 -108.58187 306.99195 -109.62548 307.97656 -110.47934 Z M 310.5475 -106.8267 L 311.2586 -106.8267 C 311.7509 -106.8267 312.2432 -106.44721 312.6261 -105.68822 L 313.4466 -104.1228 L 314.75943 -104.1228 L 313.7201 -105.87797 C 313.2825 -106.58952 312.8996 -106.96901 312.4073 -107.11132 C 313.009 -107.25363 313.5013 -107.39595 313.8295 -107.728 C 314.1577 -108.01262 314.32183 -108.43956 314.32183 -108.86649 C 314.32183 -109.3883 314.103 -109.81523 313.7201 -110.09985 C 313.2278 -110.4319 312.462 -110.62165 311.5321 -110.62165 L 309.34407 -110.62165 L 309.34407 -104.1228 L 310.4381 -104.1228 L 310.4381 -106.8267 Z M 310.5475 -109.81523 L 311.5321 -109.81523 C 312.2432 -109.81523 312.7355 -109.67292 313.009 -109.5306 C 313.2825 -109.34086 313.3372 -109.15111 313.3372 -108.72418 C 313.3372 -107.96519 312.7902 -107.63313 311.7509 -107.63313 L 310.5475 -107.63313 Z M 134.13814 -107.39595 C 134.13814 -109.67292 134.08344 -111.3332 133.97403 -112.32938 L 134.02873 -112.32938 C 134.30224 -111.14346 134.63044 -110.2896 134.90394 -109.72035 L 145.13295 -90.46098 L 146.82867 -90.46098 L 157.05768 -109.9101 C 157.33118 -110.4319 157.60468 -111.23833 157.93289 -112.32938 L 157.98759 -112.32938 C 157.76878 -110.38447 157.71408 -108.72418 157.71408 -107.39595 L 157.71408 -90.41354 L 161.21492 -90.41354 L 161.21492 -115.6974 L 156.83887 -115.6974 L 147.48508 -98.14575 C 147.15687 -97.4342 146.66457 -96.39059 146.06286 -95.01492 L 145.89876 -95.01492 C 145.67996 -95.67904 145.18765 -96.72265 144.53125 -98.00344 L 135.34155 -115.74484 L 130.6373 -115.74484 L 130.6373 -90.50842 L 134.02873 -90.50842 L 134.02873 -107.44338 L 134.08344 -107.44338 Z M 169.0918 -107.34851 L 172.10033 -107.34851 L 172.10033 -91.59946 L 169.0918 -91.59946 Z M 170.62342 -113.13581 C 171.27983 -113.13581 171.77213 -113.32556 172.20974 -113.65761 C 172.64734 -113.98967 172.92084 -114.46404 172.92084 -114.98585 C 172.92084 -115.50765 172.70204 -115.98202 172.20974 -116.31408 C 171.77213 -116.64614 171.22512 -116.83588 170.62342 -116.83588 C 170.0217 -116.83588 169.4747 -116.64614 169.0371 -116.31408 C 168.5995 -115.98202 168.326 -115.50765 168.326 -114.98585 C 168.326 -114.4166 168.5448 -113.98967 169.0371 -113.65761 C 169.5294 -113.32556 170.0217 -113.13581 170.62342 -113.13581 Z M 193.76176 -91.26741 L 193.76176 -94.01875 C 192.12074 -92.97513 190.31562 -92.45333 188.4558 -92.45333 C 186.26778 -92.45333 184.46266 -93.07001 183.14985 -94.30337 C 181.83704 -95.48929 181.18063 -97.19702 181.18063 -99.28424 C 181.18063 -101.46634 181.89174 -103.2215 183.31395 -104.54973 C 184.68147 -105.83053 186.48658 -106.44721 188.6746 -106.44721 C 190.47973 -106.44721 192.17544 -105.97284 193.76176 -105.07154 L 193.76176 -108.01262 C 192.33955 -108.6293 190.64383 -108.96136 188.784 -108.96136 C 185.33787 -108.96136 182.65754 -108.01262 180.63362 -106.25746 C 178.6644 -104.45486 177.6251 -102.03558 177.6251 -99.09449 C 177.6251 -96.48546 178.5003 -94.30337 180.36012 -92.59564 C 182.27464 -90.88791 184.73617 -89.98661 187.7994 -89.98661 C 190.15152 -90.03405 192.06604 -90.46098 193.70706 -91.26741 Z M 202.40445 -99.66373 C 202.40445 -101.75096 202.95146 -103.41125 203.99077 -104.54973 C 204.97538 -105.59334 206.1241 -106.11515 207.4916 -106.11515 C 208.64032 -106.11515 209.46083 -105.9254 210.11723 -105.54591 L 210.11723 -108.53443 C 209.62493 -108.72418 208.96852 -108.77161 208.0933 -108.77161 C 206.8352 -108.77161 205.7412 -108.43956 204.75658 -107.77544 C 203.71727 -107.11132 202.89676 -106.06771 202.40445 -104.73948 L 202.34975 -104.73948 L 202.34975 -108.43956 L 198.90362 -108.43956 L 198.90362 -90.41354 L 202.34975 -90.41354 L 202.34975 -99.71117 L 202.40445 -99.71117 Z M 222.15136 -90.03405 C 225.3787 -90.03405 228.00432 -90.88791 229.91884 -92.64308 C 231.83336 -94.3508 232.81797 -96.67521 232.81797 -99.56886 C 232.81797 -102.50995 231.94276 -104.78692 230.13764 -106.44721 C 228.33252 -108.1075 225.871 -108.91392 222.64366 -108.91392 C 219.41633 -108.91392 216.7907 -108.1075 214.87618 -106.54208 C 212.79756 -104.83435 211.70355 -102.36764 211.70355 -99.28424 C 211.70355 -96.58034 212.57876 -94.30337 214.43858 -92.64308 C 216.3531 -90.88791 218.92402 -90.03405 222.15136 -90.03405 Z M 217.283 -104.73948 C 218.59582 -105.87797 220.29154 -106.49464 222.42486 -106.49464 C 224.6129 -106.49464 226.3086 -105.9254 227.512 -104.73948 C 228.77013 -103.50612 229.37183 -101.79839 229.37183 -99.47399 C 229.37183 -97.29189 228.82483 -95.53673 227.67612 -94.39824 C 226.5274 -93.16488 224.777 -92.5482 222.53426 -92.5482 C 220.34624 -92.5482 218.59582 -93.21232 217.283 -94.39824 C 215.9702 -95.6316 215.3685 -97.29189 215.3685 -99.47399 C 215.2591 -101.65608 215.9155 -103.45868 217.283 -104.73948 Z M 247.91533 -91.59946 C 249.22814 -92.59564 249.93925 -93.78156 249.93925 -95.29954 C 249.93925 -96.62777 249.39224 -97.71882 248.35293 -98.57269 C 247.53242 -99.28424 246.2196 -99.90092 244.3598 -100.5176 C 242.71877 -101.08684 241.67946 -101.60865 241.13246 -102.03558 C 240.58545 -102.50995 240.25725 -103.07919 240.25725 -103.88562 C 240.25725 -104.6446 240.58545 -105.21385 241.29656 -105.68822 C 242.00767 -106.16259 242.88288 -106.39977 244.0316 -106.39977 C 245.8914 -106.39977 247.47772 -105.97284 248.89994 -105.11898 L 248.89994 -108.01262 C 247.53242 -108.58187 246.0008 -108.86649 244.3051 -108.86649 C 242.11707 -108.86649 240.25725 -108.34468 238.83503 -107.34851 C 237.41282 -106.35233 236.7017 -105.07154 236.7017 -103.601 C 236.7017 -102.27276 237.194 -101.18171 238.06923 -100.37529 C 238.83503 -99.66373 240.14785 -98.99962 241.89827 -98.3355 C 243.594 -97.71882 244.7974 -97.10214 245.3991 -96.67521 C 246.0008 -96.20084 246.2743 -95.6316 246.2743 -94.96748 C 246.2743 -93.30719 244.9068 -92.40589 242.22647 -92.40589 C 240.14785 -92.40589 238.28803 -92.97513 236.647 -94.11362 L 236.647 -90.98278 C 238.12393 -90.2238 239.92905 -89.89174 241.95297 -89.89174 C 244.5239 -89.98661 246.4931 -90.50842 247.86063 -91.55203 Z M 264.2708 -108.96136 C 261.04347 -108.96136 258.41784 -108.15494 256.50332 -106.58952 C 254.4794 -104.88179 253.3307 -102.41507 253.3307 -99.33168 C 253.3307 -96.62777 254.2059 -94.3508 256.0657 -92.69051 C 257.98023 -90.93535 260.55116 -90.08148 263.7785 -90.08148 C 267.11523 -90.08148 269.63146 -90.93535 271.54598 -92.69051 C 273.4605 -94.39824 274.4451 -96.72265 274.4451 -99.6163 C 274.4451 -102.55738 273.5699 -104.83435 271.76478 -106.49464 C 269.90496 -108.15494 267.44343 -108.96136 264.2708 -108.96136 Z M 270.94427 -99.47399 C 270.94427 -97.29189 270.39726 -95.53673 269.24855 -94.39824 C 268.09984 -93.16488 266.34942 -92.5482 264.1067 -92.5482 C 261.91868 -92.5482 260.16826 -93.21232 258.85544 -94.39824 C 257.54263 -95.6316 256.94092 -97.29189 256.94092 -99.47399 C 256.94092 -101.79839 257.65203 -103.601 259.01955 -104.78692 C 260.33236 -105.9254 262.02808 -106.54208 264.1614 -106.54208 C 266.29472 -106.54208 267.99044 -105.97284 269.24855 -104.78692 C 270.34256 -103.50612 270.94427 -101.79839 270.94427 -99.47399 Z M 280.24337 -90.46098 L 283.6895 -90.46098 L 283.6895 -106.06771 L 288.72196 -106.06771 L 288.72196 -108.48699 L 283.5254 -108.48699 L 283.5254 -111.28577 C 283.5254 -113.79992 284.6741 -115.08072 287.08094 -115.08072 C 287.90145 -115.08072 288.72196 -114.89097 289.32366 -114.60635 L 289.32366 -117.21538 C 288.72196 -117.45256 287.90145 -117.5 286.86214 -117.5 C 285.0023 -117.5 283.4707 -117.02563 282.2673 -116.0769 C 280.84507 -114.93841 280.07927 -113.42043 280.07927 -111.38064 L 280.07927 -108.43956 L 276.46903 -108.43956 L 276.46903 -106.02028 L 280.07927 -106.02028 L 280.07927 -90.46098 Z M 294.3561 -95.39442 C 294.3561 -91.88409 296.21594 -90.08148 299.99027 -90.08148 C 301.3578 -90.08148 302.3971 -90.27123 303.2176 -90.69816 L 303.2176 -93.16488 C 302.5612 -92.78539 301.8501 -92.59564 301.0296 -92.59564 C 299.88087 -92.59564 299.06037 -92.83282 298.56806 -93.35463 C 298.07575 -93.87644 297.80225 -94.7303 297.80225 -95.96366 L 297.80225 -106.16259 L 303.2176 -106.16259 L 303.2176 -108.58187 L 297.80225 -108.58187 L 297.80225 -113.8948 C 296.59884 -113.56274 295.45013 -113.27812 294.3561 -112.94606 L 294.3561 -108.53443 L 290.63648 -108.53443 L 290.63648 -106.11515 L 294.3561 -106.11515 L 294.3561 -95.44185 Z M 663.5303 -62.14116 C 662.3816 -63.0899 660.9594 -63.51683 659.2636 -63.51683 C 657.5132 -63.51683 656.091 -63.04246 654.9423 -62.04629 C 653.7936 -61.050115 653.2466 -59.86419 653.2466 -58.48852 C 653.2466 -57.06542 653.7936 -55.83206 654.9423 -54.93076 C 656.091 -53.98202 657.5679 -53.55509 659.2636 -53.55509 C 660.9594 -53.55509 662.4363 -54.02946 663.585 -54.97819 C 664.7337 -55.97437 665.3354 -57.11285 665.3354 -58.53596 C 665.2807 -60.0065 664.6243 -61.192425 663.4756 -62.14116 Z M 662.9833 -55.31025 C 661.944 -54.45639 660.68586 -54.02946 659.2089 -54.02946 C 657.732 -54.02946 656.4739 -54.40895 655.4346 -55.31025 C 654.3953 -56.16412 653.8483 -57.3026 653.8483 -58.53596 C 653.8483 -59.81676 654.3406 -60.86037 655.3799 -61.71423 C 656.4192 -62.568095 657.6226 -62.99503 659.2089 -62.99503 C 660.68586 -62.99503 661.944 -62.61553 662.9833 -61.71423 C 664.0226 -60.86037 664.5696 -59.76932 664.5696 -58.53596 C 664.5696 -57.20773 664.0773 -56.16412 662.9833 -55.31025 Z M 659.86535 -58.25134 C 660.46705 -58.39365 660.9594 -58.5834 661.2876 -58.86802 C 661.6158 -59.15264 661.7799 -59.57957 661.7799 -60.05394 C 661.7799 -60.57575 661.5611 -61.00268 661.1782 -61.2873 C 660.68586 -61.61936 659.92005 -61.809105 658.9901 -61.809105 L 656.8021 -61.809105 L 656.8021 -55.35769 L 657.8961 -55.35769 L 657.8961 -58.06159 L 658.6072 -58.06159 C 659.0995 -58.06159 659.5371 -57.6821 659.97475 -56.92311 L 660.79526 -55.35769 L 662.1081 -55.35769 L 661.0688 -57.11285 C 660.74056 -57.87184 660.30295 -58.2039 659.86535 -58.34621 Z M 659.0995 -58.82058 L 657.8961 -58.82058 L 657.8961 -61.00268 L 658.8807 -61.00268 C 659.5918 -61.00268 660.02945 -60.907804 660.30295 -60.71806 C 660.57645 -60.52831 660.63116 -60.33856 660.63116 -59.91163 C 660.63116 -59.15264 660.08415 -58.82058 659.0448 -58.82058 Z M 467.0458 -109.29342 L 468.03044 -109.29342 L 468.03044 -115.79227 L 470.60136 -115.79227 L 470.60136 -116.5987 L 464.5296 -116.5987 L 464.5296 -115.79227 L 467.1005 -115.79227 L 467.1005 -109.29342 Z M 472.8988 -114.17942 C 472.8988 -114.7961 472.8988 -115.3179 472.8441 -115.60252 C 472.8988 -115.27047 473.0629 -115.03328 473.1176 -114.84354 L 476.0714 -109.29342 L 476.5637 -109.29342 L 479.51756 -114.89097 C 479.57226 -115.08072 479.68166 -115.27047 479.79106 -115.60252 C 479.73636 -115.03328 479.73636 -114.55891 479.73636 -114.22686 L 479.73636 -109.34086 L 480.7757 -109.34086 L 480.7757 -116.5987 L 479.51756 -116.5987 L 476.8372 -111.57039 C 476.7825 -111.38064 476.5637 -111.04858 476.3996 -110.62165 L 476.3449 -110.62165 C 476.2902 -110.85884 476.1261 -111.09602 475.962 -111.47552 L 473.2817 -116.55126 L 471.9142 -116.55126 L 471.9142 -109.24598 L 472.8988 -109.24598 L 472.8988 -114.13198 L 472.9535 -114.13198 Z" fill="#231f1f"/>
        </g>
      </g>
    </g>
  </g>
</svg>
