<svg xmlns="http://www.w3.org/2000/svg" width="120" height="60" fill="#808080"><path d="M28.094 22.223a10.46 10.46 0 0 0-14.63.898 10.46 10.46 0 0 0 .644 14.643c.975.876 1.802 1.302 2.537 1.302 1.413 0 2.47-1.58 3.833-3.574a31.8 31.8 0 0 1 2.722-3.629c1.032-1.104 2.14-2.135 3.314-3.086 1.753-1.475 3.13-2.635 3.154-3.938.012-.8-.506-1.648-1.574-2.617zm-4.555 6.265a16.62 16.62 0 0 0-1.889 1.722 17.8 17.8 0 0 0-1.543 2.098c-.697 1.055-1.2 1.815-1.852 1.815a.94.94 0 0 1-.617-.278 5.18 5.18 0 0 1 6.925-7.696.9.9 0 0 1 .358.704c-.037.53-.593.994-1.383 1.636zm-2.44-13.22c-8.137-.003-14.735 6.6-14.74 14.726a14.75 14.75 0 0 0 14.726 14.74 14.75 14.75 0 0 0 14.74-14.726 14.74 14.74 0 0 0-4.31-10.42c-2.76-2.765-6.508-4.318-10.416-4.32zm9.3 23.1a12.51 12.51 0 0 1-17.652.926c-5.183-4.6-5.676-12.52-1.103-17.727s12.493-5.738 17.722-1.192 5.8 12.464 1.28 17.715zm11.35-13.942a3.87 3.87 0 0 1 1.1-2.726c.708-.726 1.695-1.134 2.715-1.137h.107c1.075-.058 2.13.3 2.934 1.024l-1.035 1.248a2.75 2.75 0 0 0-1.968-.784c-1.228.06-2.18 1.097-2.134 2.326a2.23 2.23 0 0 0 2.097 2.363h.165a2.62 2.62 0 0 0 1.547-.448v-1.04h-1.654V23.84h3.243v3.243a4.86 4.86 0 0 1-3.201 1.184 3.74 3.74 0 0 1-2.696-.96 3.73 3.73 0 0 1-1.224-2.587 2.89 2.89 0 0 1-.005-.293zm9.187-3.756h3.414a2.98 2.98 0 0 1 2.177.758 2.34 2.34 0 0 1 .645 1.7c.054 1.046-.603 1.997-1.6 2.315L57.4 28.1h-1.92l-1.6-2.4h-1.302v2.4h-1.643zm3.307 3.628c.8 0 1.26-.427 1.26-1.067 0-.704-.5-1.067-1.3-1.067H52.58v2.134zM59.1 20.67h5.633v1.462h-4v1.52h3.52v1.462h-3.52v1.568h4.054v1.462H59.1zm7.65 0h5.633v1.462h-4v1.52h3.52v1.462h-3.52v1.568h4.054v1.462H66.74zm7.63 0h1.515l3.516 4.582V20.67h1.6v7.468h-1.398L75.98 23.4v4.748h-1.6zm8.898 0h3.05c1.782 0 2.86 1.067 2.86 2.582 0 1.728-1.344 2.625-3.02 2.625H84.92v2.24h-1.643zm2.945 3.766a1.15 1.15 0 0 0 1.291-1.003.91.91 0 0 0 0-.128c0-.736-.533-1.13-1.334-1.13H84.9v2.283zM90.8 20.67h1.643v5.975h3.734v1.494H90.8zm6.695 4.268V20.67h1.643v4.225c0 1.216.608 1.846 1.6 1.846s1.6-.608 1.6-1.792v-4.27h1.643v4.214c0 2.262-1.27 3.37-3.275 3.37s-3.2-1.13-3.2-3.33zm8.67-4.268h1.77l1.963 3.158 1.963-3.158h1.776v7.468H112v-4.876l-2.102 3.2h-.043l-2.08-3.158v4.844h-1.6zM42.08 31.873h2.913c2.347 0 3.97 1.6 3.97 3.734 0 2.102-1.6 3.734-3.97 3.734H42.08zm1.643 1.483v4.502h1.27a2.13 2.13 0 0 0 1.542-.54c.422-.378.677-.907.7-1.472a1.5 1.5 0 0 0 0-.219 2.13 2.13 0 0 0-.54-1.542c-.378-.422-.907-.677-1.472-.7a1.92 1.92 0 0 0-.24 0zm9.063-1.536H54.3l3.2 7.522h-1.718l-.683-1.675h-3.16l-.683 1.675H49.58zm1.728 4.396l-.992-2.427-1.014 2.427zm5.216-2.828h-2.27v-1.515h6.188v1.515h-2.273v5.953H59.73zm7.064-1.568H68.3l3.2 7.522h-1.718l-.683-1.675h-3.16l-.683 1.675H63.58zm1.718 4.396l-.982-2.427-.992 2.422zm4.375-4.343h3.467c.713-.047 1.415.2 1.952.66.347.33.54.8.533 1.27.015.68-.37 1.306-.982 1.6.864.33 1.398.832 1.398 1.835 0 1.366-1.1 2.048-2.795 2.048h-3.574zm4.3 2.2c0-.5-.384-.768-1.067-.768h-1.6v1.6h1.462c.726 0 1.184-.235 1.184-.8zm-.8 2.177h-1.9v1.64h1.952c.726 0 1.163-.256 1.163-.8-.02-.523-.373-.832-1.216-.832zm6.907-4.43h1.515L88 39.34h-1.718l-.683-1.675h-3.16l-.683 1.675H80.08zm1.755 4.396l-1.02-2.427-.992 2.422zm3.6 2.037l.97-1.163a3.43 3.43 0 0 0 2.23.907c.672 0 1.067-.267 1.067-.704 0-.416-.256-.63-1.504-.95-1.504-.384-2.475-.8-2.475-2.283 0-1.355 1.067-2.25 2.614-2.25a4.32 4.32 0 0 1 2.774.95l-.854 1.238a3.5 3.5 0 0 0-1.942-.742c-.63 0-.96.288-.96.65 0 .5.32.65 1.6.982 1.515.395 2.37.94 2.37 2.24 0 1.483-1.13 2.315-2.742 2.315a4.76 4.76 0 0 1-3.147-1.19zm7.657-6.38h5.633v1.462h-4v1.52h3.52v1.462h-3.52v1.568h4.054v1.462h-5.687z"/></svg>