<?xml version="1.0" encoding="UTF-8" standalone="no"?>
<!DOCTYPE svg PUBLIC "-//W3C//DTD SVG 1.1//EN" "http://www.w3.org/Graphics/SVG/1.1/DTD/svg11.dtd">
<svg xmlns:xl="http://www.w3.org/1999/xlink" version="1.1" xmlns="http://www.w3.org/2000/svg" xmlns:dc="http://purl.org/dc/elements/1.1/" viewBox="0 0 500 100" width="500" height="100">
  <defs/>
  <g id="Canvas_1" fill="none" stroke-dasharray="none" fill-opacity="1" stroke-opacity="1" stroke="none">
    <title>Canvas 1</title>
    <rect  x="0" y="0" width="500" height="50"/>
    <g id="Canvas_1_Layer_1">
      <title>Layer 1</title>
      <g id="Group_2">
        <g id="Group_4">
          <g id="Graphic_6">
            <rect x="22.6625" y="75.5" width="8.5" height="8.6" fill="#e52421"/>
          </g>
          <g id="Graphic_5">
            <path d="M 82.2625 15.9 L 82.2625 84.1 L 73.7625 84.1 L 73.7625 15.9 Z M 65.2625 15.9 L 65.2625 84.1 L 56.7625 84.1 L 56.7625 15.9 Z M 99.3625 43.6 L 99.3625 56.4 L 90.8625 56.4 L 90.8625 43.6 Z M 48.1625 15.9 L 48.1625 84.1 L 39.6625 84.1 L 39.6625 15.9 Z M 31.1625 15.9 L 31.1625 75.6 L 22.6625 75.6 L 22.6625 15.9 Z" fill="#ffcc03"/>
          </g>
        </g>
        <g id="Graphic_3">
          <path d="M 428.0625 38.9 C 430.2625 38.9 432.4625 39.1 434.5625 39.5 C 436.0625 39.8 437.5625 40.3 438.9625 40.9 L 437.4625 46 C 436.2625 45.4 435.0625 44.9 433.7625 44.5 C 431.9625 43.9 430.0625 43.6 428.2625 43.7 C 426.2625 43.6 424.3625 44 422.5625 44.8 C 421.0625 45.6 420.2625 47.1 420.4625 48.8 C 420.4625 49.6 420.6625 50.4 421.1625 51 C 421.6625 51.6 422.2625 52.2 422.9625 52.6 C 423.7625 53.1 424.6625 53.5 425.5625 53.8 L 428.6625 54.7 L 432.8625 56.1 C 434.1625 56.6 435.4625 57.3 436.6625 58.1 C 439.1625 59.9 440.5625 62.8 440.3625 65.8 C 440.4625 67.6 440.0625 69.4 439.1625 70.9 C 438.3625 72.3 437.2625 73.4 435.9625 74.3 C 434.5625 75.2 433.0625 75.9 431.4625 76.3 C 429.6625 76.5 427.8625 76.6 426.0625 76.4 C 424.4625 76.5 422.9625 76.5 421.3625 76.4 C 420.1625 76.2 419.0625 76 417.8625 75.7 C 416.9625 75.5 416.0625 75.2 415.1625 74.8 C 414.4625 74.5 413.7625 74.1 413.0625 73.7 L 415.0625 68.6 C 415.5625 69 415.9625 69.3 416.5625 69.6 C 417.3625 70 418.0625 70.4 418.9625 70.7 C 419.9625 71.1 421.0625 71.4 422.1625 71.6 C 423.4625 71.8 424.7625 72 426.0625 72 C 428.1625 72.1 430.2625 71.6 432.0625 70.5 C 433.3625 69.5 434.1625 67.9 434.0625 66.2 C 434.1625 64.8 433.4625 63.4 432.3625 62.5 C 430.5625 61.3 428.6625 60.4 426.5625 59.9 L 422.0625 58.4 C 420.6625 57.9 419.4625 57.3 418.2625 56.4 C 417.1625 55.6 416.2625 54.6 415.5625 53.4 C 414.8625 52 414.4625 50.4 414.5625 48.9 C 414.3625 45.9 415.7625 43.1 418.1625 41.3 C 421.1625 39.6 424.5625 38.7 428.0625 38.9 Z M 382.0625 39.4 L 382.0625 63.8 C 382.0625 65 382.1625 66.2 382.5625 67.4 C 382.8625 68.3 383.3625 69.1 384.0625 69.7 C 384.6625 70.3 385.4625 70.7 386.2625 70.9 C 387.1625 71.1 388.0625 71.3 388.9625 71.3 C 391.3625 71.4 393.6625 70.7 395.5625 69.3 C 397.3625 67.9 398.8625 66.2 399.8625 64.2 L 399.8625 39.4 L 406.0625 39.4 L 406.0625 75.4 L 400.5625 75.4 L 399.9625 68.9 C 398.9625 71.1 397.2625 72.9 395.1625 74.3 C 392.7625 75.8 389.9625 76.5 387.0625 76.4 C 383.9625 76.5 381.0625 75.4 378.7625 73.3 C 376.4625 70.7 375.3625 67.3 375.6625 63.8 L 375.6625 39.4 Z M 165.5625 25.8 C 167.7625 26.4 169.8625 27.2 171.8625 28.2 L 169.9625 34 C 168.1625 32.8 166.2625 31.9 164.2625 31.1 C 161.8625 30.3 159.3625 29.9 156.7625 30 C 152.0625 30 147.5625 31.9 144.4625 35.5 C 142.7625 37.4 141.5625 39.6 140.6625 42 C 139.6625 44.9 139.1625 47.9 139.2625 50.9 C 139.2625 53.8 139.6625 56.8 140.5625 59.6 C 141.3625 62 142.5625 64.1 144.1625 66 C 145.6625 67.7 147.5625 69.1 149.6625 70 C 151.9625 70.9 154.3625 71.4 156.8625 71.4 C 159.1625 71.4 161.3625 71.1 163.4625 70.4 C 165.4625 69.7 167.4625 68.8 169.3625 67.7 L 171.1625 72.1 C 169.3625 73.4 167.4625 74.4 165.2625 75.1 C 162.4625 76.1 159.4625 76.5 156.4625 76.5 C 153.0625 76.5 149.7625 76 146.6625 74.8 C 143.7625 73.6 141.0625 71.9 138.9625 69.7 C 136.6625 67.4 134.8625 64.7 133.7625 61.7 C 131.2625 54.7 131.2625 47 133.7625 40 C 136.0625 33.9 141.0625 29.1 147.2625 26.8 C 150.4625 25.6 153.8625 25 157.3625 25.1 C 160.1625 24.8 162.8625 25.1 165.5625 25.8 Z M 229.0625 38.7 C 231.0625 38.7 233.0625 38.9 234.9625 39.4 C 236.5625 39.7 237.9625 40.4 239.3625 41.2 L 237.3625 46.6 C 236.0625 45.6 234.6625 44.8 233.2625 44.2 C 231.7625 43.6 230.0625 43.3 228.4625 43.4 C 226.8625 43.4 225.3625 43.7 223.8625 44.3 C 222.3625 44.9 221.0625 45.8 220.0625 47 C 218.9625 48.3 218.0625 49.8 217.4625 51.4 C 216.7625 53.4 216.4625 55.5 216.4625 57.6 C 216.1625 61.3 217.4625 65 219.8625 67.9 C 222.3625 70.3 225.7625 71.5 229.2625 71.3 C 232.2625 71.2 235.2625 70.3 237.7625 68.6 L 239.1625 73.1 C 237.7625 74.1 236.1625 74.9 234.5625 75.4 C 232.5625 76.1 230.5625 76.4 228.4625 76.5 C 226.0625 76.5 223.5625 76.1 221.2625 75.2 C 219.0625 74.4 217.0625 73.1 215.4625 71.5 C 213.7625 69.8 212.4625 67.8 211.5625 65.6 C 209.6625 60.5 209.6625 54.9 211.5625 49.8 C 212.4625 47.6 213.7625 45.6 215.5625 43.9 C 217.2625 42.2 219.3625 40.9 221.6625 40.1 C 224.0625 39.1 226.5625 38.7 229.0625 38.7 Z M 349.9625 38.7 C 352.2625 38.7 354.6625 39.1 356.7625 40 C 358.8625 40.8 360.8625 42.1 362.4625 43.7 C 364.1625 45.4 365.4625 47.4 366.3625 49.6 C 368.2625 54.8 368.2625 60.5 366.3625 65.7 C 365.5625 67.9 364.2625 69.9 362.6625 71.6 C 361.0625 73.2 359.0625 74.4 356.9625 75.3 C 354.6625 76.2 352.2625 76.6 349.8625 76.6 C 347.5625 76.6 345.2625 76.2 343.0625 75.3 C 340.9625 74.5 339.0625 73.2 337.4625 71.6 C 335.7625 69.9 334.4625 67.9 333.6625 65.7 C 331.7625 60.5 331.7625 54.8 333.6625 49.6 C 334.5625 47.4 335.8625 45.4 337.4625 43.7 C 339.0625 42.1 340.9625 40.9 343.0625 40 C 345.3625 39.1 347.6625 38.7 349.9625 38.7 Z M 462.7625 38.5 C 465.0625 38.5 467.3625 38.9 469.4625 39.8 C 471.3625 40.6 473.0625 41.9 474.3625 43.6 C 475.7625 45.4 476.6625 47.5 476.9625 49.8 C 477.4625 52.6 477.4625 55.5 476.9625 58.3 L 452.0625 58.3 C 452.3625 66.9 456.4625 71.2 464.4625 71.2 C 466.3625 71.2 468.2625 70.9 470.0625 70.3 C 471.6625 69.7 473.2625 69 474.6625 68 L 476.4625 72.5 C 474.9625 73.7 473.1625 74.7 471.2625 75.2 C 468.9625 76 466.5625 76.3 464.0625 76.3 C 459.0625 76.6 454.1625 74.7 450.5625 71.2 C 447.2625 67.3 445.5625 62.3 445.8625 57.3 C 445.8625 54.6 446.2625 52 447.1625 49.4 C 447.9625 47.2 449.1625 45.2 450.7625 43.5 C 452.2625 41.9 453.9625 40.6 455.9625 39.8 C 458.1625 38.9 460.4625 38.5 462.7625 38.5 Z M 185.5625 23.4 L 185.5625 75.6 L 179.3625 75.6 L 179.3625 23.4 Z M 253.0625 23.4 L 253.0625 75.6 L 246.7625 75.6 L 246.7625 23.4 Z M 275.5625 39.4 L 260.5625 55.6 L 276.5625 75.7 L 269.2625 75.7 L 253.8625 56.4 L 269.0625 39.5 L 275.5625 39.5 Z M 290.5625 25.6 L 290.5625 48.4 L 316.6625 48.4 L 316.6625 25.6 L 323.3625 25.6 L 323.3625 75.7 L 316.6625 75.7 L 316.6625 53.5 L 290.5625 53.5 L 290.5625 75.6 L 283.8625 75.6 L 283.8625 25.6 Z M 202.0625 39.4 L 202.0625 75.4 L 195.8625 75.4 L 195.8625 39.4 Z M 349.9625 43.4 C 348.5625 43.4 347.1625 43.7 345.7625 44.2 C 344.3625 44.7 343.1625 45.6 342.1625 46.7 C 341.0625 48 340.1625 49.5 339.5625 51.1 C 338.8625 53.2 338.5625 55.4 338.6625 57.6 C 338.5625 59.8 338.9625 62 339.5625 64.1 C 340.0625 65.7 340.9625 67.2 342.1625 68.5 C 343.1625 69.6 344.3625 70.4 345.7625 71 C 347.0625 71.5 348.5625 71.8 349.9625 71.8 C 351.4625 71.8 352.8625 71.5 354.2625 71 C 355.6625 70.5 356.9625 69.6 357.9625 68.5 C 359.1625 67.2 360.0625 65.7 360.5625 64.1 C 361.2625 62 361.5625 59.8 361.5625 57.6 C 361.6625 55.4 361.2625 53.2 360.5625 51.1 C 359.9625 49.5 359.0625 48 357.9625 46.7 C 356.9625 45.6 355.6625 44.7 354.2625 44.2 C 352.8625 43.6 351.4625 43.4 349.9625 43.4 Z M 462.9625 43 C 460.4625 43 457.9625 44 456.2625 45.8 C 454.1625 48.1 452.9625 51 452.6625 54.1 L 471.3625 54.1 C 471.8625 51.2 471.1625 48.1 469.4625 45.7 C 467.7625 43.9 465.3625 42.9 462.9625 43 Z M 201.7625 27.3 C 202.4625 28.1 202.8625 29.1 202.8625 30.1 C 202.8625 31.1 202.4625 32.1 201.7625 32.8 C 200.9625 33.5 199.9625 33.9 198.9625 33.9 C 197.8625 34 196.8625 33.6 196.0625 32.9 C 195.2625 32.2 194.8625 31.2 194.9625 30.1 C 194.9625 29.1 195.2625 28 195.9625 27.3 C 197.6625 25.8 200.1625 25.8 201.7625 27.3 Z" fill="#808080"/>
        </g>
      </g>
    </g>
  </g>
</svg>
