<?xml version="1.0" encoding="UTF-8" standalone="no"?>
<!DOCTYPE svg PUBLIC "-//W3C//DTD SVG 1.1//EN" "http://www.w3.org/Graphics/SVG/1.1/DTD/svg11.dtd">
<svg xmlns:xl="http://www.w3.org/1999/xlink" version="1.1" xmlns="http://www.w3.org/2000/svg" xmlns:dc="http://purl.org/dc/elements/1.1/" viewBox="0 0 500 240" width="500" height="240">
  <defs/>
  <g id="Canvas_1" fill="none" stroke-dasharray="none" fill-opacity="1" stroke-opacity="1" stroke="none">
    <title>Canvas 1</title>
    <rect  x="0" y="0" width="500" height="240"/>
    <g id="Canvas_1_Layer_1">
      <title>Layer 1</title>
      <g id="Group_2">
        <g id="Graphic_6">
          <path d="M 252 97.50147 L 252 191.8313 L 275.15862 191.8313 L 275.15862 148.47822 L 279.9362 148.5676 L 279.9362 191.83166 L 303.3565 191.83166 L 303.3565 97.50182 L 279.9362 97.50182 L 279.9362 132.50047 L 275.15862 132.50047 L 275.15862 97.50182 Z" fill="black"/>
          <path d="M 252 97.50147 L 252 191.8313 L 275.15862 191.8313 L 275.15862 148.47822 L 279.9362 148.5676 L 279.9362 191.83166 L 303.3565 191.83166 L 303.3565 97.50182 L 279.9362 97.50182 L 279.9362 132.50047 L 275.15862 132.50047 L 275.15862 97.50182 Z" stroke="#fdee21" stroke-linecap="butt" stroke-linejoin="round" stroke-width="5.1286"/>
        </g>
        <g id="Graphic_5">
          <rect x="309.62215" y="97.50147" width="22.556986" height="94.32983" fill="black"/>
          <rect x="309.62215" y="97.50147" width="22.556986" height="94.32983" stroke="#fdee21" stroke-linecap="butt" stroke-linejoin="round" stroke-width="5.1286"/>
        </g>
        <g id="Graphic_4">
          <path d="M 335.8721 97.50147 L 353.69084 191.8313 L 380.5855 191.8313 L 398.4042 97.50147 L 374.46052 97.50147 L 368.5581 137.86348 C 368.0663 139.4094 366.40495 139.4094 366.1081 137.86348 L 360.2091 97.5 Z" fill="black"/>
          <path d="M 335.8721 97.50147 L 353.69084 191.8313 L 380.5855 191.8313 L 398.4042 97.50147 L 374.46052 97.50147 L 368.5581 137.86348 C 368.0663 139.4094 366.40495 139.4094 366.1081 137.86348 L 360.2091 97.5 Z" stroke="#fdee21" stroke-linecap="butt" stroke-linejoin="round" stroke-width="5.1286"/>
        </g>
        <g id="Graphic_3">
          <path d="M 447.96736 97.50147 L 403.19285 97.50147 L 403.19285 191.8313 L 447.96736 191.8313 L 447.96736 167.0962 L 423.07133 166.88412 L 423.0714 156.28015 L 434.93197 156.28015 L 434.93197 131.72357 L 423.0714 131.72357 L 423.07133 122.2358 L 447.96736 122.2358 Z" fill="black"/>
          <path d="M 447.96736 97.50147 L 403.19285 97.50147 L 403.19285 191.8313 L 447.96736 191.8313 L 447.96736 167.0962 L 423.07133 166.88412 L 423.0714 156.28015 L 434.93197 156.28015 L 434.93197 131.72357 L 423.0714 131.72357 L 423.07133 122.2358 L 447.96736 122.2358 Z" stroke="#fdee21" stroke-linecap="butt" stroke-linejoin="round" stroke-width="5.1286"/>
        </g>
      </g>
      <g id="Group_7">
        <g id="Graphic_8">
          <path d="M 138.67788 33.038716 C 136.55345 27.220648 63.47697 -1.1891028 62.542885 1.9300319 C 49.12399 5.428037 43.66275 20.89448 34.432097 30.6911 L 13.933706 29.517014 C 4.9039214 41.128903 .1657024 52.99291 3.392023 65.32369 C 14.965335 81.00368 28.40021 94.34652 36.773928 114.04226 C 37.43578 123.32582 76.95345 115.01575 85.42361 113.17805 C 73.85305 121.46056 63.77676 134.29861 68.1069 171.2733 C 72.05983 188.6363 74.76372 208.02234 109.82395 227.6602 C 114.43928 230.24523 123.98874 233.22808 129.89387 235.4024 C 135.5411 237.9928 142.14474 239.05717 160.77386 233.36 C 171.55416 228.71352 183.19333 225.9143 193.74245 221.27913 L 181.06284 221.87416 C 163.60202 222.25405 150.12223 223.55654 145.9643 218.67787 L 129.8947 190.9363 L 139.26313 172.73952 C 152.22903 174.06937 156.53272 184.58397 167.96082 188.58814 L 181.43069 178.6094 C 220.55488 201.70421 236.12025 163.9726 240.58127 134.58606 C 240.10525 122.62974 214.69356 138.33646 216.23384 132.74574 C 216.83072 119.89336 206.35456 103.07814 199.5856 89.97612 L 207.41925 59.663754 C 210.97374 56.49778 190.96389 22.77971 174.62425 18.574941 C 160.2878 14.88516 138.67705 33.03869 138.67705 33.03869 Z" fill="#fdee21"/>
        </g>
      </g>
      <g id="Group_9">
        <g id="Group_35">
          <g id="Graphic_41">
            <path d="M 202.95079 97.45987 C 203.0911 100.71567 203.07538 104.67548 203.39003 107.14517 C 203.33585 109.02938 201.9234 109.09843 200.7546 109.49312 L 208.3681 112.28132 C 209.8796 114.82493 211.09435 117.36865 212.3213 119.91218 C 213.74454 126.16919 212.6824 126.34801 211.73567 126.80927 C 208.9728 126.83741 206.21794 126.84258 203.6463 126.29566 C 204.79835 126.90367 205.05174 127.34691 205.17364 128.12581 C 205.39836 129.56185 204.47357 131.52297 202.95087 133.41291 C 205.20254 134.66222 209.3079 135.88447 212.35787 137.04483 L 215.8352 129.30403 C 214.26046 117.93214 209.48535 107.45107 202.95087 97.45965 Z" fill="#c8c037"/>
          </g>
          <g id="Graphic_40">
            <path d="M 217.16048 135.60314 C 221.3829 137.36308 227.2164 136.8471 235.30437 132.67881 C 236.5072 131.82345 237.6275 132.3348 235.47503 133.74177 C 224.86694 143.26092 219.78926 138.499 217.16059 135.60311 Z" fill="#c8c037"/>
          </g>
          <g id="Graphic_39">
            <path d="M 236.115 131.43143 C 237.36936 133.8332 236.6094 135.78637 236.18822 137.81491 C 234.87846 148.13368 231.663 156.29165 225.35363 164.81637 C 204.83182 197.80976 184.11327 177.16533 167.59454 163.72922 L 160.76165 180.85057 C 160.39898 182.35128 158.89063 183.52002 169.56163 188.218 L 180.4323 180.53948 C 221.89035 212.08352 251.26863 136.38664 236.11382 131.4324 Z" fill="#c8c037"/>
          </g>
          <g id="Graphic_38">
            <path d="M 172.59433 160.91442 C 169.7973 161.11403 161.47318 163.94455 161.10258 165.58375 L 164.93316 159.87673 Z" fill="#c8c037"/>
          </g>
          <g id="Graphic_37">
            <path d="M 167.15513 125.92886 C 167.66759 125.92886 170.12768 126.58936 169.86377 126.44247 C 169.48633 126.23235 169.82169 129.89198 170.59583 131.79873 L 167.59435 138.32907 C 173.34353 131.69871 182.43449 132.13985 190.87378 131.28512 L 186.84756 128.79045 C 187.547 126.4576 186.7234 124.61185 186.33511 122.62712 Z" fill="#c8c037"/>
          </g>
          <g id="Graphic_36">
            <path d="M 181.28217 106.26619 C 175.11361 108.15729 169.20902 111.24661 165.2448 117.83234 C 168.26915 106.97736 168.88554 107.38957 169.86206 106.85309 C 174.0919 104.96147 177.55574 106.14043 181.28217 106.2661 Z" fill="#c8c037"/>
          </g>
        </g>
        <g id="Group_29">
          <g id="Graphic_34">
            <path d="M 148.34113 233.49492 C 140.88221 241.72536 124.23948 232.8722 110.4183 228.35882 C 75.29772 206.02614 68.43673 185.0023 67.96004 164.37798 C 66.154275 134.83438 75.22608 117.66811 86.70075 113.60387 C 79.10654 128.24314 75.5661 154.52185 79.08725 174.06328 C 81.92946 184.93479 81.98843 203.27073 100.17861 213.08553 C 109.08605 218.10012 106.6734 222.00427 112.69675 226.70088 C 119.29736 231.84773 137.70136 236.7408 148.34086 233.4952 Z" fill="#fcf6a0"/>
          </g>
          <g id="Graphic_33">
            <path d="M 159.48405 96.96114 C 146.85568 79.05339 129.09453 72.33127 109.06538 71.59668 C 113.07948 70.28818 117.09357 69.60682 121.10767 67.671306 C 122.09066 66.638464 121.7693 64.8211 121.40049 62.97552 C 102.12082 57.94137 89.95289 51.71963 74.55009 45.952264 L 116.13213 55.931015 C 144.2126 56.998024 141.80106 63.93055 159.4859 96.96196 Z" fill="#fcf6a0"/>
          </g>
          <g id="Graphic_32">
            <path d="M 173.00489 88.32565 C 163.67228 75.0032 154.62073 58.8344 142.33432 48.551176 C 112.67498 35.164246 83.33528 25.222142 48.9504 16.174999 L 59.92441 2.062843 C 96.41167 10.391649 130.68358 24.328835 161.3817 47.30407 C 166.5754 60.4364 170.03896 73.58609 173.00213 88.324 Z" fill="#fcf6a0"/>
          </g>
          <g id="Graphic_31">
            <path d="M 191.8189 64.78335 C 191.8189 64.78335 186.5869 53.04554 184.03952 48.5633 C 178.13024 42.01477 175.14227 29.81157 163.03964 24.06156 C 166.86747 25.095255 169.48705 23.863638 177.30141 30.947904 L 189.6096 54.295674 Z" fill="#fcf6a0"/>
          </g>
          <g id="Graphic_30">
            <path d="M 198.3272 85.11835 C 199.53385 74.94864 201.8252 58.63601 199.19562 52.191084 C 191.87998 42.37518 184.51199 32.229174 177.14124 22.810048 C 175.9206 21.67399 175.04161 20.132167 174.07997 18.929316 C 184.4431 21.614196 195.25812 28.819618 209.84256 57.265465 Z" fill="#fcf6a0"/>
          </g>
        </g>
        <g id="Group_19">
          <g id="Graphic_28">
            <path d="M 154.7585 86.31971 C 150.63088 83.07107 146.9524 71.58097 140.6976 69.19202 C 134.90819 68.7077 132.78541 66.88623 125.17246 68.43742 C 127.93367 67.05384 130.54057 65.28357 133.47564 64.33598 C 135.46373 63.86668 137.32855 64.38663 139.22538 64.64828 C 139.69377 64.42686 140.00072 64.151505 139.88621 63.73533 C 132.22284 58.99959 116.50207 58.93208 105.88985 56.22874 C 118.2063 56.641004 131.83377 55.958294 141.09033 58.926624 C 148.53354 65.53219 150.95142 77.97181 154.75859 86.31963 Z" fill="black"/>
          </g>
          <g id="Graphic_27">
            <path d="M 177.32814 30.910154 C 179.0368 31.065384 188.23244 45.611143 188.66449 48.031503 C 189.42914 53.32246 191.3151 59.253775 191.8222 64.78969 C 190.3076 59.48027 188.65732 54.17113 186.59407 48.86171 C 185.99068 47.39963 184.46575 44.094285 180.22712 39.419165 C 178.25347 36.12396 177.82737 33.533865 177.32842 30.91043 Z" fill="black"/>
          </g>
          <g id="Graphic_26">
            <path d="M 208.48918 110.1348 L 204.555 110.1348 L 208.90332 111.2762 Z" fill="black"/>
          </g>
          <g id="Graphic_25">
            <path d="M 181.64588 106.20557 C 177.68965 105.71921 173.6301 105.65473 169.67414 106.52423 C 168.06161 108.69021 167.95051 110.89323 167.24579 112.9292 C 172.0551 107.62888 173.9635 107.30484 181.64588 106.20571 Z" fill="black"/>
          </g>
          <g id="Graphic_24">
            <path d="M 235.6025 133.56137 C 233.40093 135.31853 233.18093 136.9723 226.67136 138.95428 C 221.92433 140.07684 219.24248 138.17411 217.0081 135.61581 C 220.39562 136.58619 220.93706 139.1455 230.02058 136.27618 Z" fill="black"/>
          </g>
          <g id="Graphic_23">
            <path d="M 215.8737 134.66078 C 214.28923 139.01765 212.58125 143.42054 210.85912 147.50104 C 206.75822 152.31035 208.50593 149.56978 202.3672 157.03947 C 204.3314 154.00906 206.88608 151.09714 208.22356 147.94108 C 209.1629 145.86289 210.33233 143.65833 210.8501 141.81192 C 209.22237 140.99908 205.89063 140.93476 205.43874 141.22648 C 199.9808 144.44564 198.99602 147.85244 195.77851 151.16969 C 198.11062 147.4416 200.1026 143.3724 202.8062 140.01685 C 203.1143 139.58133 205.11597 139.4971 206.34665 139.24013 C 204.43428 138.91201 200.89478 138.22481 200.60986 138.25589 C 197.04931 139.11153 195.05411 142.21295 192.41084 144.27262 C 194.33795 141.4902 196.11302 138.59315 198.5601 136.20145 C 198.80217 135.92018 205.41642 136.49964 208.84444 137.86754 L 208.91244 139.23123 L 210.85867 140.01685 L 212.3228 136.34829 Z" fill="black"/>
          </g>
          <g id="Graphic_22">
            <path d="M 172.6825 160.9282 C 171.80402 160.628 164.04427 159.63006 164.04427 159.8643 C 161.06483 161.98479 160.61294 164.01369 160.67687 165.77082 C 165.6336 160.89455 165.44898 160.88078 172.68278 160.92817 Z" fill="black"/>
          </g>
          <g id="Graphic_21">
            <path d="M 166.78866 125.85722 C 166.78866 125.85722 172.38823 125.0409 172.27911 125.56371 C 171.87346 127.5064 172.96455 132.24092 173.08438 131.58045 L 169.9366 134.1485 C 176.5292 130.834 183.46928 131.50007 190.50745 130.99354 C 190.50745 130.99354 184.58137 129.35735 184.9437 129.30596 C 186.26568 129.1185 184.59179 123.12555 184.13844 122.99577 C 185.26582 122.61423 186.36683 122.32662 187.50583 122.04193 C 179.03127 119.82428 174.13075 121.13101 166.78839 125.85736 Z" fill="black"/>
          </g>
          <g id="Graphic_20">
            <path d="M 215.25098 130.03719 L 214.00647 130.66085 C 213.8299 127.01516 209.9144 127.28271 206.61257 127.24909 L 203.90394 126.58873 C 204.7275 127.35099 207.27354 127.29122 206.24654 128.93668 C 205.38225 129.39862 204.98462 131.38073 204.4896 133.04556 L 203.02549 133.11893 C 205.61192 134.12973 208.01142 135.01565 210.8586 136.20059 L 212.54232 136.4574 L 216.56854 134.29288 Z" fill="black"/>
          </g>
        </g>
        <g id="Group_16">
          <g id="Graphic_18">
            <path d="M 178.13548 127.57936 C 177.50526 126.33258 174.33465 126.5096 173.65104 127.31626 C 173.0956 127.97172 173.61655 132.17737 174.32873 131.46812 C 175.35838 130.563 176.70324 130.18443 178.31858 130.25745 C 178.52221 129.48042 178.45013 128.64145 178.13556 127.57935 Z" fill="white"/>
          </g>
          <g id="Graphic_17">
            <path d="M 208.54153 133.84518 C 208.83956 133.62719 209.4698 131.51867 209.26624 130.88779 C 208.8497 129.39898 205.90132 129.71235 205.90132 129.71235 C 205.18193 130.13567 204.55146 132.45664 204.81436 133.22248 C 204.93985 133.87072 208.06823 134.07735 208.54134 133.84507 Z" fill="white"/>
          </g>
        </g>
        <g id="Group_10">
          <g id="Graphic_15">
            <path d="M 82.46181 206.59927 L 84.32436 206.78144 C 95.3656 212.20273 113.54559 220.24083 139.86535 215.92144 L 143.99517 222.41982 C 132.40395 228.05245 119.93706 226.7563 108.25463 227.15143 Z" fill="black"/>
          </g>
          <g id="Graphic_14">
            <path d="M 66.60988 163.74148 L 72.14084 186.96085 C 86.94846 196.21713 112.24321 206.81915 133.32768 205.9636 L 128.66826 195.27257 C 84.65595 185.92619 80.93338 174.11095 66.61071 163.73955 Z" fill="black"/>
          </g>
          <g id="Graphic_13">
            <path d="M 80.3732 116.18019 C 83.07643 134.17363 86.68504 147.81516 102.33114 159.24188 C 111.9211 166.1387 121.44025 173.0063 133.01824 178.6742 C 133.01824 178.6742 132.00326 183.95661 131.15473 183.86238 C 96.69821 180.0351 71.472345 151.46416 68.416585 138.4145 C 71.37618 128.40433 75.62173 122.15173 80.37207 116.18019 Z" fill="black"/>
          </g>
          <g id="Graphic_12">
            <path d="M 96.93603 105.98514 C 101.52766 125.92776 112.47577 146.12608 123.35747 164.44962 C 127.34649 169.51105 128.39052 171.7446 134.53868 174.82626 C 142.84875 177.45746 148.72524 176.78588 154.75713 176.39012 C 153.10437 173.33106 151.63551 170.13367 149.73758 167.25866 C 136.23106 156.57728 142.47319 146.85203 146.06075 140.69477 C 138.55058 138.79711 128.59965 134.76373 127.22883 129.45872 C 125.02472 112.30045 126.14394 106.85739 128.34988 98.04418 C 118.1799 100.1885 107.87463 102.31343 96.93534 105.9853 Z" fill="black"/>
          </g>
          <g id="Graphic_11">
            <path d="M 59.62765 .058 C 56.28505 2.2416147 53.064793 5.3638354 49.600405 8.91254 C 43.857284 14.857357 40.039375 20.656413 34.193478 24.955693 C 33.0243 25.963846 29.7432 27.587422 25.618337 27.828218 C 23.675215 27.92521 22.409376 28.246766 18.838904 27.79846 C 15.69001 26.093406 12.698452 27.202187 9.778809 30.694405 C 6.5772876 35.298435 2.522688 44.04083 .836647 49.54423 C -2.6382123 63.57951 6.221012 75.14345 14.716796 84.05586 C 22.274636 91.43928 26.632056 96.0535 29.73521 102.82219 C 32.084755 107.2124 33.825354 113.2374 35.709785 117.46173 C 36.3893 118.801 36.24803 118.79403 38.07705 119.19765 C 42.02639 120.04047 47.504715 120.04709 52.38181 120.46627 C 54.49199 120.49573 57.38978 120.41719 60.13556 120.13099 C 63.91902 119.41656 68.36407 118.71655 72.08967 117.42798 C 75.7304 116.5315 78.97408 115.29 81.89813 114.1471 C 81.52103 115.42677 78.73546 116.65875 77.69116 118.28078 C 67.77992 132.46843 65.065 145.09322 66.79045 165.0127 C 67.76655 173.8416 69.79275 181.16083 72.850164 189.5351 C 74.24923 193.36733 77.22632 199.43642 80.07928 203.46788 C 88.56322 215.4556 107.5431 230.84958 133.96426 236.77538 C 138.5738 237.40544 143.80524 237.0694 148.72532 235.75913 C 161.76562 231.8062 188.34274 222.45734 188.34274 222.45734 C 188.34274 222.45734 164.75111 224.40895 153.94684 223.34068 C 151.44552 222.94954 148.68922 222.81684 146.9467 221.1123 C 146.6544 220.73499 145.59257 218.59612 146.27829 218.57691 C 147.2138 218.55074 149.89946 217.43617 154.04609 217.06637 C 145.1932 216.11324 145.3194 216.12456 144.67325 214.51193 C 143.66833 212.0087 142.13022 208.58722 140.54646 205.59346 C 144.43656 205.92166 153.04945 206.40507 155.9724 203.38844 C 155.9724 203.38844 150.8757 203.97688 146.3717 203.44862 C 144.85423 203.27063 142.2686 202.34794 141.49185 202.06272 C 139.46984 201.27522 137.8051 201.03065 137.41713 200.51718 C 136.71497 198.73012 136.23916 198.129 135.39174 195.73487 C 134.24385 192.56504 134.15279 189.029 133.93426 185.7925 C 136.88063 189.42414 140.63488 192.48127 145.60511 194.0425 C 145.66887 193.9081 152.0528 196.81775 156.68906 195.32156 L 157.65032 195.01147 C 157.65032 195.09725 154.57857 195.28059 153.45188 194.72286 C 144.02311 190.7151 142.6038 187.20718 141.08143 185.46493 L 137.00974 179.36636 C 138.24811 176.89728 138.94821 176.80346 140.58876 176.78062 C 145.55154 177.33187 147.71097 177.75601 150.73063 177.02747 C 152.7711 181.22673 153.32243 185.45106 157.96774 188.5071 C 173.44383 193.10093 176.80627 187.1429 180.55474 181.87839 C 191.68994 190.0504 209.8173 192.57024 222.4068 182.02023 C 238.41193 163.5005 243.47915 134.30463 242.05983 132.6376 C 240.06094 129.24651 237.43844 125.74933 235.18644 126.23263 C 227.1599 128.42374 224.2003 132.4957 216.24706 131.56685 C 217.1943 131.5133 218.7872 131.48767 218.79935 131.39737 C 219.4121 124.66285 218.75008 121.40429 218.45443 120.84494 C 216.04096 115.5223 212.87167 109.9208 210.66265 105.72292 C 210.09316 104.85202 208.42065 98.23783 205.61803 95.62486 C 204.41604 94.5986 201.47416 91.89237 201.47416 91.89237 L 201.22484 94.76875 C 201.22484 94.76875 202.37492 94.94243 202.81262 96.72436 C 204.47199 103.47982 212.92143 119.45243 213.54167 120.21789 C 216.53626 125.05227 213.846 131.07452 216.12275 134.45321 C 216.34148 134.88245 220.76756 134.4156 224.19806 134.62637 C 229.83923 133.41305 229.60116 130.92695 234.47412 130.55331 C 237.75665 130.30161 238.08593 136.46644 238.04267 136.94478 C 237.43096 143.75177 235.36027 151.66616 232.19126 158.8939 C 225.6025 171.58784 218.22376 182.98894 207.75895 184.57882 C 194.9942 186.80939 188.36108 181.22878 181.4414 177.67512 L 178.79432 179.93274 C 169.80146 188.88813 159.12365 188.09264 154.75631 176.39175 C 152.58226 171.85275 149.74917 169.07088 147.3233 165.1772 L 134.4588 174.44284 C 133.3879 176.63913 132.07117 180.10248 130.4717 183.97108 C 129.3597 186.66065 128.42721 191.27983 128.48794 195.1184 C 126.8389 197.92756 134.19965 209.3204 138.8508 216.25027 C 140.2233 218.29512 142.78526 221.8672 142.87095 222.08983 C 143.79336 224.4824 145.81346 226.59467 145.93608 226.8523 C 154.57074 238.11425 135.04363 235.52085 131.0108 234.84053 C 123.05425 233.57277 115.27157 230.24918 107.95621 225.80496 C 107.53171 225.54705 107.10872 225.28548 106.68742 225.02022 C 97.9938 219.5463 89.99481 212.54285 83.19361 205.61573 C 79.13819 201.02355 75.27674 191.61076 72.42461 184.93769 C 68.150124 168.89398 62.015734 141.08519 78.63312 120.01174 C 79.68646 118.80715 80.82307 116.80168 81.79083 116.4049 C 86.72799 113.0656 92.08921 110.78963 97.85437 109.52572 L 97.27237 105.78854 C 94.39323 106.4427 84.69857 109.98863 81.95748 111.4727 C 75.72389 113.27976 70.55335 115.16661 62.60892 117.15575 C 60.02643 117.47174 57.486046 117.47742 55.00975 117.14101 C 49.294735 116.36459 39.5535 117.05815 38.932154 116.48092 C 35.062443 111.08443 34.002984 101.41539 30.47219 96.24071 L 30.43053 96.18913 L 30.385805 96.14001 C 28.327507 93.37357 25.928363 91.11688 23.56559 88.76926 C 15.10425 80.36248 7.862181 72.23399 5.835019 63.62055 C 5.3252664 61.0773 4.0125846 58.44312 4.710257 50.918067 L 4.723122 50.881227 L 4.735375 50.844384 C 6.771079 43.814483 10.082817 38.084037 15.703597 32.340917 C 21.552801 32.435337 27.34249 32.56383 31.852283 33.425312 C 33.9213 33.77145 38.223915 34.33347 42.667855 35.988954 C 53.91603 40.17912 68.77821 47.06822 68.77821 47.06822 C 57.62207 40.94127 45.147457 32.983894 37.26999 31.378036 C 36.097944 31.212113 35.377594 30.677443 35.02953 29.744072 C 46.877557 22.78278 49.04497 14.586786 56.83785 7.236154 C 60.399226 5.6859 61.78796 4.8944883 64.81396 4.565684 C 92.80075 8.990888 110.4189 20.137936 124.35582 27.59162 C 130.01242 30.66777 135.15458 32.993896 140.06584 35.79533 C 144.3709 37.21137 157.36188 47.019256 161.1638 52.30718 C 165.02608 60.461845 167.84598 69.27037 170.41788 77.77029 C 172.26211 86.41541 173.8798 89.92224 173.8798 89.92224 C 173.8798 89.92224 172.31243 82.69119 172.57364 81.39201 C 174.19868 81.99925 178.04067 83.19885 179.6333 83.01247 C 179.6333 83.01247 172.51936 79.33509 171.5872 76.08507 C 168.59592 65.65664 165.59582 49.42226 164.78683 48.57579 C 162.507 45.707125 152.99997 38.43144 147.1684 35.06597 C 144.96241 33.79283 143.77014 33.003127 143.677 32.44339 C 145.53995 30.56144 147.84072 28.071918 149.9037 26.490032 C 151.88116 24.973697 153.68166 23.263712 156.43763 22.24035 C 168.55128 16.784619 175.47785 24.339317 177.12146 22.809508 C 177.12146 22.809508 174.51539 19.822358 175.67294 20.31409 C 176.85835 20.956186 180.7217 21.713402 181.14575 22.107703 C 185.56076 25.561346 197.1032 38.18392 204.0601 51.502516 C 205.73095 54.76493 206.41014 56.91306 205.6352 60.84146 C 204.8582 64.77344 204.25702 66.93562 203.40946 69.561534 C 202.6439 71.31701 198.31248 83.33532 198.3293 84.95 C 197.45676 91.54427 201.15745 99.79978 201.15745 99.79978 C 201.19245 97.55891 201.0196 96.36488 201.2227 94.76232 L 201.4718 91.89862 C 201.4718 91.89862 201.3139 91.13691 201.34256 90.83502 C 201.5305 88.85479 202.01626 87.18988 202.15885 86.05575 C 203.54968 77.44369 205.9674 71.24399 208.70986 63.686705 C 209.52486 61.779514 210.59118 60.71884 210.53679 59.26674 C 210.58163 56.689924 208.27602 53.231266 206.60976 49.8534 C 204.92896 46.439433 202.92026 42.63365 200.28332 38.62231 C 194.271 29.976905 189.14592 23.212626 179.76096 18.9792 C 177.13504 17.826856 166.80222 16.70022 163.23395 17.369677 C 158.90519 18.271498 155.18262 19.16081 152.21503 21.061388 C 147.5446 24.05212 143.87438 28.682602 139.57041 31.411018 C 130.04768 26.649102 125.45164 23.085243 124.5947 22.593952 C 118.93508 19.561337 112.14021 16.042116 104.83008 12.704752 C 101.32519 9.436274 79.56013 1.6188734 59.630186 .05958161 Z M 181.43923 177.66957 C 175.57018 173.0818 170.62972 168.35901 167.37281 163.4957 C 166.30972 169.2154 162.45053 173.289 159.46807 177.29566 C 158.87438 178.23537 158.44641 179.51664 161.36991 183.59979 C 162.1579 184.68763 165.009 184.87353 166.93365 184.77376 C 164.97551 183.29358 161.9965 181.7282 161.5165 180.37143 C 164.96105 182.71654 168.15045 183.39054 171.03317 183.01285 C 171.6918 182.93882 172.51007 182.24032 173.14252 181.16513 C 174.42757 178.4042 175.4338 177.73931 176.4504 176.99618 L 178.793 179.93097 Z" fill="black"/>
            <path d="M 59.62765 .058 C 56.28505 2.2416147 53.064793 5.3638354 49.600405 8.91254 C 43.857284 14.857357 40.039375 20.656413 34.193478 24.955693 C 33.0243 25.963846 29.7432 27.587422 25.618337 27.828218 C 23.675215 27.92521 22.409376 28.246766 18.838904 27.79846 C 15.69001 26.093406 12.698452 27.202187 9.778809 30.694405 C 6.5772876 35.298435 2.522688 44.04083 .836647 49.54423 C -2.6382123 63.57951 6.221012 75.14345 14.716796 84.05586 C 22.274636 91.43928 26.632056 96.0535 29.73521 102.82219 C 32.084755 107.2124 33.825354 113.2374 35.709785 117.46173 C 36.3893 118.801 36.24803 118.79403 38.07705 119.19765 C 42.02639 120.04047 47.504715 120.04709 52.38181 120.46627 C 54.49199 120.49573 57.38978 120.41719 60.13556 120.13099 C 63.91902 119.41656 68.36407 118.71655 72.08967 117.42798 C 75.7304 116.5315 78.97408 115.29 81.89813 114.1471 C 81.52103 115.42677 78.73546 116.65875 77.69116 118.28078 C 67.77992 132.46843 65.065 145.09322 66.79045 165.0127 C 67.76655 173.8416 69.79275 181.16083 72.850164 189.5351 C 74.24923 193.36733 77.22632 199.43642 80.07928 203.46788 C 88.56322 215.4556 107.5431 230.84958 133.96426 236.77538 C 138.5738 237.40544 143.80524 237.0694 148.72532 235.75913 C 161.76562 231.8062 188.34274 222.45734 188.34274 222.45734 C 188.34274 222.45734 164.75111 224.40895 153.94684 223.34068 C 151.44552 222.94954 148.68922 222.81684 146.9467 221.1123 C 146.6544 220.73499 145.59257 218.59612 146.27829 218.57691 C 147.2138 218.55074 149.89946 217.43617 154.04609 217.06637 C 145.1932 216.11324 145.3194 216.12456 144.67325 214.51193 C 143.66833 212.0087 142.13022 208.58722 140.54646 205.59346 C 144.43656 205.92166 153.04945 206.40507 155.9724 203.38844 C 155.9724 203.38844 150.8757 203.97688 146.3717 203.44862 C 144.85423 203.27063 142.2686 202.34794 141.49185 202.06272 C 139.46984 201.27522 137.8051 201.03065 137.41713 200.51718 C 136.71497 198.73012 136.23916 198.129 135.39174 195.73487 C 134.24385 192.56504 134.15279 189.029 133.93426 185.7925 C 136.88063 189.42414 140.63488 192.48127 145.60511 194.0425 C 145.66887 193.9081 152.0528 196.81775 156.68906 195.32156 L 157.65032 195.01147 C 157.65032 195.09725 154.57857 195.28059 153.45188 194.72286 C 144.02311 190.7151 142.6038 187.20718 141.08143 185.46493 L 137.00974 179.36636 C 138.24811 176.89728 138.94821 176.80346 140.58876 176.78062 C 145.55154 177.33187 147.71097 177.75601 150.73063 177.02747 C 152.7711 181.22673 153.32243 185.45106 157.96774 188.5071 C 173.44383 193.10093 176.80627 187.1429 180.55474 181.87839 C 191.68994 190.0504 209.8173 192.57024 222.4068 182.02023 C 238.41193 163.5005 243.47915 134.30463 242.05983 132.6376 C 240.06094 129.24651 237.43844 125.74933 235.18644 126.23263 C 227.1599 128.42374 224.2003 132.4957 216.24706 131.56685 C 217.1943 131.5133 218.7872 131.48767 218.79935 131.39737 C 219.4121 124.66285 218.75008 121.40429 218.45443 120.84494 C 216.04096 115.5223 212.87167 109.9208 210.66265 105.72292 C 210.09316 104.85202 208.42065 98.23783 205.61803 95.62486 C 204.41604 94.5986 201.47416 91.89237 201.47416 91.89237 L 201.22484 94.76875 C 201.22484 94.76875 202.37492 94.94243 202.81262 96.72436 C 204.47199 103.47982 212.92143 119.45243 213.54167 120.21789 C 216.53626 125.05227 213.846 131.07452 216.12275 134.45321 C 216.34148 134.88245 220.76756 134.4156 224.19806 134.62637 C 229.83923 133.41305 229.60116 130.92695 234.47412 130.55331 C 237.75665 130.30161 238.08593 136.46644 238.04267 136.94478 C 237.43096 143.75177 235.36027 151.66616 232.19126 158.8939 C 225.6025 171.58784 218.22376 182.98894 207.75895 184.57882 C 194.9942 186.80939 188.36108 181.22878 181.4414 177.67512 L 178.79432 179.93274 C 169.80146 188.88813 159.12365 188.09264 154.75631 176.39175 C 152.58226 171.85275 149.74917 169.07088 147.3233 165.1772 L 134.4588 174.44284 C 133.3879 176.63913 132.07117 180.10248 130.4717 183.97108 C 129.3597 186.66065 128.42721 191.27983 128.48794 195.1184 C 126.8389 197.92756 134.19965 209.3204 138.8508 216.25027 C 140.2233 218.29512 142.78526 221.8672 142.87095 222.08983 C 143.79336 224.4824 145.81346 226.59467 145.93608 226.8523 C 154.57074 238.11425 135.04363 235.52085 131.0108 234.84053 C 123.05425 233.57277 115.27157 230.24918 107.95621 225.80496 C 107.53171 225.54705 107.10872 225.28548 106.68742 225.02022 C 97.9938 219.5463 89.99481 212.54285 83.19361 205.61573 C 79.13819 201.02355 75.27674 191.61076 72.42461 184.93769 C 68.150124 168.89398 62.015734 141.08519 78.63312 120.01174 C 79.68646 118.80715 80.82307 116.80168 81.79083 116.4049 C 86.72799 113.0656 92.08921 110.78963 97.85437 109.52572 L 97.27237 105.78854 C 94.39323 106.4427 84.69857 109.98863 81.95748 111.4727 C 75.72389 113.27976 70.55335 115.16661 62.60892 117.15575 C 60.02643 117.47174 57.486046 117.47742 55.00975 117.14101 C 49.294735 116.36459 39.5535 117.05815 38.932154 116.48092 C 35.062443 111.08443 34.002984 101.41539 30.47219 96.24071 L 30.43053 96.18913 L 30.385805 96.14001 C 28.327507 93.37357 25.928363 91.11688 23.56559 88.76926 C 15.10425 80.36248 7.862181 72.23399 5.835019 63.62055 C 5.3252664 61.0773 4.0125846 58.44312 4.710257 50.918067 L 4.723122 50.881227 L 4.735375 50.844384 C 6.771079 43.814483 10.082817 38.084037 15.703597 32.340917 C 21.552801 32.435337 27.34249 32.56383 31.852283 33.425312 C 33.9213 33.77145 38.223915 34.33347 42.667855 35.988954 C 53.91603 40.17912 68.77821 47.06822 68.77821 47.06822 C 57.62207 40.94127 45.147457 32.983894 37.26999 31.378036 C 36.097944 31.212113 35.377594 30.677443 35.02953 29.744072 C 46.877557 22.78278 49.04497 14.586786 56.83785 7.236154 C 60.399226 5.6859 61.78796 4.8944883 64.81396 4.565684 C 92.80075 8.990888 110.4189 20.137936 124.35582 27.59162 C 130.01242 30.66777 135.15458 32.993896 140.06584 35.79533 C 144.3709 37.21137 157.36188 47.019256 161.1638 52.30718 C 165.02608 60.461845 167.84598 69.27037 170.41788 77.77029 C 172.26211 86.41541 173.8798 89.92224 173.8798 89.92224 C 173.8798 89.92224 172.31243 82.69119 172.57364 81.39201 C 174.19868 81.99925 178.04067 83.19885 179.6333 83.01247 C 179.6333 83.01247 172.51936 79.33509 171.5872 76.08507 C 168.59592 65.65664 165.59582 49.42226 164.78683 48.57579 C 162.507 45.707125 152.99997 38.43144 147.1684 35.06597 C 144.96241 33.79283 143.77014 33.003127 143.677 32.44339 C 145.53995 30.56144 147.84072 28.071918 149.9037 26.490032 C 151.88116 24.973697 153.68166 23.263712 156.43763 22.24035 C 168.55128 16.784619 175.47785 24.339317 177.12146 22.809508 C 177.12146 22.809508 174.51539 19.822358 175.67294 20.31409 C 176.85835 20.956186 180.7217 21.713402 181.14575 22.107703 C 185.56076 25.561346 197.1032 38.18392 204.0601 51.502516 C 205.73095 54.76493 206.41014 56.91306 205.6352 60.84146 C 204.8582 64.77344 204.25702 66.93562 203.40946 69.561534 C 202.6439 71.31701 198.31248 83.33532 198.3293 84.95 C 197.45676 91.54427 201.15745 99.79978 201.15745 99.79978 C 201.19245 97.55891 201.0196 96.36488 201.2227 94.76232 L 201.4718 91.89862 C 201.4718 91.89862 201.3139 91.13691 201.34256 90.83502 C 201.5305 88.85479 202.01626 87.18988 202.15885 86.05575 C 203.54968 77.44369 205.9674 71.24399 208.70986 63.686705 C 209.52486 61.779514 210.59118 60.71884 210.53679 59.26674 C 210.58163 56.689924 208.27602 53.231266 206.60976 49.8534 C 204.92896 46.439433 202.92026 42.63365 200.28332 38.62231 C 194.271 29.976905 189.14592 23.212626 179.76096 18.9792 C 177.13504 17.826856 166.80222 16.70022 163.23395 17.369677 C 158.90519 18.271498 155.18262 19.16081 152.21503 21.061388 C 147.5446 24.05212 143.87438 28.682602 139.57041 31.411018 C 130.04768 26.649102 125.45164 23.085243 124.5947 22.593952 C 118.93508 19.561337 112.14021 16.042116 104.83008 12.704752 C 101.32519 9.436274 79.56013 1.6188734 59.630186 .05958161 Z M 181.43923 177.66957 C 175.57018 173.0818 170.62972 168.35901 167.37281 163.4957 C 166.30972 169.2154 162.45053 173.289 159.46807 177.29566 C 158.87438 178.23537 158.44641 179.51664 161.36991 183.59979 C 162.1579 184.68763 165.009 184.87353 166.93365 184.77376 C 164.97551 183.29358 161.9965 181.7282 161.5165 180.37143 C 164.96105 182.71654 168.15045 183.39054 171.03317 183.01285 C 171.6918 182.93882 172.51007 182.24032 173.14252 181.16513 C 174.42757 178.4042 175.4338 177.73931 176.4504 176.99618 L 178.793 179.93097 Z" stroke="black" stroke-linecap="butt" stroke-linejoin="round" stroke-width=".11397"/>
          </g>
        </g>
      </g>
    </g>
  </g>
</svg>
