<?xml version="1.0" encoding="UTF-8" standalone="no"?>
<!-- Created with Inkscape (http://www.inkscape.org/) -->

<svg
   width="80mm"
   height="25mm"
   viewBox="0 0 80 25"
   version="1.1"
   id="svg1"
   xml:space="preserve"
   inkscape:export-filename="位图.svg"
   inkscape:export-xdpi="96"
   inkscape:export-ydpi="96"
   inkscape:version="1.4-beta2 (9aaf4f34, 2024-07-30)"
   sodipodi:docname="绘图.svg"
   xmlns:inkscape="http://www.inkscape.org/namespaces/inkscape"
   xmlns:sodipodi="http://sodipodi.sourceforge.net/DTD/sodipodi-0.dtd"
   xmlns="http://www.w3.org/2000/svg"
   xmlns:svg="http://www.w3.org/2000/svg"><sodipodi:namedview
     id="namedview1"
     pagecolor="#ffffff"
     bordercolor="#000000"
     borderopacity="0.25"
     inkscape:showpageshadow="2"
     inkscape:pageopacity="0.0"
     inkscape:pagecheckerboard="0"
     inkscape:deskcolor="#d1d1d1"
     inkscape:document-units="mm"
     inkscape:zoom="0.89887065"
     inkscape:cx="438.88406"
     inkscape:cy="567.93489"
     inkscape:window-width="1456"
     inkscape:window-height="1188"
     inkscape:window-x="461"
     inkscape:window-y="45"
     inkscape:window-maximized="0"
     inkscape:current-layer="layer1" /><defs
     id="defs1" /><g
     inkscape:label="图层 1"
     inkscape:groupmode="layer"
     id="layer1"><g
       style="fill:none"
       id="g1"
       transform="matrix(0.3517984,0,0,0.34248903,2.2318092,3.5171191)"><path
         d="M 16.17,27.33 C 12.17,24.06 7.81,20.45 5.48,18.52 L 3.85,17.18 C 2.72,16.25 1.85,14.6 3.75,13.47 4.58,13 18.78,4.83 24,1.8 c 0.9101,-0.53255 1.9455,-0.813245 3,-0.813245 1.0545,0 2.0899,0.280695 3,0.813245 l 10,5.79 c 0.1808,0.10315 0.3312,0.2523 0.4357,0.43232 0.1046,0.18002 0.1597,0.3845 0.1597,0.59268 0,0.20819 -0.0551,0.41267 -0.1597,0.59269 C 40.3312,9.38771 40.1808,9.53686 40,9.64 L 16.52,23.11 c -0.3617,0.207 -0.6675,0.4989 -0.8913,0.8504 -0.2238,0.3516 -0.3587,0.7523 -0.3931,1.1676 -0.0345,0.4153 0.0326,0.8327 0.1954,1.2163 0.1628,0.3836 0.4164,0.7219 0.739,0.9857 z"
         fill="#fabf00"
         id="path1" /><path
         d="m 22,36.88 -9.52,14.57 c -0.3324,0.5065 -0.8462,0.8665 -1.4357,1.0059 C 10.4547,52.5954 9.83413,52.5038 9.31,52.2 L 3,48.55 C 2.09463,48.0273 1.34153,47.2772 0.815324,46.3738 0.289116,45.4705 0.00805933,44.4454 0,43.4 V 19.08 C 3.84234e-4,18.1553 0.216647,17.2435 0.63157,16.4171 1.04649,15.5907 1.64862,14.8726 2.39,14.32 c -1.7,1.31 -1,2.78 0.1,3.72 l 19.08,15.71 c 0.4421,0.3788 0.73,0.9066 0.8093,1.4834 C 22.4585,35.8102 22.3236,36.396 22,36.88 Z"
         fill="#338393"
         id="path2" /><path
         d="m 37.83,35.11 10.69,8.81 1.63,1.34 c 1.13,0.94 2,2.59 0.1,3.72 -0.83,0.49 -15,8.64 -20.27,11.67 -0.9061,0.5174 -1.9316,0.7895 -2.975,0.7895 -1.0434,0 -2.0688,-0.2721 -2.975,-0.7895 L 14,54.86 C 13.8194,54.7555 13.6694,54.6053 13.5651,54.4245 13.4609,54.2437 13.406,54.0387 13.406,53.83 c 0,-0.2087 0.0549,-0.4137 0.1591,-0.5945 C 13.6694,53.0547 13.8194,52.9045 14,52.8 L 37.48,39.34 c 0.3617,-0.2082 0.6675,-0.5011 0.8912,-0.8535 0.2236,-0.3524 0.3584,-0.7538 0.3929,-1.1697 0.0344,-0.416 -0.0326,-0.8341 -0.1953,-1.2184 C 38.4061,35.714 38.1526,35.3749 37.83,35.11 Z"
         fill="#338393"
         id="path3" /><path
         d="M 32,25.57 41.52,11 C 41.8524,10.4935 42.3662,10.1336 42.9557,9.99407 43.5453,9.85458 44.1659,9.94617 44.69,10.25 L 51,13.9 c 0.9094,0.518 1.6658,1.2671 2.1927,2.1715 0.5268,0.9044 0.8053,1.9319 0.8073,2.9785 v 24.32 c -4e-4,0.9247 -0.2167,1.8365 -0.6316,2.6629 -0.4149,0.8264 -1.017,1.5445 -1.7584,2.0971 1.7,-1.31 1,-2.78 -0.1,-3.72 L 32.43,28.69 C 31.9886,28.3129 31.701,27.7869 31.6218,27.2118 31.5425,26.6367 31.6771,26.0525 32,25.57 Z"
         fill="#338393"
         id="path4" /></g><a
       id="a1"
       transform="translate(-95.664024,-136.57879)"><text
         xml:space="preserve"
         style="font-style:normal;font-variant:normal;font-weight:normal;font-stretch:normal;font-size:11.1753px;font-family:Ayuthaya;-inkscape-font-specification:'Ayuthaya, Normal';font-variant-ligatures:normal;font-variant-caps:normal;font-variant-numeric:normal;font-variant-east-asian:normal;text-align:start;writing-mode:lr-tb;direction:ltr;text-anchor:start;fill:#505050;fill-opacity:1;stroke-width:0.931269"
         x="126.21555"
         y="145.67963"
         id="text1"
         transform="scale(0.93306247,1.0717396)"><tspan
           sodipodi:role="line"
           id="tspan1"
           style="font-style:normal;font-variant:normal;font-weight:normal;font-stretch:normal;font-size:11.1753px;font-family:Ayuthaya;-inkscape-font-specification:'Ayuthaya, Normal';font-variant-ligatures:normal;font-variant-caps:normal;font-variant-numeric:normal;font-variant-east-asian:normal;fill:#505050;fill-opacity:1;stroke-width:0.931269"
           x="126.21555"
           y="145.67963">StarRocks</tspan></text></a></g></svg>
