<?xml version="1.0" encoding="UTF-8" standalone="no"?>
<!DOCTYPE svg PUBLIC "-//W3C//DTD SVG 1.1//EN" "http://www.w3.org/Graphics/SVG/1.1/DTD/svg11.dtd">
<svg xmlns:xl="http://www.w3.org/1999/xlink" version="1.1" xmlns="http://www.w3.org/2000/svg" xmlns:dc="http://purl.org/dc/elements/1.1/" viewBox="0 0 512 150" width="512" height="150">
  <defs/>
  <g id="Canvas_1" fill="none" stroke-dasharray="none" fill-opacity="1" stroke-opacity="1" stroke="none">
    <title>Canvas 1</title>
    <rect fill="white" x="0" y="0" width="512" height="150"/>
    <g id="Canvas_1_Layer_1">
      <title>Layer 1</title>
      <g id="Group_2">
        <title>3e91140ac1bfb9903b91c1b0ca093231</title>
        <g id="Graphic_3">
          <path d="M 90.487 58.531 L 100.014 58.531 L 100.014 77.271 L 90.487 77.271 L 80.96 77.271 L 80.96 58.531 L 90.487 58.531 Z M 302.734 49.359 L 331.22 49.359 L 331.22 40.769 L 302.734 40.769 C 300.443 40.769 299.299 39.745 299.299 37.692 L 299.299 24.167 C 299.299 22.115 300.443 21.09 302.734 21.09 L 331.22 21.09 L 331.22 12.502 L 302.734 12.502 C 299.39 12.502 296.554 13.61 294.217 15.829 C 291.88 18.048 290.707 20.828 290.707 24.167 L 290.707 37.694 C 290.707 41.034 291.88 43.811 294.217 46.03 C 296.555 48.251 299.391 49.359 302.734 49.359 Z M 120.306 37.336 L 105.847 37.336 L 105.847 49.358 L 97.26 49.358 L 97.26 12.501 L 120.306 12.501 L 120.306 12.504 L 132.902 12.504 C 136.098 12.504 138.672 13.816 140.631 16.44 C 142.444 18.825 143.351 21.663 143.351 24.957 C 143.351 28.249 142.444 31.061 140.631 33.401 C 138.673 36.025 136.098 37.337 132.902 37.337 L 120.306 37.337 Z M 105.847 28.748 L 120.306 28.748 L 120.306 28.75 L 132.902 28.75 C 134.141 28.75 134.761 27.485 134.761 24.957 C 134.761 22.379 134.141 21.092 132.902 21.092 L 120.306 21.092 L 120.306 21.09 L 105.847 21.09 Z M 90.487 89.293 L 80.96 89.293 L 72.818 89.293 L 19.743 89.293 L 19.743 58.53 L 1 58.53 L 1 138.958 L 19.743 138.958 L 19.743 108.035 L 80.96 108.035 L 80.96 138.958 L 90.487 138.958 L 90.489 138.958 L 100.014 138.958 L 100.014 89.293 L 90.489 89.293 L 90.487 89.293 Z M 9.587 49.359 L 1 49.359 L 1 23.88 C 1 20.78 1.967 18.109 3.898 15.866 C 5.83 13.623 8.323 12.502 11.377 12.502 L 23.578 12.502 L 23.578 12.505 L 35.711 12.505 C 38.813 12.505 41.327 13.625 43.261 15.866 C 45.193 18.11 46.159 20.782 46.159 23.882 L 46.159 49.36 L 37.57 49.36 L 37.57 37.625 L 23.579 37.625 L 23.579 37.623 L 16.26 37.623 L 14.956 37.623 L 9.587 37.623 Z M 9.587 29.034 L 14.956 29.034 L 16.26 29.034 L 23.581 29.034 L 23.581 29.037 L 37.57 29.037 L 37.57 23.882 C 37.57 22.022 36.95 21.092 35.711 21.092 L 23.579 21.092 L 23.579 21.09 L 11.377 21.09 C 10.184 21.09 9.587 22.02 9.587 23.88 Z M 395.803 89.293 L 345.36 89.293 C 342.756 89.293 341.46 87.317 341.46 83.363 C 341.46 79.3 342.757 77.27 345.36 77.27 L 414.7 77.27 L 414.7 58.53 L 345.36 58.53 C 338.698 58.53 333.234 60.975 328.963 65.87 C 324.696 70.765 322.564 76.593 322.564 83.363 C 322.564 90.129 324.643 95.855 328.81 100.538 C 333.18 105.536 338.699 108.035 345.361 108.035 L 395.804 108.035 C 398.407 108.035 399.712 110.069 399.712 114.128 C 399.712 118.187 398.406 120.216 395.804 120.216 L 326.464 120.216 L 326.464 138.958 L 395.804 138.958 C 402.47 138.958 407.989 136.459 412.363 131.46 C 416.422 126.67 418.452 120.897 418.452 114.128 C 418.452 107.357 416.422 101.581 412.363 96.795 C 407.987 91.797 402.469 89.293 395.803 89.293 Z M 426.26 138.959 L 511.842 138.959 L 511.842 120.217 L 445.002 120.217 L 445.002 108.036 L 507.625 108.036 L 507.625 89.294 L 445.002 89.294 L 445.002 77.272 L 512 77.272 L 512 58.532 L 426.26 58.532 Z M 472.71 12.501 L 472.71 49.358 L 511.925 49.358 L 511.925 40.771 L 481.298 40.771 L 481.298 35.188 L 509.995 35.188 L 509.995 26.6 L 481.298 26.6 L 481.298 21.088 L 512 21.088 L 512 12.5 L 472.71 12.5 Z M 412.948 26.601 L 390.903 26.601 L 390.903 12.501 L 382.316 12.501 L 382.316 49.358 L 390.903 49.358 L 390.903 35.188 L 412.948 35.188 L 412.948 49.358 L 421.61 49.358 L 421.61 12.501 L 412.948 12.501 Z M 208.398 116.782 C 208.398 122.82 206.472 127.923 202.62 132.085 C 198.455 136.668 192.833 138.959 185.751 138.959 L 158.188 138.959 L 107.822 138.959 L 107.822 89.452 L 126.564 89.452 L 131.627 89.452 L 158.188 89.452 L 184.347 89.452 C 187.054 89.452 188.406 87.423 188.406 83.359 C 188.406 79.3 187.054 77.269 184.347 77.269 L 165.583 77.269 L 158.188 77.269 L 158.186 77.269 L 158.186 77.271 L 126.562 77.271 L 107.822 77.271 L 107.822 58.529 L 158.186 58.529 L 158.186 58.531 L 158.188 58.531 L 158.188 58.529 L 184.347 58.529 C 191.427 58.529 197.047 60.82 201.214 65.401 C 204.961 69.565 206.837 74.668 206.837 80.707 C 206.837 88.204 204.076 94.035 198.559 98.197 C 205.117 102.259 208.398 108.452 208.398 116.782 Z M 189.812 114.128 C 189.812 110.069 188.461 108.035 185.751 108.035 L 158.188 108.035 L 126.564 108.035 L 126.564 120.216 L 158.188 120.216 L 185.751 120.216 C 188.46 120.216 189.812 118.187 189.812 114.128 Z M 217.029 37.622 L 210.75 37.622 L 208.404 37.622 L 203.038 37.622 L 203.038 49.359 L 194.449 49.359 L 194.449 23.88 C 194.449 20.78 195.416 18.109 197.349 15.866 C 199.279 13.623 201.774 12.502 204.828 12.502 L 217.029 12.502 L 229.159 12.502 C 232.262 12.502 234.777 13.623 236.709 15.866 C 238.641 18.11 239.607 20.78 239.607 23.882 L 239.607 49.36 L 231.018 49.36 L 231.018 37.625 L 217.029 37.625 Z M 217.029 29.034 L 231.02 29.034 L 231.02 23.88 C 231.02 22.022 230.398 21.09 229.159 21.09 L 217.029 21.09 L 217.027 21.09 L 204.826 21.09 C 203.635 21.09 203.038 22.022 203.038 23.88 L 203.038 29.034 L 208.404 29.034 L 210.75 29.034 Z M 308.141 65.871 C 312.358 70.764 314.466 76.594 314.466 83.364 L 314.466 138.959 L 295.724 138.959 L 295.724 113.347 L 265.79 113.347 L 265.191 113.347 L 246.372 113.347 L 234.659 113.347 L 234.659 138.959 L 215.919 138.959 L 215.919 83.359 C 215.919 76.593 218.027 70.763 222.244 65.869 C 226.459 60.974 231.9 58.529 238.564 58.529 L 265.191 58.529 L 265.191 58.531 L 291.664 58.531 C 298.435 58.531 303.924 60.976 308.141 65.871 Z M 295.724 83.359 C 295.724 79.3 294.372 77.271 291.664 77.271 L 265.191 77.271 L 238.564 77.271 C 235.96 77.271 234.659 79.3 234.659 83.359 L 234.659 94.604 L 246.372 94.604 L 265.191 94.604 L 265.79 94.604 L 295.724 94.604 Z" fill="black"/>
        </g>
      </g>
    </g>
  </g>
</svg>
