<?xml version="1.0" encoding="UTF-8" standalone="no"?>
<!DOCTYPE svg PUBLIC "-//W3C//DTD SVG 1.1//EN" "http://www.w3.org/Graphics/SVG/1.1/DTD/svg11.dtd">
<svg xmlns:xl="http://www.w3.org/1999/xlink" version="1.1" xmlns="http://www.w3.org/2000/svg" xmlns:dc="http://purl.org/dc/elements/1.1/" viewBox="0 -43.5 480 120" width="480" height="120">
  <defs/>
  <g id="Canvas_1" fill="none" stroke-dasharray="none" fill-opacity="1" stroke-opacity="1" stroke="none">
    <title>Canvas 1</title>
    <rect fill="white" x="0" y="-43.5" width="480" height="120"/>
    <g id="Canvas_1_Layer_1">
      <title>Layer 1</title>
      <g id="Group_22">
        <g id="Graphic_31">
          <path d="M 256.2 41.8 C 258.4 41.8 260.4 42.3 261.5 43.3 C 261.7 44.9 260.2 47.5 259.3 47.5 C 258.2 47.1 257.2 46.9 255.9 46.9 C 250.7 46.9 248.1 52.3 248.1 57.6 C 248.1 60.9 249.2 62.9 251.9 62.9 C 254.7 62.9 257.5 61 259.1 59.6 C 259.5 59.9 260 60.8 260 61.8 C 260 62.9 259.7 64 258.6 65.1 C 256.8 66.9 253.7 68.5 249.2 68.5 C 244.1 68.5 240.5 65.6 240.5 58.8 C 240.7 49.8 246.5 41.8 256.2 41.8 Z" fill="#373535"/>
        </g>
        <g id="Graphic_30">
          <path d="M 273 62.6 C 275.8 62.6 280.9 57.7 282.3 48.3 C 282.4 47.7 282.4 47.6 282.5 47 C 281.9 46.8 281 46.6 280.2 46.6 C 278.1 46.6 275.9 47.2 274 49.9 C 272 52.7 271.1 56.2 271.1 59 C 271.1 61.3 271.8 62.6 273 62.6 Z M 263.8 60 C 263.8 56.6 264.9 50.8 269.2 46.5 C 272.9 42.7 277.3 41.8 281.4 41.8 C 284.1 41.8 287.7 42.7 290 43.1 C 289.4 45.6 288.1 55.1 287.4 60.6 C 287.1 62.9 287 66.2 287.1 67.4 C 285.2 68.2 281.7 68.4 280.7 68.4 C 280.2 68.4 280.1 66.1 280.2 63.8 C 280.3 63.1 280.4 62 280.4 61.5 C 278.2 65.2 273.8 68.3 269.2 68.3 C 265.9 68.4 263.8 65.6 263.8 60 Z" fill="#373535"/>
        </g>
        <g id="Graphic_29">
          <path d="M 304.2 41.8 C 306.5 41.8 308.8 42.7 309.8 43.7 C 309.7 45.3 308.5 48 306.5 47.2 C 305.6 46.9 304.8 46.7 303.6 46.7 C 302.1 46.7 300.7 47.4 300.7 48.8 C 300.7 49.9 301.5 50.7 305.3 53.4 C 308 55.4 309.1 57.2 309.1 59.7 C 309.1 63.9 305.2 68.4 298.3 68.4 C 295.5 68.4 293 67.3 292.3 66.2 C 291.3 64.5 292.1 61.1 293.2 61.7 C 294.7 62.4 297.1 63.2 299.1 63.2 C 301 63.2 302.2 62.3 302.2 61.2 C 302.2 60.2 301.3 59.4 297.9 56.9 C 295 54.7 294.1 52.7 294.1 50.5 C 294.1 45.7 298.2 41.8 304.2 41.8 Z" fill="#373535"/>
        </g>
        <g id="Graphic_28">
          <path d="M 323.9 41.8 C 326.2 41.8 328.5 42.7 329.5 43.7 C 329.4 45.3 328.2 48 326.2 47.2 C 325.3 46.9 324.5 46.7 323.3 46.7 C 321.8 46.7 320.4 47.4 320.4 48.8 C 320.4 49.9 321.2 50.7 325 53.4 C 327.7 55.4 328.8 57.2 328.8 59.7 C 328.8 63.9 324.9 68.4 318 68.4 C 315.2 68.4 312.8 67.3 312 66.2 C 311 64.5 311.8 61.1 312.9 61.7 C 314.4 62.4 316.8 63.2 318.8 63.2 C 320.7 63.2 321.9 62.3 321.9 61.2 C 321.9 60.2 321 59.4 317.6 56.9 C 314.7 54.7 313.8 52.7 313.8 50.5 C 313.8 45.7 317.9 41.8 323.9 41.8 Z" fill="#373535"/>
        </g>
        <g id="Graphic_27">
          <path d="M 341.8 62.6 C 344.6 62.6 349.7 57.7 351.1 48.3 C 351.2 47.7 351.2 47.6 351.3 47 C 350.7 46.8 349.8 46.6 349 46.6 C 346.9 46.6 344.7 47.2 342.8 49.9 C 340.8 52.7 339.9 56.2 339.9 59 C 340 61.3 340.6 62.6 341.8 62.6 Z M 332.6 60 C 332.6 56.6 333.7 50.8 338 46.5 C 341.7 42.7 346.1 41.8 350.2 41.8 C 352.9 41.8 356.5 42.7 358.8 43.1 C 358.2 45.6 356.9 55.1 356.2 60.6 C 355.9 62.9 355.8 66.2 355.9 67.4 C 354 68.2 350.5 68.4 349.5 68.4 C 349 68.4 348.9 66.1 349 63.8 C 349.1 63.1 349.2 62 349.2 61.5 C 347 65.2 342.6 68.3 338 68.3 C 334.8 68.4 332.6 65.6 332.6 60 Z" fill="#373535"/>
        </g>
        <g id="Graphic_26">
          <path d="M 371.7 49.2 C 374.3 45 377.7 41.8 382.5 41.8 C 386.6 41.8 387.9 45.6 387.1 50.9 C 386.7 53.4 386 57 385.6 60.3 C 385.2 63.1 384.9 65.6 385 67.3 C 383.5 68 379.2 68.3 378.2 68.3 C 377.8 68.3 377.7 65.2 378.3 61.9 C 378.8 59.2 379.7 54.2 380.2 51.3 C 380.5 49.6 380.4 47.6 378.8 47.6 C 376.7 47.6 371.7 51 369.2 64.8 C 369 65.9 368.6 66.6 367.9 67 C 367 67.5 365.2 68 361.5 68 C 362.2 64.5 363.3 57.4 364.1 52.1 C 364.8 47.3 365.1 44.2 365 43 C 366 42.7 371.1 41.6 371.6 41.6 C 372.2 41.6 372.3 43.4 371.8 47.6 C 371.7 48 371.7 48.6 371.6 49 L 371.7 49 Z" fill="#373535"/>
        </g>
        <g id="Graphic_25">
          <path d="M 400.7 62.5 C 403.2 62.5 408.3 57.8 409.7 49.5 C 409.8 49 409.9 48.2 410 47.7 C 409.3 47 408.3 46.6 406.7 46.6 C 400.9 46.6 398.4 53.5 398.4 58.5 C 398.5 61.1 399.4 62.5 400.7 62.5 Z M 397 68.4 C 393.3 68.4 391.1 65.1 391.1 59.6 C 391.1 50.4 396.9 41.9 406.6 41.9 C 408.3 41.9 409.9 42.4 410.8 42.9 C 411.3 40.3 412.5 32.2 412.6 29.8 C 414.2 29.5 417.6 29 419.2 29 C 419.8 29 420 29.6 419.8 31.1 C 418.4 39.7 416 56.1 415.5 59.7 C 415.2 62.8 415.1 65.8 415.2 67.5 C 413.4 68.3 409.7 68.5 408.7 68.5 C 408.3 68.5 408.1 65.9 408.2 63.5 C 408.3 62.8 408.4 61.7 408.4 61.5 C 405.3 66.1 401.4 68.4 397 68.4 Z" fill="#373535"/>
        </g>
        <g id="Graphic_24">
          <path d="M 430.4 50 C 433.4 43.3 437 41.8 439.4 41.8 C 440.1 41.8 441.3 42.3 441.8 42.8 C 442 44.7 440.5 48.4 439.2 49.9 C 438.5 49.6 437.7 49.2 436.7 49.2 C 434.8 49.2 430.9 52.2 428.5 65.2 C 428.3 66.3 428 66.7 427.4 67 C 426.4 67.6 422.6 68 420.8 68.1 C 421.7 63.4 423.1 53.9 423.7 48.3 C 423.9 46.9 423.9 44.2 423.8 43.2 C 424.9 42.7 429.2 41.7 430.1 41.7 C 430.6 41.7 431 44.8 430.2 49.9 L 430.4 49.9 Z" fill="#373535"/>
        </g>
        <g id="Graphic_23">
          <path d="M 450.5 62.6 C 453.3 62.6 458.4 57.7 459.8 48.3 C 459.9 47.7 459.9 47.6 460 47 C 459.4 46.8 458.5 46.6 457.7 46.6 C 455.6 46.6 453.4 47.2 451.5 49.9 C 449.5 52.7 448.6 56.2 448.6 59 C 448.7 61.3 449.3 62.6 450.5 62.6 Z M 441.3 60 C 441.3 56.6 442.4 50.8 446.7 46.5 C 450.4 42.7 454.8 41.8 458.9 41.8 C 461.6 41.8 465.2 42.7 467.5 43.1 C 466.9 45.6 465.6 55.1 464.9 60.6 C 464.6 62.9 464.5 66.2 464.6 67.4 C 462.7 68.2 459.2 68.4 458.2 68.4 C 457.7 68.4 457.6 66.1 457.7 63.8 C 457.8 63.1 457.9 62 457.9 61.5 C 455.7 65.2 451.3 68.3 446.7 68.3 C 443.5 68.4 441.3 65.6 441.3 60 Z" fill="#373535"/>
        </g>
      </g>
      <g id="Group_3">
        <g id="Graphic_21">
          <path d="M 206.1 -2.7 C 208 19.2 173.5 40.1 129 43.9 C 84.5 47.7 47 33 45.1 11.1 C 43.2 -10.8 77.7 -31.7 122.2 -35.5 C 166.6 -39.3 204.2 -24.7 206.1 -2.7" fill="#bbe6fb"/>
        </g>
        <g id="Graphic_20">
          <path d="M 123.4 -33 C 106.4 -33.3 86.6 -26.5 71.8 -20.2 C 70.3 -15.8 69.4 -11.1 69.4 -6.2 C 69.4 19.8 92.9 40.9 121.9 40.9 C 150.9 40.9 174.5 19.9 174.5 -6.2 C 174.5 -14.4 172.1 -22.2 168 -28.9 C 156.2 -30.7 139.9 -32.7 123.4 -33" fill="white"/>
        </g>
        <g id="Graphic_19">
          <path d="M 122 -33 C 112.6 -33.6 96.4 -28.7 82.9 -23.8 C 80.8 -19 79.7 -13.7 79.7 -8.1 C 79.7 14.7 100.4 33.2 122.2 33.2 C 143.9 33.2 163.1 14.7 164.7 -8.1 C 165.2 -15.5 162.7 -22.5 159.1 -28.5 C 145.2 -30.9 130.4 -32.4 122 -33" fill="white"/>
        </g>
        <g id="Graphic_18">
          <path d="M 97.9 -11 C 99.1 -13.6 100.8 -14.8 102.5 -16.9 C 102.3 -17.4 101.9 -19.1 101.9 -19.6 C 101.9 -22.2 104 -24.2 106.5 -24.2 C 107.1 -24.2 107.7 -24.1 108.2 -23.9 C 115.9 -29.8 126 -32.3 136.2 -30 C 137.1 -29.8 138 -29.5 138.9 -29.3 C 128.9 -30.7 117.5 -27.1 109.8 -20.9 C 110 -20.3 110.7 -18.8 110.7 -18.1 C 110.7 -15.5 109 -14.9 106.5 -14.9 C 105.9 -14.9 105.4 -15 104.8 -15.2 C 103.1 -12.9 100.9 -8.4 99.9 -5.6 C 104.2 -1.8 108 -.4 113 1.5 C 113 1.3 113.2 1 113.2 .8 C 113.2 -6.9 120 -13.2 127.7 -13.2 C 134.6 -13.2 140.4 -8.2 141.5 -1.6 C 145 -3.8 148.3 -5.5 150.8 -8.7 C 150.2 -9.4 149.6 -11.5 149.6 -12.5 C 149.6 -14.8 151.5 -16.7 153.8 -16.7 C 154.1 -16.7 154.4 -16.7 154.8 -16.6 C 156.1 -19.3 157.1 -22.1 157.7 -25 C 145.6 -34 122.2 -32.7 122.2 -32.7 C 122.2 -32.7 103.6 -33.7 91 -27.5 C 91.9 -21.7 94.3 -15.9 97.9 -11" fill="#373535"/>
        </g>
        <g id="Graphic_17">
          <path d="M 155.7 -14.5 C 156.6 -13.7 157 -13.1 157.4 -12.4 C 158.5 -10.4 156.3 -8.5 153.9 -8.5 C 153.7 -8.5 153.4 -8.5 153.2 -8.6 C 150.6 -4.5 146 .7 141.9 3.4 C 148.2 4.4 154.1 6.9 158.7 10.8 C 162.1 4.7 164.7 -4.2 164.7 -11.7 C 164.7 -17.4 162.2 -21.6 158.4 -24.7 C 158.3 -21.6 156.6 -17.3 155.7 -14.5" fill="#373535"/>
        </g>
        <g id="Graphic_16">
          <path d="M 104.9 24.3 C 107 18.5 112.1 14.1 117 10.2 C 116.3 9.2 115.2 6.8 114.8 5.7 C 108.9 3.9 103.7 .5 99.6 -3.9 C 99.6 -3.8 99.5 -3.6 99.5 -3.5 C 98.7 -.1 98.6 3.4 99 6.7 C 101.8 7.2 104 9.7 104 12.7 C 104 14.5 102.4 17 101.2 18.2 C 102.4 20.8 103.3 22.2 104.9 24.3" fill="#373535"/>
        </g>
        <g id="Graphic_15">
          <path d="M 104.5 29.1 C 102 26.6 100.3 21.7 98.7 18.6 C 98.4 18.6 98.1 18.7 97.8 18.7 C 94.4 18.7 90.9 15.9 91.7 12.6 C 92.1 10.8 93.4 9.6 95.4 8.6 C 94.9 4.8 94.8 -.5 95.7 -4.4 C 95.9 -5.5 96.5 -6 96.8 -7.1 C 93.1 -12.5 90.7 -19.7 90.7 -26.8 L 90.7 -27.6 C 84.4 -24.4 79.7 -19.5 79.7 -11.7 C 79.7 5.6 89.7 22.6 104.5 29.2 L 104.5 29.1" fill="#373535"/>
        </g>
        <g id="Graphic_14">
          <path d="M 141 5.2 C 139.1 10.6 133.9 14.6 127.8 14.6 C 124.5 14.6 121.5 13.5 119.2 11.6 C 114.3 15.4 109.8 22.1 107.6 28 C 108.6 29.1 109.3 30 110.5 31 C 113.9 31.9 118.7 31 122.4 31 C 137.3 31 150.6 24.4 158.2 12.7 C 153 9.1 147 5.7 141 5.2" fill="#373535"/>
        </g>
        <g id="Graphic_13">
          <path d="M 97.5 -9 C 98.7 -11.6 100.1 -13.9 101.8 -16.1 C 101.6 -16.6 101.5 -17.2 101.5 -17.7 C 101.5 -20.3 103.6 -22.3 106.1 -22.3 C 106.7 -22.3 107.3 -22.2 107.8 -22 C 115.5 -27.9 125.6 -30.4 135.8 -28.1 C 136.7 -27.9 137.6 -27.6 138.5 -27.4 C 128.5 -28.8 118.1 -25.7 110.4 -19.5 C 110.6 -18.9 110.8 -18.3 110.8 -17.7 C 110.8 -15.1 108.7 -13.1 106.2 -13.1 C 105.6 -13.1 105.1 -13.2 104.5 -13.4 C 102.8 -11.1 101.3 -8.5 100.3 -5.7 C 104 -1.8 108.5 1.4 113.5 3.2 L 113.5 2.5 C 113.5 -5.2 119.8 -11.5 127.5 -11.5 C 134.4 -11.5 140.2 -6.5 141.3 .1 C 144.8 -2.1 147.8 -4.9 150.4 -8.2 C 149.8 -8.9 149.4 -9.8 149.4 -10.8 C 149.4 -13.1 151.3 -15 153.6 -15 C 153.9 -15 154.2 -15 154.6 -14.9 C 155.9 -17.6 156.9 -20.4 157.5 -23.3 C 145.4 -32.3 122 -31 122 -31 C 122 -31 103.4 -32 90.8 -25.8 C 91.5 -19.7 93.9 -13.9 97.5 -9" fill="#1287b1"/>
        </g>
        <g id="Graphic_12">
          <path d="M 156.3 -13.8 C 157.2 -13 157.7 -11.9 157.7 -10.7 C 157.7 -8.4 155.8 -6.5 153.5 -6.5 C 153.3 -6.5 153 -6.5 152.8 -6.6 C 150.2 -2.5 146.7 1 142.6 3.6 C 148.6 4.5 154.3 7.1 159 11 C 162.4 4.9 164.4 -2.2 164.4 -9.7 C 164.4 -15.4 161.9 -19.6 158.1 -22.7 C 157.9 -19.6 157.3 -16.6 156.3 -13.8" fill="#1287b1"/>
        </g>
        <g id="Graphic_11">
          <path d="M 105.5 25.6 C 107.6 19.8 111.2 14.7 116.1 10.8 C 115.4 9.8 114.8 8.8 114.4 7.6 C 108.5 5.8 103.3 2.4 99.2 -2 C 99.2 -1.9 99.1 -1.7 99.1 -1.6 C 98.3 1.8 98.2 5.3 98.6 8.6 C 101.4 9.1 103.6 11.6 103.6 14.6 C 103.6 16.4 102.8 18 101.6 19.1 C 102.6 21.4 104 23.6 105.5 25.6" fill="#1287b1"/>
        </g>
        <g id="Graphic_10">
          <path d="M 104.5 29 C 102 26.5 99.9 23.7 98.3 20.6 C 98 20.6 97.7 20.7 97.4 20.7 C 94 20.7 91.3 18 91.3 14.6 C 91.3 12.2 92.7 10.1 94.7 9.1 C 94.2 5.3 94.4 1.5 95.3 -2.4 C 95.5 -3.5 95.9 -4.6 96.2 -5.7 C 92.5 -11.1 90.3 -17.7 90.3 -24.8 L 90.3 -25.6 C 84 -22.4 79.3 -17.5 79.3 -9.7 C 79.3 7.6 89.6 22.5 104.4 29.1 C 104.5 29.1 104.5 29.1 104.5 29" fill="#1287b1"/>
        </g>
        <g id="Graphic_9">
          <path d="M 140.6 7.2 C 138.7 12.6 133.5 16.6 127.4 16.6 C 124.1 16.6 121.1 15.5 118.8 13.6 C 113.9 17.4 110.2 22.6 107.9 28.5 C 108.9 29.6 110 30.6 111.1 31.6 C 114.5 32.5 118.1 33 121.8 33 C 136.7 33 149.9 25.3 157.5 13.6 C 152.5 10 146.6 7.7 140.6 7.2" fill="#1287b1"/>
        </g>
        <g id="Graphic_8">
          <path d="M 141.1 3.6 L 154 .5 L 141 -.2 L 151.6 -8.2 L 139.6 -3.9 L 147.7 -15.2 L 136.4 -7.7 L 140.3 -20.9 L 132.6 -10 L 132.4 -23.8 L 127.3 -11.5 L 123.1 -23.9 L 123.3 -9.3 L 116 -22.4 L 120 -8.5 L 108.1 -17.1 L 117.4 -5.4 L 102.6 -10.8 L 114.2 -2.2 L 99.3 -1.7 L 114.6 2.2 L 99.3 5.5 L 114.4 6.6 L 101.7 14.7 L 114.8 10 L 105.7 21.5 L 117.2 12.2 L 113.1 27.6 L 122 15 L 120.8 29.8 L 125.8 16.3 L 130.1 30.4 L 131.1 16.2 L 137.5 28.3 L 133.7 14.5 L 145.3 23.5 L 137.8 12 L 150.6 17 L 140.8 7.4 L 153.9 8.4 Z" fill="white"/>
        </g>
        <g id="Graphic_7">
          <path d="M 3.4 28.3 C 43.5 -11.8 75.5 -24.2 104.6 -29.8 C 108.4 -30.5 109.2 -39 109.2 -39 C 109.2 -39 109.7 -32.8 112.4 -32 C 115.1 -31.2 118.6 -41.7 118.6 -41.7 C 118.6 -41.7 115.4 -32.3 118.6 -31.7 C 121.8 -31.2 127.8 -40.9 127.8 -40.9 C 127.8 -40.9 125.4 -32.6 127 -32 C 128.6 -31.5 136.7 -44.1 136.7 -44.1 C 136.7 -44.1 131.9 -35.8 136.4 -34.9 C 141 -34.1 147.7 -40.6 147.7 -40.6 C 147.7 -40.6 142.5 -34.7 144.8 -33.8 C 154.8 -30.3 162.8 -43.2 162.8 -43.2 C 162.8 -43.2 160.9 -37.5 156.1 -31.3 C 166.6 -28.6 174.4 -44.4 174.4 -44.4 L 166.6 -28.6 C 170.6 -26.6 186.7 -45.2 186.7 -45.2 C 186.7 -45.2 178.4 -30.7 173.5 -27.7 C 176.2 -25.5 185.9 -34.2 185.9 -34.2 C 185.9 -34.2 178.1 -24.5 181.1 -24 C 185.4 -20.5 201.3 -42 201.3 -42 C 201.3 -42 195.1 -29.3 186 -19.4 C 193.6 -15.5 212.6 -40 212.6 -40 C 212.6 -40 212.1 -32.2 198.3 -19.8 C 208.5 -21.1 221.7 -40.5 221.7 -40.5 C 221.7 -40.5 216.9 -26 205.3 -15.7 C 215.3 -16.7 231.4 -41.5 231.4 -41.5 C 231.4 -41.5 225.2 -24.3 212.6 -14.3 C 226.6 -11.2 246.8 -32.1 246.8 -32.1 C 246.8 -32.1 238.9 -17.3 228.5 -11.2 C 240.1 -6.8 256 -25.1 256 -25.1 C 256 -25.1 240.1 -.6 214.8 -1.7 C 206.5 -2.1 181.4 -26.9 127.6 -24.9 C 56.4 -22.3 41.4 7.9 3.4 28.3" fill="#373535" fill-opacity=".35"/>
        </g>
        <g id="Graphic_6">
          <path d="M 5 25.3 C 45.1 -14.8 77.1 -27.2 106.2 -32.8 C 110 -33.5 110.8 -42 110.8 -42 C 110.8 -42 111.3 -35.8 114 -35 C 116.7 -34.2 120.2 -44.7 120.2 -44.7 C 120.2 -44.7 117 -35.3 120.2 -34.7 C 123.4 -34.2 129.4 -43.9 129.4 -43.9 C 129.4 -43.9 127 -35.6 128.6 -35 C 130.2 -34.5 138.3 -47.1 138.3 -47.1 C 138.3 -47.1 133.5 -38.8 138 -37.9 C 142.6 -37.1 149.3 -43.6 149.3 -43.6 C 149.3 -43.6 144.1 -37.7 146.4 -36.8 C 156.4 -33.3 164.4 -46.2 164.4 -46.2 C 164.4 -46.2 162.5 -40.5 157.7 -34.3 C 168.2 -31.6 176 -47.4 176 -47.4 L 168.2 -31.6 C 172.2 -29.4 188.4 -48 188.4 -48 C 188.4 -48 180.1 -33.5 175.2 -30.5 C 177.9 -28.6 187.6 -37.2 187.6 -37.2 C 187.6 -37.2 179.8 -27.5 182.8 -27 C 187.1 -23.5 203 -45 203 -45 C 203 -45 196.7 -32.3 187.6 -22.4 C 195.2 -18.6 214.3 -43.1 214.3 -43.1 C 214.3 -43.1 213.8 -35.3 200 -22.9 C 210.2 -24.2 223.4 -43.6 223.4 -43.6 C 223.4 -43.6 218.6 -29.1 207 -18.8 C 217 -19.8 233.1 -44.6 233.1 -44.6 C 233.1 -44.6 226.9 -27.4 214.3 -17.4 C 228.3 -14.3 248.5 -35.2 248.5 -35.2 C 248.5 -35.2 240.6 -20.4 230.2 -14.3 C 241.8 -9.9 257.7 -28.2 257.7 -28.2 C 257.7 -28.2 241.8 -3.7 216.5 -4.8 C 208.2 -5.2 183.1 -30 129.3 -28 C 58.1 -25.3 43 4.8 5 25.3" fill="#373535"/>
        </g>
        <g id="Graphic_5">
          <path d="M 2.4 32.7 C 23.6 43.3 43 31.1 67.4 38 C 86 43.2 108.6 49.7 139.3 45.2 C 170 40.8 196.2 27.4 208.8 3.6 C 212.7 -7 228.6 6 228.6 6 C 228.6 6 217 1.2 217.3 3.4 C 217.6 5.7 234.7 13.6 234.7 13.6 C 234.7 13.6 219.2 8.8 220.2 12.4 C 221.1 16 239.6 30.6 239.6 30.6 C 239.6 30.6 218.5 14.8 216.8 17 C 215 19.2 225.7 27.9 225.7 27.9 C 225.7 27.9 208.1 17 201.9 20.2 C 197.4 22.5 220.2 37.4 220.2 37.4 C 220.2 37.4 205.4 26.1 201.9 29.1 C 198.4 32.1 218.6 56.3 218.6 56.3 C 218.6 56.3 195.6 31.5 193.3 32.7 C 191 33.9 199.6 45.8 199.6 45.8 C 199.6 45.8 188.4 33.4 185.3 35.5 C 182.2 37.7 201.5 69.8 201.5 69.8 C 201.5 69.8 180.6 36.9 171.9 42.4 C 185.4 72.1 180.4 76.3 180.4 76.3 C 180.4 76.3 178.7 46 161.8 46.8 C 153.3 47.2 165.8 69.4 165.8 69.4 C 165.8 69.4 154.3 49.1 146.6 49.5 C 160.7 76.3 155.7 87.1 155.7 87.1 C 155.7 87.1 158 64.2 138.9 51.5 C 146.2 58 134.3 87.1 134.3 87.1 C 134.3 87.1 144.7 44.2 126.6 52.4 C 123.7 53.7 126.4 73.8 126.4 73.8 C 126.4 73.8 122.8 50.8 117.3 52 C 114.1 52.7 97.1 83.9 97.1 83.9 C 97.1 83.9 111 50.2 106.8 51.6 C 103.7 52.6 97.9 66.5 97.9 66.5 C 97.9 66.5 100.7 52.8 97.9 52 C 95.1 51.2 79.3 66.5 79.3 66.5 C 79.3 66.5 91 52.8 89 49.9 C 85.9 45.6 82.4 45.4 78.1 47.1 C 71.9 49.5 63.6 60.8 63.6 60.8 C 63.6 60.8 71.9 49.3 70.5 45.1 C 68.2 38.2 44.3 58.4 44.3 58.4 C 44.3 58.4 58.4 45.1 55.2 42.2 C 52 39.4 34.4 40.2 29 40.2 C 12.9 40.4 7.3 36.6 2.4 32.7" fill="#373535" fill-opacity=".35"/>
        </g>
        <g id="Graphic_4">
          <path d="M 1.5 30.3 C 22.7 40.9 42.1 28.7 66.5 35.6 C 85.1 40.8 107.7 47.3 138.4 42.8 C 169.1 38.4 195.3 25 207.9 1.2 C 211.8 -9.4 227.7 3.6 227.7 3.6 C 227.7 3.6 216.1 -1.2 216.4 1 C 216.7 3.3 233.8 11.2 233.8 11.2 C 233.8 11.2 218.3 6.4 219.3 10 C 220.2 13.6 238.7 28.2 238.7 28.2 C 238.7 28.2 217.8 12.3 216.1 14.5 C 214.4 16.7 225 25.4 225 25.4 C 225 25.4 207.4 14.5 201.2 17.7 C 196.7 20 219.5 34.9 219.5 34.9 C 219.5 34.9 204.7 23.6 201.2 26.6 C 197.7 29.6 217.9 53.8 217.9 53.8 C 217.9 53.8 195 29 192.7 30.2 C 190.4 31.4 199 43.3 199 43.3 C 199 43.3 187.6 31 184.5 33.1 C 181.4 35.3 200.6 67.4 200.6 67.4 C 200.6 67.4 179.7 34.4 171.1 39.9 C 184.7 69.7 179.6 73.9 179.6 73.9 C 179.6 73.9 177.9 43.6 161 44.4 C 152.5 44.8 165 67 165 67 C 165 67 153.6 46.8 145.9 47.2 C 160 74 155 84.8 155 84.8 C 155 84.8 157.3 61.9 138.2 49.2 C 145.5 55.7 133.6 84.8 133.6 84.8 C 133.6 84.8 144 41.9 125.9 50.1 C 123 51.4 125.7 71.5 125.7 71.5 C 125.7 71.5 122.1 48.5 116.6 49.7 C 113.4 50.4 96.4 81.6 96.4 81.6 C 96.4 81.6 110.3 47.9 106.1 49.3 C 103 50.3 97.2 64.2 97.2 64.2 C 97.2 64.2 100 50.5 97.2 49.7 C 94.4 48.9 78.6 64.2 78.6 64.2 C 78.6 64.2 90.3 50.5 88.3 47.6 C 85.2 43.3 81.7 43.1 77.4 44.8 C 71.2 47.2 62.9 58.5 62.9 58.5 C 62.9 58.5 71.2 47 69.8 42.8 C 67.5 35.9 43.6 56.1 43.6 56.1 C 43.6 56.1 57.7 42.8 54.5 39.9 C 51.3 37.1 33.7 37.9 28.3 37.9 C 12 38 6.4 34.2 1.5 30.3" fill="#373535"/>
        </g>
      </g>
    </g>
  </g>
</svg>
