<?xml version="1.0" encoding="utf-8"?>
<!-- Generator: Adobe Illustrator 26.0.3, SVG Export Plug-In . SVG Version: 6.00 Build 0)  -->
<svg version="1.0" id="katman_1" xmlns="http://www.w3.org/2000/svg" xmlns:xlink="http://www.w3.org/1999/xlink" x="0px" y="0px"
	 viewBox="0 0 600 450" style="enable-background:new 0 0 600 450;" xml:space="preserve">
<style type="text/css">
	.st0{fill:#E52421;}
	.st1{fill:#FFCC03;}
	.st2{fill:#221F20;}
</style>
<g>
	<g>
		<polygon class="st0" points="72.8,250.9 81.3,250.9 81.3,259.5 72.8,259.5 		"/>
		<path class="st1" d="M132.4,191.3v68.2h-8.5v-68.2H132.4z M115.4,191.3v68.2h-8.5v-68.2H115.4z M149.5,219v12.8H141V219H149.5z
			 M98.3,191.3v68.2h-8.5v-68.2H98.3z M81.3,191.3v59.7h-8.5v-59.7H81.3z"/>
	</g>
	<path class="st2" d="M478.2,214.3c2.2,0,4.4,0.2,6.5,0.6c1.5,0.3,3,0.8,4.4,1.4l-1.5,5.1c-1.2-0.6-2.4-1.1-3.7-1.5
		c-1.8-0.6-3.7-0.9-5.5-0.8c-2-0.1-3.9,0.3-5.7,1.1c-1.5,0.8-2.3,2.3-2.1,4c0,0.8,0.2,1.6,0.7,2.2c0.5,0.6,1.1,1.2,1.8,1.6
		c0.8,0.5,1.7,0.9,2.6,1.2l3.1,0.9l4.2,1.4c1.3,0.5,2.6,1.2,3.8,2c2.5,1.8,3.9,4.7,3.7,7.7c0.1,1.8-0.3,3.6-1.2,5.1
		c-0.8,1.4-1.9,2.5-3.2,3.4c-1.4,0.9-2.9,1.6-4.5,2c-1.8,0.2-3.6,0.3-5.4,0.1c-1.6,0.1-3.1,0.1-4.7,0c-1.2-0.2-2.3-0.4-3.5-0.7
		c-0.9-0.2-1.8-0.5-2.7-0.9c-0.7-0.3-1.4-0.7-2.1-1.1l2-5.1c0.5,0.4,0.9,0.7,1.5,1c0.8,0.4,1.5,0.8,2.4,1.1c1,0.4,2.1,0.7,3.2,0.9
		c1.3,0.2,2.6,0.4,3.9,0.4c2.1,0.1,4.2-0.4,6-1.5c1.3-1,2.1-2.6,2-4.3c0.1-1.4-0.6-2.8-1.7-3.7c-1.8-1.2-3.7-2.1-5.8-2.6l-4.5-1.5
		c-1.4-0.5-2.6-1.1-3.8-2c-1.1-0.8-2-1.8-2.7-3c-0.7-1.4-1.1-3-1-4.5c-0.2-3,1.2-5.8,3.6-7.6C471.3,215,474.7,214.1,478.2,214.3z
		 M432.2,214.8v24.4c0,1.2,0.1,2.4,0.5,3.6c0.3,0.9,0.8,1.7,1.5,2.3c0.6,0.6,1.4,1,2.2,1.2c0.9,0.2,1.8,0.4,2.7,0.4
		c2.4,0.1,4.7-0.6,6.6-2c1.8-1.4,3.3-3.1,4.3-5.1v-24.8h6.2v36h-5.5l-0.6-6.5c-1,2.2-2.7,4-4.8,5.4c-2.4,1.5-5.2,2.2-8.1,2.1
		c-3.1,0.1-6-1-8.3-3.1c-2.3-2.6-3.4-6-3.1-9.5v-24.4H432.2z M215.7,201.2c2.2,0.6,4.3,1.4,6.3,2.4l-1.9,5.8
		c-1.8-1.2-3.7-2.1-5.7-2.9c-2.4-0.8-4.9-1.2-7.5-1.1c-4.7,0-9.2,1.9-12.3,5.5c-1.7,1.9-2.9,4.1-3.8,6.5c-1,2.9-1.5,5.9-1.4,8.9
		c0,2.9,0.4,5.9,1.3,8.7c0.8,2.4,2,4.5,3.6,6.4c1.5,1.7,3.4,3.1,5.5,4c2.3,0.9,4.7,1.4,7.2,1.4c2.3,0,4.5-0.3,6.6-1
		c2-0.7,4-1.6,5.9-2.7l1.8,4.4c-1.8,1.3-3.7,2.3-5.9,3c-2.8,1-5.8,1.4-8.8,1.4c-3.4,0-6.7-0.5-9.8-1.7c-2.9-1.2-5.6-2.9-7.7-5.1
		c-2.3-2.3-4.1-5-5.2-8c-2.5-7-2.5-14.7,0-21.7c2.3-6.1,7.3-10.9,13.5-13.2c3.2-1.2,6.6-1.8,10.1-1.7
		C210.3,200.2,213,200.5,215.7,201.2z M279.2,214.1c2,0,4,0.2,5.9,0.7c1.6,0.3,3,1,4.4,1.8l-2,5.4c-1.3-1-2.7-1.8-4.1-2.4
		c-1.5-0.6-3.2-0.9-4.8-0.8c-1.6,0-3.1,0.3-4.6,0.9c-1.5,0.6-2.8,1.5-3.8,2.7c-1.1,1.3-2,2.8-2.6,4.4c-0.7,2-1,4.1-1,6.2
		c-0.3,3.7,1,7.4,3.4,10.3c2.5,2.4,5.9,3.6,9.4,3.4c3-0.1,6-1,8.5-2.7l1.4,4.5c-1.4,1-3,1.8-4.6,2.3c-2,0.7-4,1-6.1,1.1
		c-2.4,0-4.9-0.4-7.2-1.3c-2.2-0.8-4.2-2.1-5.8-3.7c-1.7-1.7-3-3.7-3.9-5.9c-1.9-5.1-1.9-10.7,0-15.8c0.9-2.2,2.2-4.2,4-5.9
		c1.7-1.7,3.8-3,6.1-3.8C274.2,214.5,276.7,214.1,279.2,214.1z M400.1,214.1c2.3,0,4.7,0.4,6.8,1.3c2.1,0.8,4.1,2.1,5.7,3.7
		c1.7,1.7,3,3.7,3.9,5.9c1.9,5.2,1.9,10.9,0,16.1c-0.8,2.2-2.1,4.2-3.7,5.9c-1.6,1.6-3.6,2.8-5.7,3.7c-2.3,0.9-4.7,1.3-7.1,1.3
		c-2.3,0-4.6-0.4-6.8-1.3c-2.1-0.8-4-2.1-5.6-3.7c-1.7-1.7-3-3.7-3.8-5.9c-1.9-5.2-1.9-10.9,0-16.1c0.9-2.2,2.2-4.2,3.8-5.9
		c1.6-1.6,3.5-2.8,5.6-3.7C395.5,214.5,397.8,214.1,400.1,214.1z M512.9,213.9c2.3,0,4.6,0.4,6.7,1.3c1.9,0.8,3.6,2.1,4.9,3.8
		c1.4,1.8,2.3,3.9,2.6,6.2c0.5,2.8,0.5,5.7,0,8.5h-24.9c0.3,8.6,4.4,12.9,12.4,12.9c1.9,0,3.8-0.3,5.6-0.9c1.6-0.6,3.2-1.3,4.6-2.3
		l1.8,4.5c-1.5,1.2-3.3,2.2-5.2,2.7c-2.3,0.8-4.7,1.1-7.2,1.1c-5,0.3-9.9-1.6-13.5-5.1c-3.3-3.9-5-8.9-4.7-13.9
		c0-2.7,0.4-5.3,1.3-7.9c0.8-2.2,2-4.2,3.6-5.9c1.5-1.6,3.2-2.9,5.2-3.7C508.3,214.3,510.6,213.9,512.9,213.9z M235.7,198.8v52.2
		h-6.2v-52.2H235.7z M303.2,198.8v52.2h-6.3v-52.2H303.2z M325.7,214.8l-15,16.2l16,20.1h-7.3l-15.4-19.3l15.2-16.9H325.7z
		 M340.7,201v22.8h26.1V201h6.7v50.1h-6.7v-22.2h-26.1V251h-6.7v-50H340.7z M252.2,214.8v36h-6.2v-36H252.2z M400.1,218.8
		c-1.4,0-2.8,0.3-4.2,0.8c-1.4,0.5-2.6,1.4-3.6,2.5c-1.1,1.3-2,2.8-2.6,4.4c-0.7,2.1-1,4.3-0.9,6.5c-0.1,2.2,0.3,4.4,0.9,6.5
		c0.5,1.6,1.4,3.1,2.6,4.4c1,1.1,2.2,1.9,3.6,2.5c1.3,0.5,2.8,0.8,4.2,0.8c1.5,0,2.9-0.3,4.3-0.8c1.4-0.5,2.7-1.4,3.7-2.5
		c1.2-1.3,2.1-2.8,2.6-4.4c0.7-2.1,1-4.3,1-6.5c0.1-2.2-0.3-4.4-1-6.5c-0.6-1.6-1.5-3.1-2.6-4.4c-1-1.1-2.3-2-3.7-2.5
		C403,219,401.6,218.8,400.1,218.8z M513.1,218.4c-2.5,0-5,1-6.7,2.8c-2.1,2.3-3.3,5.2-3.6,8.3h18.7c0.5-2.9-0.2-6-1.9-8.4
		C517.9,219.3,515.5,218.3,513.1,218.4z M251.9,202.7c0.7,0.8,1.1,1.8,1.1,2.8c0,1-0.4,2-1.1,2.7c-0.8,0.7-1.8,1.1-2.8,1.1
		c-1.1,0.1-2.1-0.3-2.9-1c-0.8-0.7-1.2-1.7-1.1-2.8c0-1,0.3-2.1,1-2.8C247.8,201.2,250.3,201.2,251.9,202.7z"/>
</g>
</svg>
