<?xml version="1.0" encoding="UTF-8" standalone="no"?>
<!DOCTYPE svg PUBLIC "-//W3C//DTD SVG 1.1//EN" "http://www.w3.org/Graphics/SVG/1.1/DTD/svg11.dtd">
<svg xmlns:xl="http://www.w3.org/1999/xlink" version="1.1" xmlns="http://www.w3.org/2000/svg" xmlns:dc="http://purl.org/dc/elements/1.1/" viewBox="0 0 300 120" width="300" height="120">
  <defs/>
  <g id="Canvas_1" fill="none" stroke-dasharray="none" fill-opacity="1" stroke-opacity="1" stroke="none">
    <title>Canvas 1</title>
    <rect fill="white" x="0" y="0" width="300" height="120"/>
    <g id="Canvas_1_Layer_1">
      <title>Layer 1</title>
      <g id="Group_2">
        <title>g2068</title>
        <g id="Graphic_6">
          <title>path2076</title>
          <path d="M 28.071925 108.9378 C 23.056512 107.75576 18.52569 102.47697 17.614762 96.75432 C 17.088436 93.44783 17.668615 90.72682 19.53642 87.74187 C 20.096133 86.84738 28.955272 77.69035 40.24409 66.3379 C 51.773155 54.74384 60.384026 45.839455 60.96112 44.914696 C 62.13204 43.038363 63.34761 40.141385 63.65781 38.487853 C 63.78013 37.835854 64.04185 37.240373 64.23941 37.16456 C 64.66595 37.000883 75.84576 48.161106 77.93621 50.837366 C 81.79727 55.72932 82.309845 57.86436 82.33274 60.29942 C 82.31656 64.01124 80.7303 65.637376 78.88841 68.4084 C 77.63591 70.29272 41.368885 106.06681 39.307767 107.45108 C 38.570834 107.94601 37.26825 108.55872 36.41314 108.81266 C 34.710604 109.31826 29.986904 109.38913 28.071925 108.9378 Z" fill="#52c9a3"/>
        </g>
        <g id="Graphic_5">
          <title>path2074</title>
          <path d="M 30.872735 43.31961 C 21.268299 33.688782 20.029634 32.33312 19.188453 30.53167 C 16.594175 24.97584 17.66029 18.683506 21.877427 14.661038 C 22.873784 13.710675 24.383632 12.5811 25.232646 12.150873 C 29.511356 9.982687 35.421554 10.388365 39.396315 13.123074 C 40.153234 13.643848 43.80019 17.108656 47.50066 20.822648 C 53.325196 26.66847 54.37287 27.867555 55.301625 29.75104 C 57.249546 33.701345 57.035815 37.403765 54.58768 42.11852 C 53.672764 43.88052 52.46671 45.31475 48.623543 49.211025 C 44.20785 53.68774 43.714934 54.09481 42.711157 54.09369 C 41.68536 54.09245 40.9365 53.41102 30.872735 43.31961 Z" fill="#14a8c9"/>
        </g>
        <g id="Graphic_4">
          <title>path2072</title>
          <path d="M 8.67406 85.30607 L 8 84.58857 L 8 59.78423 L 8 34.979896 C 8 33.98084 9.608508 33.64448 10.501484 33.631775 C 11.492703 33.631775 12.459297 34.523313 24.199474 46.26611 C 35.22029 57.289385 36.831653 58.20528 36.83099 59.83049 C 36.83037 61.45564 35.22123 62.36994 24.196655 73.39206 C 12.275285 85.31077 11.499846 86.02357 10.455221 86.02357 C 9.698816 86.02357 9.134599 85.79629 8.67406 85.30607 Z" fill="#5369a9"/>
        </g>
        <g id="Graphic_3">
          <title>path2070</title>
          <path d="M 170.29057 80.00616 C 159.58797 77.5261 152.58095 67.67964 154.0211 57.143825 C 154.96334 50.25054 159.0271 44.6323 165.3304 41.508457 C 177.30554 35.57372 191.57661 41.962936 194.8232 54.7125 C 195.50176 57.37727 195.49801 62.3053 194.81544 64.93304 C 193.507 69.9701 189.87837 74.88555 185.58926 77.43107 C 181.34855 79.94787 174.79757 81.05054 170.29059 80.00616 Z M 179.15891 74.12711 C 185.32677 71.9498 189.35622 66.31616 189.35622 59.87011 C 189.35622 54.97444 187.31776 50.753685 183.56032 47.869346 C 181.02504 45.92318 178.69962 45.072705 175.36374 44.8716 C 169.19553 44.49974 163.86863 47.80922 161.0209 53.78247 C 160.10382 55.706074 160.0605 55.973424 160.06641 59.67267 C 160.07373 64.241476 160.60123 65.9531 162.9587 69.0572 C 166.72293 74.01359 173.48538 76.129925 179.15891 74.12711 Z M 276.0042 80.22175 C 273.84417 79.92275 270.92448 79.21617 269.26147 78.58997 L 267.4789 77.91875 L 267.4789 75.30593 C 267.4789 73.86888 267.54072 72.69312 267.61627 72.69312 C 267.69182 72.69312 268.98346 73.10514 270.48656 73.60873 C 279.40594 76.597 286.91908 75.154275 288.25396 70.19692 C 289.16252 66.82278 286.6347 64.32223 279.77732 61.81175 C 273.29998 59.4404 269.86818 57.196546 268.3465 54.337776 C 267.32003 52.409405 267.33253 48.11962 268.37135 45.80681 C 270.31953 41.469415 276.13166 38.853105 282.77192 39.324445 C 286.39083 39.581323 290.96117 40.65429 291.31952 41.33115 C 291.46975 41.6149 291.51872 42.865994 291.42834 44.11136 C 291.2891 46.029826 291.1877 46.3462 290.76435 46.18278 C 287.93 45.088693 285.37046 44.652607 281.7394 44.64513 C 278.1734 44.63778 277.75393 44.69898 276.4812 45.41218 C 274.6209 46.454643 273.6788 47.903834 273.68028 49.72067 C 273.68276 52.66244 275.34024 54.05466 281.6539 56.417836 C 289.4381 59.33143 292.73985 61.51638 294.17112 64.70122 C 294.76074 66.01322 294.90585 66.860635 294.90262 68.97299 C 294.89896 71.37557 294.8055 71.78112 293.84344 73.56921 C 292.05992 76.88405 288.86996 78.986025 284.15505 79.95321 C 281.94523 80.40652 278.2246 80.5291 276.0042 80.22175 Z M 112.85881 59.93858 L 112.9386 39.986993 L 120.84387 40.022806 C 127.8721 40.054644 129.0243 40.13223 131.22923 40.72214 C 138.38927 42.637736 142.97668 47.1419 144.72337 53.97141 C 145.55887 57.238174 145.55887 62.417175 144.72337 65.68394 C 142.98917 72.46461 138.08091 77.27694 131.06952 79.07094 C 129.54717 79.46047 127.08318 79.62233 120.91908 79.73775 L 112.77902 79.89016 Z M 128.32195 74.10728 C 132.38008 73.247096 136.16937 70.49437 137.8617 67.17714 C 140.04696 62.89367 139.96728 56.38064 137.67815 52.174764 C 135.86616 48.84553 131.76428 46.08205 127.6641 45.428195 C 125.46777 45.077945 119.95083 44.98847 119.16417 45.29034 C 118.72678 45.45818 118.6738 47.029747 118.6738 59.83501 C 118.6738 71.030135 118.75913 74.22593 119.06131 74.34787 C 119.90046 74.68647 126.38412 74.518025 128.32195 74.10728 Z M 206.85924 79.43585 C 206.77777 79.222715 206.74727 70.25953 206.79147 59.517664 L 206.87183 39.986993 L 214.6221 39.90081 C 219.04459 39.85163 223.29675 39.95669 224.52523 40.145486 C 229.85358 40.96436 233.313 43.868345 234.49233 48.512286 C 235.96955 54.329254 233.28673 59.77319 227.62446 62.44848 C 226.27904 63.08416 225.62936 63.569156 225.63325 63.934925 C 225.63644 64.233524 228.07777 67.82502 231.05844 71.91602 C 234.0391 76.00702 236.47784 79.45976 236.47784 79.588785 C 236.47784 79.8904 230.54141 79.887905 230.098 79.585995 C 229.52875 79.19855 217.16503 61.096 217.13267 60.60259 C 217.1084 60.232275 217.70196 60.098044 220.04728 59.943476 C 221.66708 59.83672 223.5504 59.515766 224.23242 59.23024 C 228.13453 57.59664 229.80243 53.15866 227.98288 49.25092 C 227.12647 47.41165 225.6434 46.162805 223.5771 45.54094 C 221.69738 44.975226 213.52942 44.92369 212.97904 45.47407 C 212.69874 45.754363 212.60702 50.03467 212.60702 62.834666 L 212.60702 79.82325 L 209.8072 79.82325 C 207.85301 79.82325 206.96263 79.70621 206.85924 79.43574 Z M 248.9535 59.90518 L 249.03327 39.986993 L 251.90087 39.897856 L 254.76847 39.80872 L 254.76847 59.81604 L 254.76847 79.82336 L 251.8211 79.82336 L 248.8737 79.82336 Z" fill="#232939"/>
        </g>
      </g>
    </g>
  </g>
</svg>
