<?xml version="1.0" encoding="UTF-8" standalone="no"?>
<svg
   xmlns:dc="http://purl.org/dc/elements/1.1/"
   xmlns:cc="http://creativecommons.org/ns#"
   xmlns:rdf="http://www.w3.org/1999/02/22-rdf-syntax-ns#"
   xmlns:svg="http://www.w3.org/2000/svg"
   xmlns="http://www.w3.org/2000/svg"
   xmlns:sodipodi="http://sodipodi.sourceforge.net/DTD/sodipodi-0.dtd"
   xmlns:inkscape="http://www.inkscape.org/namespaces/inkscape"
   version="1.1"
   id="Layer_1"
   x="0px"
   y="0px"
   width="952px"
   height="341px"
   viewBox="0 0 952 341"
   enable-background="new 0 0 952 341"
   xml:space="preserve"
   sodipodi:docname="doris.svg"
   inkscape:version="0.92.3 (2405546, 2018-03-11)"><metadata
   id="metadata1523"><rdf:RDF><cc:Work
       rdf:about=""><dc:format>image/svg+xml</dc:format><dc:type
         rdf:resource="http://purl.org/dc/dcmitype/StillImage" /></cc:Work></rdf:RDF></metadata><defs
   id="defs1521" /><sodipodi:namedview
   pagecolor="#ffffff"
   bordercolor="#666666"
   borderopacity="1"
   objecttolerance="10"
   gridtolerance="10"
   guidetolerance="10"
   inkscape:pageopacity="0"
   inkscape:pageshadow="2"
   inkscape:window-width="3726"
   inkscape:window-height="2049"
   id="namedview1519"
   showgrid="false"
   inkscape:zoom="1.3841642"
   inkscape:cx="230.0454"
   inkscape:cy="210.64227"
   inkscape:window-x="114"
   inkscape:window-y="55"
   inkscape:window-maximized="1"
   inkscape:current-layer="g2068" />  <g
   id="g2068"
   transform="translate(0.3069906,-1.406469)"><path
     style="fill:#52c9a3"
     d="M 78.745923,330.91433 C 62.567728,327.10142 47.952672,310.07364 45.014297,291.61412 43.31653,280.94838 45.18801,272.17125 51.212978,262.54269 53.018443,259.65736 81.595331,230.11957 118.00962,193.5 c 37.18926,-37.3989 64.96531,-66.12174 66.82684,-69.10473 3.77703,-6.05248 7.69808,-15.39725 8.69871,-20.73104 0.39455,-2.10315 1.23878,-4.023991 1.87606,-4.268538 1.37588,-0.527975 37.43854,35.471508 44.1817,44.104308 12.4546,15.77996 14.10802,22.66694 14.18187,30.52171 -0.0522,11.97319 -5.16898,17.21862 -11.11036,26.1571 -4.04017,6.07823 -121.02657,121.47458 -127.67511,125.9398 -2.37712,1.59649 -6.57886,3.57292 -9.33719,4.39205 -5.49186,1.63091 -20.729077,1.85951 -26.906217,0.40367 z"
     id="path2076"
     inkscape:connector-curvature="0"
     sodipodi:nodetypes="ssssccscccccs" /><path
     style="fill:#14a8c9"
     d="M 87.780485,119.25 C 56.799494,88.183887 52.80394,83.810928 50.090544,78 41.722192,60.078587 45.161157,39.781431 58.764358,26.806174 c 3.213942,-3.065582 8.084254,-6.709245 10.822914,-8.097029 13.801816,-6.993909 32.866318,-5.685313 45.687688,3.136025 2.44159,1.679858 14.20556,12.856276 26.14215,24.836484 18.78818,18.856845 22.16765,22.724726 25.16354,28.800272 6.2834,12.742484 5.59397,24.685364 -2.30296,39.893724 -2.95125,5.68368 -6.84162,10.31008 -19.2385,22.87827 -14.24369,14.44052 -15.83368,15.7536 -19.07156,15.75 -3.30891,-0.004 -5.72451,-2.20209 -38.187145,-34.75392 z"
     id="path2074"
     inkscape:connector-curvature="0"
     sodipodi:nodetypes="ssssssssscs" /><path
     style="fill:#5369a9"
     d="M 16.174314,254.68555 14,252.3711 V 172.35986 92.348628 C 14,89.125983 19.188558,88.040978 22.069025,88 c 3.197371,0 6.31531,2.875829 44.185548,40.75452 35.549797,35.55773 40.747567,38.51212 40.745427,43.75457 -0.002,5.24224 -5.1926,8.19149 -40.754519,43.74548 C 27.790769,254.70071 25.289439,257 21.919795,257 c -2.439931,0 -4.259923,-0.73315 -5.745481,-2.31445 z"
     id="path2072"
     inkscape:connector-curvature="0"
     sodipodi:nodetypes="cccscssssc" /><path
     style="fill:#232939"
     d="m 537.5,237.58964 c -34.52334,-7.99991 -57.12584,-39.76159 -52.48037,-73.74692 3.03939,-22.23565 16.14784,-40.35837 36.48037,-50.43494 38.62815,-19.143661 84.6623,1.46601 95.13478,42.59222 2.18884,8.59574 2.17676,24.49206 -0.025,32.96835 -4.22061,16.24803 -15.92549,32.10378 -29.76085,40.31486 -13.67924,8.11842 -34.81071,11.67529 -49.34888,8.30643 z m 28.60657,-18.96401 C 586.00219,211.60228 599,193.42987 599,172.63688 c 0,-15.79193 -6.57546,-29.40681 -18.69584,-38.71081 -8.17803,-6.27773 -15.67911,-9.02111 -26.43967,-9.66982 -19.89675,-1.1995 -37.07972,9.47587 -46.26563,28.74375 -2.95821,6.20497 -3.09795,7.06736 -3.07889,19 0.0236,14.73758 1.72516,20.25875 9.32965,30.27165 12.14225,15.9878 33.95586,22.81445 52.25695,16.35398 z M 878.5,238.28507 c -6.96758,-0.96446 -16.38563,-3.24368 -21.75,-5.26362 L 851,230.8563 v -8.42815 C 851,217.79267 851.1994,214 851.4431,214 c 0.24371,0 4.41012,1.32907 9.25868,2.95349 28.77121,9.63924 53.00631,4.98546 57.31221,-11.00545 2.93075,-10.88397 -5.22324,-18.94998 -27.34304,-27.04802 -20.89393,-7.64924 -31.96387,-14.88724 -36.8724,-24.10876 -3.31104,-6.22034 -3.2707,-20.05789 0.0802,-27.51831 6.28424,-13.99111 25.03239,-22.43053 46.45185,-20.91013 11.6735,0.82861 26.41603,4.28968 27.57198,6.47302 0.48459,0.91529 0.64255,4.95094 0.35102,8.96811 -0.44911,6.18839 -0.77624,7.20892 -2.14184,6.68178 -9.14279,-3.5292 -17.39905,-4.93588 -29.11177,-4.96 -11.50282,-0.0237 -12.8559,0.17371 -16.9613,2.47427 -6.00075,3.36267 -9.03972,8.03732 -9.03496,13.89788 0.008,9.48926 5.35453,13.98014 25.72049,21.60302 25.10951,9.39836 35.75991,16.44636 40.37674,26.71967 1.90192,4.23212 2.37001,6.96562 2.3596,13.77943 -0.0118,7.75 -0.3133,9.05818 -3.41661,14.82601 -5.75307,10.69267 -16.04292,17.473 -31.2518,20.59285 -7.12819,1.46223 -19.12982,1.85763 -26.29216,0.86621 z M 352.24261,172.85774 352.5,108.5 378,108.61552 c 22.67094,0.1027 26.38755,0.35297 33.5,2.25584 23.0961,6.17913 37.8937,20.7082 43.528,42.73812 2.69506,10.53758 2.69506,27.24346 0,37.78104 -5.59401,21.87238 -21.42656,37.3955 -44.04317,43.1824 -4.91065,1.25649 -12.85874,1.77862 -32.74222,2.15092 l -26.25738,0.49164 z m 49.87939,45.70391 c 13.0903,-2.77468 25.3134,-11.65413 30.77233,-22.35452 7.04899,-13.81716 6.79196,-34.82622 -0.59206,-48.39309 C 426.45732,137.07494 413.22591,128.1608 400,126.05166 c -7.08471,-1.1298 -24.88068,-1.41841 -27.41821,-0.44467 -1.41088,0.5414 -1.58179,5.61079 -1.58179,46.91667 0,36.11207 0.27526,46.42074 1.25,46.81406 2.70684,1.09223 23.62116,0.54888 29.872,-0.77607 z M 655.4594,235.75 c -0.2628,-0.6875 -0.36118,-29.6 -0.21861,-64.25 l 0.25921,-63 25,-0.278 c 14.26562,-0.15864 27.9818,0.18025 31.94451,0.78925 17.18763,2.64143 28.34668,12.00881 32.15083,26.98875 4.76505,18.76377 -3.8889,36.32424 -22.15365,44.95393 -4.33991,2.05051 -6.4356,3.61495 -6.42304,4.79481 0.0103,0.96319 7.88526,12.54826 17.5,25.74459 9.61474,13.19632 17.48135,24.33382 17.48135,24.75 0,0.97291 -19.14911,0.96487 -20.57943,-0.009 -1.83624,-1.24979 -41.71783,-59.6431 -41.8222,-61.23469 -0.0783,-1.19452 1.83635,-1.62751 9.40163,-2.1261 5.225,-0.34436 11.3,-1.37966 13.5,-2.30068 12.58701,-5.26949 17.96714,-19.58507 12.09784,-32.19025 -2.76252,-5.93293 -7.54643,-9.96132 -14.21168,-11.96727 -6.06343,-1.82482 -32.4108,-1.99106 -34.18616,-0.2157 -0.90414,0.90414 -1.2,14.71111 -1.2,56 v 54.8 h -9.03138 c -6.30361,0 -9.17571,-0.37754 -9.50922,-1.25 z m 135.78325,-63 0.25735,-64.25 9.25,-0.28753 9.25,-0.28752 V 172.46247 237 h -9.50735 -9.50735 z"
     id="path2070"
     inkscape:connector-curvature="0" /></g>
</svg>