<?xml version="1.0" encoding="iso-8859-1"?>
<!DOCTYPE svg PUBLIC "-//W3C//DTD SVG 1.1//EN" "http://www.w3.org/Graphics/SVG/1.1/DTD/svg11.dtd">
<!-- Uploaded to: SVG Repo, www.svgrepo.com, Generator: SVG Repo Mixer Tools -->
<svg fill="#000000"  version="1.1" xmlns="http://www.w3.org/2000/svg" xmlns:xlink="http://www.w3.org/1999/xlink"  width="800px"
	 height="800px" viewBox="0 0 512 512" enable-background="new 0 0 512 512" xml:space="preserve">

<g id="3e91140ac1bfb9903b91c1b0ca093231">

<path display="inline" d="M89.987,238.801h9.527v18.74h-9.527H80.46v-18.74H89.987z M302.234,229.629h28.486v-8.59h-28.486
		c-2.291,0-3.435-1.024-3.435-3.077v-13.525c0-2.052,1.144-3.077,3.435-3.077h28.486v-8.588h-28.486
		c-3.344,0-6.18,1.108-8.517,3.327s-3.51,4.999-3.51,8.338v13.527c0,3.34,1.173,6.117,3.51,8.336
		C296.055,228.521,298.891,229.629,302.234,229.629z M119.806,217.606h-14.459v12.022H96.76v-36.857h23.046v0.003h12.596
		c3.196,0,5.77,1.312,7.729,3.936c1.813,2.385,2.72,5.223,2.72,8.517c0,3.292-0.907,6.104-2.72,8.444
		c-1.958,2.624-4.533,3.936-7.729,3.936H119.806z M105.347,209.018h14.459v0.002h12.596c1.239,0,1.859-1.265,1.859-3.793
		c0-2.578-0.62-3.865-1.859-3.865h-12.596v-0.002h-14.459V209.018z M89.987,269.563H80.46h-8.142H19.243v-30.763H0.5v80.428h18.743
		v-30.923H80.46v30.923h9.527h0.002h9.525v-49.665h-9.525H89.987z M9.087,229.629H0.5v-25.479c0-3.1,0.967-5.771,2.898-8.014
		c1.932-2.243,4.425-3.364,7.479-3.364h12.201v0.003h12.133c3.102,0,5.616,1.12,7.55,3.361c1.932,2.244,2.898,4.916,2.898,8.016
		v25.478H37.07v-11.735H23.079v-0.002H15.76h-1.304H9.087V229.629z M9.087,209.304h5.369h1.304h7.321v0.003H37.07v-5.155
		c0-1.86-0.62-2.79-1.859-2.79H23.079v-0.002H10.877c-1.193,0-1.79,0.93-1.79,2.79V209.304z M395.303,269.563h-50.443
		c-2.604,0-3.9-1.976-3.9-5.93c0-4.063,1.297-6.093,3.9-6.093h69.34v-18.74h-69.34c-6.662,0-12.126,2.445-16.397,7.34
		c-4.267,4.895-6.399,10.723-6.399,17.493c0,6.766,2.079,12.492,6.246,17.175c4.37,4.998,9.889,7.497,16.551,7.497h50.443
		c2.603,0,3.908,2.034,3.908,6.093s-1.306,6.088-3.908,6.088h-69.34v18.742h69.34c6.666,0,12.185-2.499,16.559-7.498
		c4.059-4.79,6.089-10.563,6.089-17.332c0-6.771-2.03-12.547-6.089-17.333C407.487,272.067,401.969,269.563,395.303,269.563z
		 M425.76,319.229h85.582v-18.742h-66.84v-12.181h62.623v-18.742h-62.623v-12.022H511.5v-18.74h-85.74V319.229z M472.21,192.771
		v36.857h39.215v-8.587h-30.627v-5.583h28.697v-8.588h-28.697v-5.512H511.5v-8.588H472.21z M412.448,206.871h-22.045v-14.1h-8.587
		v36.857h8.587v-14.17h22.045v14.17h8.662v-36.857h-8.662V206.871z M207.898,297.052c0,6.038-1.926,11.141-5.778,15.303
		c-4.165,4.583-9.787,6.874-16.869,6.874h-27.563h-50.366v-49.507h18.742h5.063h26.561h26.159c2.707,0,4.059-2.029,4.059-6.093
		c0-4.059-1.352-6.09-4.059-6.09h-18.764h-7.395h-0.002v0.002h-31.624h-18.74v-18.742h50.364v0.002h0.002v-0.002h26.159
		c7.08,0,12.7,2.291,16.867,6.872c3.747,4.164,5.623,9.267,5.623,15.306c0,7.497-2.761,13.328-8.278,17.49
		C204.617,282.529,207.898,288.722,207.898,297.052z M189.312,294.398c0-4.059-1.351-6.093-4.061-6.093h-27.563h-31.624v12.181
		h31.624h27.563C187.96,300.486,189.312,298.457,189.312,294.398z M216.529,217.892h-6.279h-2.346h-5.366v11.737h-8.589v-25.479
		c0-3.1,0.967-5.771,2.9-8.014c1.93-2.243,4.425-3.364,7.479-3.364h12.201h12.13c3.103,0,5.618,1.121,7.55,3.364
		c1.932,2.244,2.898,4.914,2.898,8.016v25.478h-8.589v-11.735h-13.989V217.892z M216.529,209.304h13.991v-5.154
		c0-1.858-0.622-2.79-1.861-2.79h-12.13h-0.002h-12.201c-1.191,0-1.788,0.932-1.788,2.79v5.154h5.366h2.346H216.529z
		 M307.641,246.141c4.217,4.893,6.325,10.723,6.325,17.493v55.595h-18.742v-25.612H265.29h-0.599h-18.819h-11.713v25.612h-18.74
		v-55.6c0-6.766,2.108-12.596,6.325-17.49c4.215-4.895,9.656-7.34,16.32-7.34h26.627v0.002h26.473
		C297.935,238.801,303.424,241.246,307.641,246.141z M295.224,263.629c0-4.059-1.352-6.088-4.06-6.088h-26.473h-26.627
		c-2.604,0-3.905,2.029-3.905,6.088v11.245h11.713h18.819h0.599h29.934V263.629z">

</path>

</g>

</svg>