<?xml version="1.0" encoding="UTF-8" standalone="no"?>
<!DOCTYPE svg PUBLIC "-//W3C//DTD SVG 1.1//EN" "http://www.w3.org/Graphics/SVG/1.1/DTD/svg11.dtd">
<svg xmlns:xl="http://www.w3.org/1999/xlink" version="1.1" xmlns="http://www.w3.org/2000/svg" xmlns:dc="http://purl.org/dc/elements/1.1/" viewBox="0 0 260 128.6" width="260" height="128.6">
  <defs>
    <radialGradient cx="0" cy="0" r="1" id="Gradient" gradientUnits="userSpaceOnUse">
      <stop offset="0" stop-color="#25aae1"/>
      <stop offset="1" stop-color="#0e76bc"/>
    </radialGradient>
    <radialGradient id="Obj_Gradient" xl:href="#Gradient" gradientTransform="translate(89.71061 64.834445) scale(109.99768)"/>
  </defs>
  <g id="Canvas_1" fill="none" stroke-dasharray="none" fill-opacity="1" stroke-opacity="1" stroke="none">
    <title>Canvas 1</title>
    <rect fill="white" x="0" y="0" width="260" height="128.6"/>
    <g id="Canvas_1_Layer_1">
      <title>Layer 1</title>
      <g id="Group_18">
        <g id="Graphic_19">
          <path d="M 175.94 128.35 C 173.77 128.0973 171.967 127.5248 169.521 126.312 C 166.833 124.979 166.743 124.868 166.743 122.89 C 166.743 121.564 166.8368 121.167 167.1808 121.035 C 167.9148 120.7533 169.9108 122.0271 170.9738 123.456 C 171.9434 124.759 172.0528 124.821 175.3748 125.953 C 179.1598 127.243 179.7218 127.577 179.1888 128.219 C 178.8225 128.6603 178.6486 128.6674 175.9388 128.3519 Z M 158.74 118.476 L 157.219 117.064 L 157.219 114.114 C 157.219 112.492 157.3265 111.164 157.4579 111.164 C 157.5893 111.164 158.4227 112.345 159.3099 113.789 C 160.8549 116.303 160.9229 116.488 160.9229 118.155 C 160.9229 119.373 160.82364 119.894 160.5922 119.892 C 160.4103 119.89 159.5772 119.2526 158.7402 118.476 Z M 149.076 108.246 L 146.635 105.594 L 146.635 101.244 C 146.635 97.086 146.65974 96.88 147.1944 96.594 C 147.5307 96.414 148.2164 96.3639 148.9134 96.4684 C 150.1524 96.6542 151.0184 97.5104 151.5984 99.1234 C 151.8866 99.925 152.2479 109.9534 152.0107 110.5634 C 151.94028 110.7453 151.8004 110.8941 151.6998 110.8941 C 151.5992 110.8941 150.4188 109.7011 149.0758 108.2421 Z M 119.226 105.333 C 118.6276 105.2144 117.645 104.9848 117.043 104.8226 L 115.948 104.5278 L 115.948 63.4678 L 116.7238 63.623 C 117.1505 63.7083 118.4408 64.141 119.5908 64.5846 L 121.6818 65.391 L 121.8559 85.081 C 121.9516 95.911 121.9585 104.961 121.8711 105.191 C 121.6987 105.6402 120.977 105.6785 119.2261 105.3315 Z M 125.924 105.4394 C 125.8219 105.3373 125.7383 96.4244 125.7383 85.6294 L 125.7383 66.0094 L 126.4347 65.368 C 127.6707 64.23 128.1077 62.871 128.1137 60.147 C 128.1169 58.793 127.9852 57.151 127.821 56.499 C 127.6568 55.8469 127.5985 55.237 127.6915 55.144 C 127.9641 54.8714 129.4335 56.415 130.2475 57.83 C 130.6611 58.5486 131.1358 59.918 131.3025 60.873 C 131.6179 62.682 131.4633 63.816 130.3982 67.504 C 129.7574 69.723 129.8793 71.491 130.955 75.574 L 131.9309 79.278 L 132.02573 91.878 L 132.12057 104.478 L 130.97957 104.7542 C 130.35227 104.9061 129.30357 105.107 128.64857 105.2007 C 127.99377 105.2943 127.15457 105.4283 126.78357 105.4984 C 126.41277 105.5685 126.02577 105.5423 125.92367 105.4401 Z M 136.754 103.0934 C 136.5014 102.4352 136.5574 95.2114 136.81829 94.7994 C 137.00299 94.5079 137.20519 94.5291 137.93829 94.9169 C 138.43059 95.1771 139.54729 95.6399 140.42129 95.9449 L 142.00929 96.5002 L 142.08358 99.7302 C 142.12444 101.5062 142.0649 102.9692 141.95128 102.9802 C 141.83768 102.9911 141.08988 103.034 140.28928 103.0755 C 139.48868 103.117 138.40428 103.2373 137.87928 103.3427 C 137.11578 103.496 136.89008 103.4459 136.75528 103.0934 Z M 110.494 101.3844 C 109.6037 100.6732 108.443 99.5634 107.914 98.9184 L 106.9531 97.7454 L 106.9531 61.6854 L 107.7913 61.6854 C 109.0473 61.6854 112.0663 62.2426 112.4433 62.5441 C 112.7026 62.7514 112.774 67.1151 112.774 82.7541 C 112.774 98.5341 112.705 102.6941 112.4433 102.6841 C 112.2614 102.6791 111.3843 102.0933 110.4933 101.3821 Z M 64.624 94.2164 C 59.253 93.5648 54.224 92.0874 49.314 89.7204 C 45.621 87.9404 45.79 88.0384 34.594 81.1284 C 24.004 74.5914 19.904 72.1844 19.704 72.3864 C 19.4776 72.6128 20.793 75.2324 22.195 77.3474 C 24.029 80.1134 26.655 82.3684 29.88 83.9474 C 32.61 85.2834 33.633 86.1694 34.056 87.5624 C 34.3901 88.6614 33.83 88.9384 31.278 88.9384 C 28.581 88.9384 26.383 88.3537 24.474 87.1294 C 22.761 86.0304 21.755 84.9294 20.322 82.5884 C 17.249 77.5664 13.685 74.0064 7.632 69.9184 C 1.407 65.7104 .06 64.2744 .061 61.8454 C .06141 59.2004 2.27 55.8664 4.022 55.8664 C 4.4322 55.8664 7.906 57.0414 11.741 58.4774 C 21.733 62.2184 27.751 64.3334 28.391 64.3334 C 28.8864 64.3334 28.9365 64.2175 28.8193 63.3412 C 28.7463 62.7955 28.4323 61.4562 28.1215 60.3642 C 26.4535 54.5072 26.9145 47.9242 29.4195 41.8542 C 31.8515 35.9622 34.9205 32.4722 39.6895 30.1742 C 40.8985 29.5912 42.3345 28.7112 42.8805 28.2172 C 44.0975 27.1182 45.4725 24.4572 45.1165 23.8922 C 44.9777 23.6722 42.9825 23.0051 40.5195 22.3552 C 38.1265 21.7236 35.2335 20.9582 34.0905 20.6532 C 31.7965 20.0418 30.6945 20.1158 29.1395 20.9855 C 28.5621 21.3086 27.8455 21.4791 27.2875 21.4259 L 26.3774 21.3393 L 26.3925 19.2223 C 26.4104 16.7163 26.8489 15.6943 28.3245 14.7173 C 29.5725 13.8913 29.5575 13.8956 38.4145 11.8273 C 47.8295 9.6293 53.0945 8.1013 57.9445 6.1633 C 63.7395 3.8443 65.4435 3.5853 72.1745 3.9963 C 74.7835 4.1559 80.0135 4.5716 83.7945 4.9201 C 93.9345 5.8543 95.4245 5.9241 98.4745 5.6094 C 103.1655 5.1254 106.7235 3.9534 109.6845 1.9174 C 110.3401 1.4663 110.9445 1.0972 111.0275 1.0972 C 111.8155 1.0972 109.7985 3.6572 108.0775 4.8412 C 106.4505 5.9612 104.8375 6.5442 102.0185 7.0322 C 96.6555 7.9604 92.4865 8.2822 82.9985 8.5022 C 74.8325 8.6911 72.8185 8.8151 70.8285 9.2501 C 66.7775 10.137 62.3895 12.0811 60.9345 13.6331 C 60.2302 14.3846 60.2287 14.2747 61.0226 20.0151 C 62.2186 28.6651 61.0841 32.4251 53.9916 43.3151 C 52.8476 45.0721 51.9116 46.6801 51.9116 46.8871 C 51.91213 47.0943 52.4777 47.4869 53.1686 47.7596 C 56.6426 49.1316 61.3446 52.2006 67.6586 57.2196 C 72.3276 60.9286 77.1036 64.2106 78.8286 64.8966 C 79.9976 65.3605 80.8596 65.4961 82.5946 65.489 C 84.5846 65.481 85.1746 65.3529 87.7176 64.378 C 89.2976 63.772 90.6966 63.342 90.8266 63.4215 C 90.9587 63.5031 91.0619 69.1655 91.0619 76.3315 L 91.0619 89.0915 L 88.3499 89.3967 C 85.0279 89.7706 81.6079 90.7397 78.6279 92.1527 C 74.5609 94.0807 73.8019 94.2767 70.0279 94.3697 C 68.1359 94.4164 65.6949 94.3462 64.6039 94.2138 Z M 102.714 93.0174 C 101.9186 92.2058 100.952 91.3754 100.565 91.1714 C 98.92 90.3041 99.019 91.2751 99.019 75.9814 C 99.019 64.3214 99.0804 61.9614 99.3897 61.7014 C 99.627 61.5045 100.6027 61.4214 102.1017 61.4706 L 104.4427 61.5474 L 104.5108 78.0174 C 104.5483 87.0764 104.4847 94.4874 104.3695 94.4874 C 104.2543 94.4874 103.5092 93.8234 102.7135 93.0114 Z M 94.124 89.3724 L 92.007 89.0695 L 91.9384 76.2095 C 91.8803 65.3095 91.9277 63.2995 92.2484 63.0295 C 92.7678 62.5985 96.6874 61.8125 97.2464 62.0275 C 97.6678 62.1892 97.695 63.1705 97.6313 75.8975 L 97.5628 89.5975 L 96.9013 89.6358 C 96.5375 89.6569 95.2873 89.5378 94.1233 89.3712 Z" fill="url(#Obj_Gradient)"/>
        </g>
      </g>
      <g id="Group_13">
        <g id="Graphic_17">
          <path d="M 179.808 77.26 L 177.248 77.26 L 175.235 64.12 L 172.445 77.26 L 170 77.26 L 176.27 47.81 L 178.715 47.81 L 175.954 60.81 L 183.519 47.81 L 186.079 47.81 L 177.68 62.54 Z" fill="black"/>
        </g>
        <g id="Graphic_16">
          <path d="M 199.319 71.62 C 199.0122 73.07733 198.30287 74.40033 197.191 75.589 C 195.983 76.83567 194.65034 77.459 193.193 77.459 C 191.73567 77.459 190.64267 76.83567 189.914 75.589 C 189.31954 74.43833 189.1853 73.11533 189.5113 71.62 L 194.5733 47.8 L 197.0183 47.8 L 191.9563 71.62 C 191.76457 72.42533 191.80294 73.17333 192.0714 73.864 C 192.359 74.65 192.896 75.043 193.6824 75.043 C 194.4684 75.043 195.1684 74.65 195.7824 73.864 C 196.30014 73.2312 196.66447 72.4832 196.8754 71.62 L 201.9374 47.8 L 204.3824 47.8 Z" fill="black"/>
        </g>
        <g id="Graphic_15">
          <path d="M 217.908 71.36 C 217.6012 72.87467 216.89187 74.19767 215.78 75.329 C 214.572 76.61367 213.22 77.256 211.724 77.256 L 206.834 77.256 L 213.104 47.806 L 217.994 47.806 C 219.49 47.806 220.56367 48.448334 221.215 49.733 C 221.80947 50.864334 221.95327 52.187334 221.6464 53.702 Z M 215.463 71.36 L 219.202 53.7 C 219.3746 52.837334 219.33624 52.08 219.0869 51.428 C 218.7993 50.642 218.2623 50.249 217.4759 50.249 L 215.0309 50.249 L 209.7959 74.809 L 212.2409 74.809 C 213.0269 74.809 213.73624 74.416 214.3689 73.63 C 214.88664 72.9972 215.25097 72.23987 215.4619 71.358 Z" fill="black"/>
        </g>
        <g id="Graphic_14">
          <path d="M 236.268 71.62 C 235.9612 73.07733 235.25187 74.40033 234.14 75.589 C 232.932 76.83567 231.59934 77.459 230.142 77.459 C 228.68467 77.459 227.59167 76.83567 226.863 75.589 C 226.26854 74.43833 226.1343 73.11533 226.4603 71.62 L 231.5223 47.8 L 233.9673 47.8 L 228.9053 71.62 C 228.71357 72.42533 228.75194 73.17333 229.0204 73.864 C 229.308 74.65 229.845 75.043 230.6314 75.043 C 231.4178 75.043 232.1178 74.65 232.7314 73.864 C 233.24914 73.2312 233.61347 72.4832 233.8244 71.62 L 238.8864 47.8 L 241.3314 47.8 Z" fill="black"/>
        </g>
      </g>
      <g id="Group_6">
        <g id="Graphic_12">
          <path d="M 185.59682 39.6824 L 184.29682 39.6824 L 184.42822 37.1854 L 181.58022 37.1854 L 180.66022 39.6824 L 179.36022 39.6824 L 184.98222 24.7324 L 186.28222 24.7324 Z M 184.45782 35.9444 L 184.85212 28.3944 L 182.04812 35.9444 Z" fill="black"/>
        </g>
        <g id="Graphic_11">
          <path d="M 195.61082 29.8324 C 195.4453 30.581734 195.08996 31.2534 194.54482 31.8474 C 193.9315 32.499667 193.24516 32.8258 192.48582 32.8258 L 191.24482 32.8258 L 189.78482 39.6748 L 188.54382 39.6748 L 191.72782 24.7248 L 194.21082 24.7248 C 194.97016 24.7248 195.5155 25.050934 195.84682 25.7032 C 196.14862 26.2776 196.22162 26.949267 196.06582 27.7182 Z M 194.36982 29.8324 L 194.82252 27.7154 C 194.91012 27.277334 194.89065 26.892667 194.76411 26.5614 C 194.61811 26.162267 194.34551 25.9627 193.94631 25.9627 L 192.70531 25.9627 L 191.50831 31.5707 L 192.74931 31.5707 C 193.14845 31.5707 193.50878 31.371134 193.83031 30.972 C 194.10291 30.641 194.28301 30.261334 194.37061 29.833 Z" fill="black"/>
        </g>
        <g id="Graphic_10">
          <path d="M 202.39082 39.6824 L 201.09082 39.6824 L 201.22222 37.1854 L 198.37422 37.1854 L 197.45422 39.6824 L 196.15422 39.6824 L 201.77622 24.7324 L 203.07622 24.7324 Z M 201.25182 35.9444 L 201.64612 28.3944 L 198.84212 35.9444 Z" fill="black"/>
        </g>
        <g id="Graphic_9">
          <path d="M 210.90082 36.8224 C 210.74502 37.5624 210.3847 38.234067 209.81982 38.8374 C 209.2065 39.4702 208.52982 39.7866 207.78982 39.7866 C 207.04982 39.7866 206.49482 39.4702 206.12482 38.8374 C 205.82302 38.253267 205.7549 37.5816 205.92042 36.8224 L 207.87742 27.5934 C 208.04296 26.844067 208.3983 26.1724 208.94342 25.5784 C 209.5665 24.926134 210.25782 24.6 211.01742 24.6 C 211.76676 24.6 212.3071 24.926134 212.63842 25.5784 C 212.94022 26.182 213.01322 26.853667 212.85742 27.5934 L 212.40472 29.7104 L 211.16372 29.7104 L 211.61642 27.5934 C 211.70402 27.165067 211.68455 26.7854 211.55801 26.4544 C 211.41201 26.055267 211.13941 25.8557 210.74021 25.8557 C 210.34101 25.8557 209.98568 26.055267 209.67421 26.4544 C 209.39188 26.795134 209.20691 27.1748 209.11931 27.5934 L 207.16231 36.8224 C 207.06498 37.231267 207.08445 37.610934 207.22072 37.9614 C 207.36672 38.360534 207.63932 38.5601 208.03852 38.5601 C 208.43766 38.5601 208.793 38.360534 209.10452 37.9614 C 209.3674 37.640134 209.55236 37.260467 209.65942 36.8224 L 210.09752 34.7054 L 211.33852 34.7054 Z" fill="black"/>
        </g>
        <g id="Graphic_8">
          <path d="M 218.36082 39.6824 L 217.11982 39.6824 L 218.57982 32.8334 L 216.08282 32.8334 L 214.62282 39.6824 L 213.38182 39.6824 L 216.56582 24.7324 L 217.80682 24.7324 L 216.34682 31.5814 L 218.84382 31.5814 L 220.30382 24.7324 L 221.54482 24.7324 Z" fill="black"/>
        </g>
        <g id="Graphic_7">
          <path d="M 225.78082 39.6824 L 221.54582 39.6824 L 224.72982 24.7324 L 228.96482 24.7324 L 228.70192 25.9734 L 225.70792 25.9734 L 224.51092 31.5814 L 227.00792 31.5814 L 226.74502 32.8374 L 224.24802 32.8374 L 223.05102 38.4454 L 226.04502 38.4454 Z" fill="black"/>
        </g>
      </g>
      <g id="Group_3">
        <g id="Graphic_5">
          <path d="M 244.2415 48.766 L 244.6026 48.766 L 244.6026 46.304 L 245.448 46.304 L 245.448 46.0003 L 243.4 46.0003 L 243.4 46.304 L 244.2413 46.304 Z" fill="black"/>
        </g>
        <g id="Graphic_4">
          <path d="M 248.1515 48.766 L 248.5003 48.766 L 248.3279 46 L 247.8724 46 L 247.38 47.338 C 247.2569 47.6868 247.1584 47.9905 247.0886 48.2695 L 247.0763 48.2695 C 247.00653 47.9822 246.9122 47.6786 246.7972 47.338 L 246.3253 46 L 245.8698 46 L 245.6769 48.766 L 246.0175 48.766 L 246.09136 47.58 C 246.11598 47.1655 246.1365 46.7018 246.1447 46.357 L 246.1529 46.357 C 246.23088 46.6853 246.3417 47.0423 246.473 47.432 L 246.9203 48.749 L 247.1911 48.749 L 247.6794 47.407 C 247.8189 47.0295 247.9338 46.6806 248.0282 46.356 L 248.04052 46.356 C 248.03642 46.7007 248.06104 47.1644 248.08156 47.55 Z" fill="black"/>
        </g>
      </g>
    </g>
  </g>
</svg>
