<?xml version="1.0" encoding="UTF-8"?>
<svg inkscape:version="1.0.2 (e86c870879, 2021-01-15, custom)" sodipodi:docname="kudu.svg" version="1.1" viewBox="0 0 179.3 128.6" xmlns="http://www.w3.org/2000/svg" xmlns:cc="http://creativecommons.org/ns#" xmlns:dc="http://purl.org/dc/elements/1.1/" xmlns:inkscape="http://www.inkscape.org/namespaces/inkscape" xmlns:rdf="http://www.w3.org/1999/02/22-rdf-syntax-ns#" xmlns:sodipodi="http://sodipodi.sourceforge.net/DTD/sodipodi-0.dtd" xmlns:xlink="http://www.w3.org/1999/xlink">
 <defs>
  <radialGradient id="cvfa" cx="-146" cy="167.5" r="89.65" gradientTransform="matrix(.8535 -.5211 .5187 .8495 -109.9 -43.93)" gradientUnits="userSpaceOnUse" inkscape:collect="always">
   <stop style="stop-color:#25aae1" offset="0"/>
   <stop style="stop-color:#0e76bc" offset="1"/>
  </radialGradient>
 </defs>
 <sodipodi:namedview id="cvfb" bordercolor="#666666" borderopacity="1.0" fit-margin-bottom="0" fit-margin-left="0" fit-margin-right="0" fit-margin-top="0" inkscape:current-layer="layer1" inkscape:cx="-108.49536" inkscape:cy="409.04284" inkscape:document-rotation="0" inkscape:document-units="mm" inkscape:pageopacity="0.0" inkscape:pageshadow="2" inkscape:window-height="1014" inkscape:window-maximized="1" inkscape:window-width="1920" inkscape:window-x="0" inkscape:window-y="36" inkscape:zoom="0.49497475" pagecolor="#ffffff" showgrid="false"/>
 <title>Apache Kudu logo</title>
 <metadata>
  <rdf:RDF>
   <cc:Work rdf:about="">
    <dc:format>image/svg+xml</dc:format>
    <dc:type rdf:resource="http://purl.org/dc/dcmitype/StillImage"/>
    <dc:title/>
   </cc:Work>
  </rdf:RDF>
 </metadata>
 <g transform="translate(122.5 -31.27)" inkscape:groupmode="layer" inkscape:label="Layer 1">
  <g transform="translate(101.7 -77.78)">
   <path d="m-48.26 237.4c-2.17-.2527-3.973-.8252-6.419-2.038-2.688-1.333-2.778-1.444-2.778-3.422 0-1.326.0938-1.723.4378-1.855.734-.2817 2.73.9921 3.793 2.421.9696 1.303 1.079 1.365 4.401 2.497 3.785 1.29 4.347 1.624 3.814 2.266-.3663.4413-.5402.4484-3.25.1329zm-17.2-9.874-1.521-1.412v-2.95c0-1.622.1075-2.95.2389-2.95.1314 0 .9648 1.181 1.852 2.625 1.545 2.514 1.613 2.699 1.613 4.366 0 1.218-.09926 1.739-.3307 1.737-.1819-.002-1.015-.6394-1.852-1.416zm-9.664-10.23-2.441-2.652v-4.35c0-4.158.02474-4.364.5594-4.65.3363-.18 1.022-.2301 1.719-.1256 1.239.1858 2.105 1.042 2.685 2.655.2882.8016.6495 10.83.4123 11.44-.07042.1819-.2103.3307-.3109.3307s-1.281-1.193-2.624-2.652zm-29.85-2.913c-.5984-.1186-1.581-.3482-2.183-.5104l-1.095-.2948v-41.06l.7758.1552c.4267.0853 1.717.518 2.867.9616l2.091.8064.1741 19.69c.0957 10.83.1026 19.88.0152 20.11-.1724.4492-.8941.4875-2.645.1405zm6.698.1064c-.1021-.1021-.1857-9.015-.1857-19.81v-19.62l.6964-.6414c1.236-1.138 1.673-2.497 1.679-5.221.0032-1.354-.1285-2.996-.2927-3.648-.1642-.6521-.2225-1.262-.1295-1.355.2726-.2726 1.742 1.271 2.556 2.686.4136.7186.8883 2.088 1.055 3.043.3154 1.809.1608 2.943-.9043 6.631-.6408 2.219-.5189 3.987.5568 8.07l.9759 3.704.09483 12.6.09484 12.6-1.141.2762c-.6273.1519-1.676.3528-2.331.4465-.6548.0936-1.494.2276-1.865.2977-.3708.0701-.7578.0439-.8599-.0583zm10.83-2.346c-.2526-.6582-.1966-7.882.06429-8.294.1847-.2915.3869-.2703 1.12.1175.4923.2602 1.609.723 2.483 1.028l1.588.5553.07429 3.23c.04086 1.776-.01868 3.239-.1323 3.25-.1136.0109-.8614.0538-1.662.0953s-1.885.1618-2.41.2672c-.7635.1533-.9892.1032-1.124-.2493zm-26.26-1.709c-.8903-.7112-2.051-1.821-2.58-2.466l-.9609-1.173v-36.06h.8382c1.256 0 4.275.5572 4.652.8587.2593.2073.3307 4.571.3307 20.21 0 15.78-.069 19.94-.3307 19.93-.1819-.005-1.059-.5908-1.95-1.302zm-45.87-7.168c-5.371-.6516-10.4-2.129-15.31-4.496-3.693-1.78-3.524-1.682-14.72-8.592-10.59-6.537-14.69-8.944-14.89-8.742-.2264.2264 1.089 2.846 2.491 4.961 1.834 2.766 4.46 5.021 7.685 6.6 2.73 1.336 3.753 2.222 4.176 3.615.3341 1.099-.226 1.376-2.778 1.376-2.697 0-4.895-.5847-6.804-1.809-1.713-1.099-2.719-2.2-4.152-4.541-3.073-5.022-6.637-8.582-12.69-12.67-6.225-4.208-7.572-5.644-7.571-8.073.00041-2.645 2.209-5.979 3.961-5.979.4102 0 3.884 1.175 7.719 2.611 9.992 3.741 16.01 5.856 16.65 5.856.4954 0 .5455-.1159.4283-.9922-.073-.5457-.387-1.885-.6978-2.977-1.668-5.857-1.207-12.44 1.298-18.51 2.432-5.892 5.501-9.382 10.27-11.68 1.209-.583 2.645-1.463 3.191-1.957 1.217-1.099 2.592-3.76 2.236-4.325-.1388-.22-2.134-.8871-4.597-1.537-2.393-.6316-5.286-1.397-6.429-1.702-2.294-.6114-3.396-.5374-4.951.3323-.5774.3231-1.294.4936-1.852.4404l-.9101-.0866.0151-2.117c.0179-2.506.4564-3.528 1.932-4.505 1.248-.826 1.233-.8217 10.09-2.89 9.415-2.198 14.68-3.726 19.53-5.664 5.795-2.319 7.499-2.578 14.23-2.167 2.609.1596 7.839.5753 11.62.9238 10.14.9342 11.63 1.004 14.68.6893 4.691-.484 8.249-1.656 11.21-3.692.6556-.4511 1.26-.8202 1.343-.8202.788 0-1.229 2.56-2.95 3.744-1.627 1.12-3.24 1.703-6.059 2.191-5.363.9282-9.532 1.25-19.02 1.47-8.166.1889-10.18.3129-12.17.7479-4.051.8869-8.439 2.831-9.894 4.383-.7043.7515-.7058.6416.0881 6.382 1.196 8.65.0615 12.41-7.031 23.3-1.144 1.757-2.08 3.365-2.08 3.572.00053.2072.5661.5998 1.257.8725 3.474 1.372 8.176 4.441 14.49 9.46 4.669 3.709 9.445 6.991 11.17 7.677 1.169.4639 2.031.5995 3.766.5924 1.99-.008 2.58-.1361 5.123-1.111 1.58-.606 2.979-1.036 3.109-.9565.1321.0816.2353 5.744.2353 12.91v12.76l-2.712.3052c-3.322.3739-6.742 1.343-9.722 2.756-4.067 1.928-4.826 2.124-8.6 2.217-1.892.0467-4.333-.0235-5.424-.1559zm38.09-1.199c-.7954-.8116-1.762-1.642-2.149-1.846-1.645-.8673-1.546.1037-1.546-15.19 0-11.66.0614-14.02.3707-14.28.2373-.1969 1.213-.28 2.712-.2308l2.341.0768.0681 16.47c.0375 9.059-.0261 16.47-.1413 16.47-.1152 0-.8603-.664-1.656-1.476zm-8.59-3.645-2.117-.3029-.0686-12.86c-.0581-10.9-.0107-12.91.31-13.18.5194-.431 4.439-1.217 4.998-1.002.4214.1617.4486 1.143.3849 13.87l-.0685 13.7-.6615.0383c-.3638.0211-1.614-.098-2.778-.2646z" style="fill:url(#cvfa);stroke-width:.2646" inkscape:connector-curvature="0" sodipodi:nodetypes="csscssccccsscsccccsccccscccccccccsccccscccccsscscccccccccccccscscccsccccscscsccsscccscsccsssccsccccccccccssssscsssssccccccccccsccscccccscccssccccsccscccc"/>
  </g>
  <g>
   <path d="m-20.7 79h-2.56l-2.013-13.14-2.79 13.14h-2.445l6.27-29.45h2.445l-2.761 13 7.565-13h2.56l-8.399 14.73z" style="stroke-width:2.142px"/>
   <path d="m-1.189 73.36q-.4602 2.186-2.128 3.969-1.812 1.87-3.998 1.87-2.186 0-3.279-1.87-.8917-1.726-.4027-3.969l5.062-23.82h2.445l-5.062 23.82q-.2876 1.208.1151 2.244.4314 1.179 1.611 1.179 1.179 0 2.1-1.179.7766-.9492 1.093-2.244l5.062-23.82h2.445z" style="stroke-width:2.142px"/>
   <path d="m17.4 73.1q-.4602 2.272-2.128 3.969-1.812 1.927-4.056 1.927h-4.89l6.27-29.45h4.89q2.244 0 3.221 1.927.8917 1.697.4314 3.969zm-2.445 0 3.739-17.66q.2589-1.294-.1151-2.272-.4314-1.179-1.611-1.179h-2.445l-5.235 24.56h2.445q1.179 0 2.128-1.179.7766-.9492 1.093-2.272z" style="stroke-width:2.142px"/>
   <path d="m35.76 73.36q-.4602 2.186-2.128 3.969-1.812 1.87-3.998 1.87-2.186 0-3.279-1.87-.8917-1.726-.4027-3.969l5.062-23.82h2.445l-5.062 23.82q-.2876 1.208.1151 2.244.4314 1.179 1.611 1.179t2.1-1.179q.7766-.9492 1.093-2.244l5.062-23.82h2.445z" style="stroke-width:2.142px"/>
  </g>
  <g>
   <path d="m2.136 46.36h-1.3l.1314-2.497h-2.848l-.92 2.497h-1.3l5.622-14.95h1.3zm-1.139-3.738.3943-7.55-2.804 7.55z" style="stroke-width:1.088px"/>
   <path d="m12.15 36.51q-.2483 1.124-1.066 2.015-.92.9784-2.059.9784h-1.241l-1.46 6.849h-1.241l3.184-14.95h2.483q1.139 0 1.636.9784.4527.8616.219 2.015zm-1.241 0 .4527-2.117q.1314-.6571-.05841-1.154-.219-.5987-.8178-.5987h-1.241l-1.197 5.608h1.241q.5987 0 1.081-.5987.4089-.4965.5403-1.139z" style="stroke-width:1.088px"/>
   <path d="m18.93 46.36h-1.3l.1314-2.497h-2.848l-.92 2.497h-1.3l5.622-14.95h1.3zm-1.139-3.738.3943-7.55-2.804 7.55z" style="stroke-width:1.088px"/>
   <path d="m27.44 43.5q-.2337 1.11-1.081 2.015-.92.9492-2.03.9492t-1.665-.9492q-.4527-.8762-.2044-2.015l1.957-9.229q.2483-1.124 1.066-2.015.9346-.9784 2.074-.9784 1.124 0 1.621.9784.4527.9054.219 2.015l-.4527 2.117h-1.241l.4527-2.117q.1314-.6425-.05841-1.139-.219-.5987-.8178-.5987t-1.066.5987q-.4235.5111-.5549 1.139l-1.957 9.229q-.146.6133.05841 1.139.219.5987.8178.5987.5987 0 1.066-.5987.3943-.4819.5549-1.139l.4381-2.117h1.241z" style="stroke-width:1.088px"/>
   <path d="m34.9 46.36h-1.241l1.46-6.849h-2.497l-1.46 6.849h-1.241l3.184-14.95h1.241l-1.46 6.849h2.497l1.46-6.849h1.241z" style="stroke-width:1.088px"/>
   <path d="m42.32 46.36h-4.235l3.184-14.95h4.235l-.2629 1.241h-2.994l-1.197 5.608h2.497l-.2629 1.256h-2.497l-1.197 5.608h2.994z" style="stroke-width:1.088px"/>
  </g>
  <g>
   <path d="m42.94 52.3h.3611v-2.462h.8454v-.3037h-2.048v.3037h.8413z" style="stroke-width:.1492px"/>
   <path d="m46.85 52.3h.3488l-.1724-2.766h-.4555l-.4924 1.338c-.1231.3488-.2216.6525-.2914.9315h-.01231c-.06976-.2873-.1641-.5909-.2791-.9315l-.4719-1.338h-.4555l-.1929 2.766h.3406l.07387-1.186c.02462-.4145.04514-.8782.05335-1.223h.0082c.07797.3283.1888.6853.3201 1.075l.4473 1.317h.2708l.4883-1.342c.1395-.3775.2544-.7264.3488-1.051h.01231c-.0041.3447.02052.8084.04104 1.194z" style="stroke-width:.1492px"/>
  </g>
 </g>
</svg>
