<?xml version="1.0" encoding="utf-8"?>
<!-- Generator: Adobe Illustrator 19.0.0, SVG Export Plug-In . SVG Version: 6.00 Build 0)  -->
<svg version="1.1" id="layer" xmlns="http://www.w3.org/2000/svg" xmlns:xlink="http://www.w3.org/1999/xlink" x="0px" y="0px"
	 viewBox="-153 -46 652 652" style="enable-background:new -153 -46 652 652;" xml:space="preserve">
<style type="text/css">
	.st0{fill:#1EDCFF;}
	.st1{fill:#5B87DA;}
</style>
<path id="XMLID_15_" class="st0" d="M346.7,187c1.5,1.6,2.3,3.5,2.3,5.7c0,2.2-0.8,4.1-2.3,5.7c-1.5,1.6-3.4,2.3-5.5,2.3
	c-2.2,0-4-0.8-5.5-2.3c-1.5-1.6-2.3-3.5-2.3-5.7c0-2.2,0.8-4.1,2.3-5.7c1.5-1.6,3.4-2.4,5.5-2.4C343.3,184.7,345.2,185.4,346.7,187z
	 M365.3,208.5c-2.4,0-4.5,0.9-6.2,2.6c-1.7,1.8-2.6,3.9-2.6,6.4c0,2.5,0.9,4.6,2.6,6.4c1.7,1.8,3.8,2.6,6.2,2.6
	c2.4,0,4.5-0.9,6.2-2.6c1.7-1.8,2.6-3.9,2.6-6.4c0-2.5-0.9-4.6-2.6-6.4C369.8,209.4,367.7,208.5,365.3,208.5z M389.5,232.3
	c-2.7,0-5,1-6.9,2.9c-1.9,2-2.9,4.3-2.9,7.1c0,2.8,1,5.1,2.9,7.1c1.9,2,4.2,2.9,6.9,2.9s5-1,6.9-2.9c1.9-2,2.9-4.3,2.9-7.1
	c0-2.8-1-5.1-2.9-7.1C394.4,233.2,392.1,232.3,389.5,232.3z M417.7,256.9c-1.3-0.6-2.7-0.8-4.1-0.8c-1.4,0-2.8,0.3-4.1,0.8
	c-1.3,0.6-2.5,1.4-3.5,2.4c-1,1-1.8,2.2-2.3,3.6c-0.5,1.4-0.8,2.8-0.8,4.2c0,1.5,0.3,2.9,0.8,4.2c0.5,1.4,1.3,2.5,2.3,3.6
	c1,1,2.2,1.8,3.5,2.4c1.3,0.6,2.7,0.8,4.1,0.8c1.4,0,2.8-0.3,4.1-0.8c1.3-0.6,2.5-1.4,3.5-2.4c1-1,1.8-2.2,2.3-3.6
	c0.5-1.4,0.8-2.8,0.8-4.2s-0.3-2.9-0.8-4.2c-0.5-1.4-1.3-2.5-2.3-3.6C420.2,258.3,419,257.5,417.7,256.9z M442.2,280.8
	c-1.4-0.6-2.9-0.9-4.5-0.9c-1.6,0-3,0.3-4.5,0.9c-1.4,0.6-2.7,1.5-3.8,2.6c-1.1,1.1-1.9,2.4-2.5,3.9c-0.6,1.5-0.9,3-0.9,4.6
	s0.3,3.1,0.9,4.6c0.6,1.5,1.4,2.8,2.5,3.9c1.1,1.1,2.4,2,3.8,2.6c1.4,0.6,2.9,0.9,4.5,0.9c1.6,0,3-0.3,4.5-0.9
	c1.4-0.6,2.7-1.5,3.8-2.6c1.1-1.1,1.9-2.4,2.5-3.9c0.6-1.5,0.9-3,0.9-4.6c0-1.6-0.3-3.1-0.9-4.6c-0.6-1.5-1.4-2.8-2.5-3.9
	C444.9,282.3,443.7,281.4,442.2,280.8z"/>
<path id="XMLID_32_" d="M-113.4,332.7c3.9,3.2,10,6.2,17.3,6.2c15,0,18.2-12,18.2-30.4c0-18.4-2.8-30-17.3-30
	c-7.7,0-13.9,3.8-18.2,7.8V332.7z M-94.3,349.6c-8,0-15.4-3.3-19.1-6.5v33.3h-13V269.3h11l1.1,7.9c3.6-5.1,11.9-9.5,21-9.5
	c22.5,0,28.4,18.7,28.4,40.9C-65,333.3-73,349.6-94.3,349.6z M-10,280.4c-8.6,1.7-17.4,4.8-23.9,8.2v59.3h-13v-78.6h10.7l1.4,9.2
	c4.6-4.8,13.1-9.4,23.2-10.3L-10,280.4z M10.4,304h34.7v-2.9c0-14.6-4.5-23.5-17.1-23.5C13.6,277.7,10.5,288.3,10.4,304z
	 M10.4,314.4c0.8,16.6,4.8,24.6,20.4,24.6c8.2,0,16.7-2.1,22.5-4.4l2,10.1c-6.3,2.7-16.4,4.8-24.7,4.8c-27.6,0-33.2-19.3-33.2-41.4
	c0-22.7,7.3-40.4,30.7-40.4c20.8,0,29.5,15.1,29.5,33.9v12.8L10.4,314.4L10.4,314.4z M94.3,349.5c-7.7,0-17.6-1.7-24.2-5.2l2.5-10.5
	c5.9,2.9,14.4,4.9,21.1,4.9c10.2,0,15.6-2.9,15.6-11.7c0-8.4-5.6-10.9-15.9-13.5c-16.8-4.1-23.2-10.1-23.2-23.6
	c0-14.7,7.9-22.2,25.8-22.2c7.4,0,15.3,1.4,20.7,4l-2.2,10.6c-4.8-2.1-12.2-3.8-18.2-3.8c-9.7,0-13.4,2.7-13.4,10.6
	c0,8.2,3.7,9.8,14.7,12.8c15,4.1,24.4,9,24.4,24.1C122,342.5,110.2,349.5,94.3,349.5z M177.2,347.1c-3.2,1.3-10.8,2.4-15.7,2.4
	c-13.1,0-18.7-7.5-18.7-19.7V280h-13.3v-10.8h13.3v-19.2l13-1.9v21.1h21.8l-1.1,10.8h-20.7v49.1c0,7.3,1.7,9.5,8.8,9.5
	c3.1,0,7.6-0.6,11.6-1.6L177.2,347.1z M220.1,278.4c-16.1,0-19.3,13.5-19.3,30.1c0,16.6,3.2,30.1,19.3,30.1
	c16.1,0,19.3-13.5,19.3-30.1C239.4,291.9,236.2,278.4,220.1,278.4z M220.1,349.5c-22.2,0-32.3-17.1-32.3-40.9
	c0-23.8,10-40.9,32.3-40.9c22.2,0,32.3,17.1,32.3,40.9C252.4,332.3,242.3,349.5,220.1,349.5z M297.7,187.8c1.3,1.4,2,3,2,5
	c0,1.9-0.7,3.6-2,5s-2.9,2.1-4.8,2.1c-1.9,0-3.5-0.7-4.8-2.1c-1.3-1.4-2-3-2-5c0-1.9,0.7-3.6,2-5c1.3-1.4,2.9-2.1,4.8-2.1
	C294.8,185.7,296.4,186.4,297.7,187.8z M317,209.5c-2.2,0-4,0.8-5.5,2.4c-1.5,1.6-2.3,3.5-2.3,5.7c0,2.2,0.8,4.1,2.3,5.7
	c1.5,1.6,3.4,2.4,5.5,2.4c2.2,0,4-0.8,5.5-2.4c1.5-1.6,2.3-3.5,2.3-5.7c0-2.2-0.8-4.1-2.3-5.7C321,210.2,319.2,209.5,317,209.5z
	 M341.2,233.3c-2.4,0-4.5,0.9-6.2,2.6c-1.7,1.8-2.6,3.9-2.6,6.4c0,2.5,0.9,4.6,2.6,6.4c1.7,1.8,3.8,2.6,6.2,2.6
	c2.4,0,4.5-0.9,6.2-2.6c1.7-1.8,2.6-3.9,2.6-6.4c0-2.5-0.9-4.6-2.6-6.4C345.7,234.2,343.6,233.3,341.2,233.3z M365.3,257.1
	c-2.7,0-5,1-6.9,2.9c-1.9,2-2.9,4.3-2.9,7.1c0,2.8,1,5.1,2.9,7.1c1.9,2,4.2,2.9,6.9,2.9s5-1,6.9-2.9c1.9-2,2.9-4.3,2.9-7.1
	c0-2.8-1-5.1-2.9-7.1C370.3,258.1,368,257.1,365.3,257.1z M393.6,281.7c-1.3-0.6-2.7-0.8-4.1-0.8c-1.4,0-2.8,0.3-4.1,0.8
	c-1.3,0.6-2.5,1.4-3.5,2.4c-1,1-1.8,2.2-2.3,3.6c-0.5,1.4-0.8,2.8-0.8,4.2c0,1.5,0.3,2.9,0.8,4.2c0.5,1.4,1.3,2.5,2.3,3.6
	c1,1,2.2,1.8,3.5,2.4c1.3,0.6,2.7,0.8,4.1,0.8c1.4,0,2.8-0.3,4.1-0.8c1.3-0.6,2.5-1.4,3.5-2.4c1-1,1.8-2.2,2.3-3.6
	c0.5-1.4,0.8-2.8,0.8-4.2c0-1.5-0.3-2.9-0.8-4.2c-0.5-1.4-1.3-2.5-2.3-3.6C396.1,283.1,394.9,282.3,393.6,281.7z M418.1,305.6
	c-1.4-0.6-2.9-0.9-4.5-0.9c-1.6,0-3,0.3-4.5,0.9c-1.4,0.6-2.7,1.5-3.8,2.6c-1.1,1.1-1.9,2.4-2.5,3.9c-0.6,1.5-0.9,3-0.9,4.6
	s0.3,3.1,0.9,4.6c0.6,1.5,1.4,2.8,2.5,3.9s2.4,2,3.8,2.6c1.4,0.6,2.9,0.9,4.5,0.9c1.6,0,3-0.3,4.5-0.9c1.4-0.6,2.7-1.5,3.8-2.6
	c1.1-1.1,1.9-2.4,2.5-3.9c0.6-1.5,0.9-3,0.9-4.6c0-1.6-0.3-3.1-0.9-4.6c-0.6-1.5-1.4-2.8-2.5-3.9C420.8,307,419.5,306.2,418.1,305.6
	z"/>
<path id="XMLID_21_" class="st1" d="M395.7,186.3c1.7,1.8,2.6,3.9,2.6,6.4c0,2.5-0.9,4.6-2.6,6.4c-1.7,1.8-3.8,2.6-6.2,2.6
	c-2.4,0-4.5-0.9-6.2-2.6c-1.7-1.8-2.6-3.9-2.6-6.4c0-2.5,0.9-4.6,2.6-6.4c1.7-1.8,3.8-2.6,6.2-2.6
	C391.9,183.7,393.9,184.5,395.7,186.3z M413.6,207.5c-2.7,0-5,1-6.9,2.9c-1.9,2-2.9,4.3-2.9,7.1c0,2.8,1,5.1,2.9,7.1
	c1.9,2,4.2,2.9,6.9,2.9c2.7,0,5-1,6.9-2.9c1.9-2,2.9-4.3,2.9-7.1c0-2.8-1-5.1-2.9-7.1C418.6,208.5,416.3,207.5,413.6,207.5z
	 M441.9,232.1c-1.3-0.6-2.7-0.8-4.1-0.8c-1.4,0-2.8,0.3-4.1,0.8c-1.3,0.6-2.5,1.4-3.5,2.4c-1,1-1.8,2.2-2.3,3.6
	c-0.5,1.4-0.8,2.8-0.8,4.2c0,1.5,0.3,2.9,0.8,4.2c0.5,1.4,1.3,2.5,2.3,3.6c1,1,2.2,1.8,3.5,2.4c1.3,0.6,2.7,0.8,4.1,0.8
	c1.4,0,2.8-0.3,4.1-0.8c1.3-0.6,2.5-1.4,3.5-2.4c1-1,1.8-2.2,2.3-3.6c0.5-1.4,0.8-2.8,0.8-4.2c0-1.5-0.3-2.9-0.8-4.2
	c-0.5-1.4-1.3-2.5-2.3-3.6C444.4,233.5,443.2,232.7,441.9,232.1z M466.4,256c-1.4-0.6-2.9-0.9-4.5-0.9c-1.6,0-3,0.3-4.5,0.9
	c-1.4,0.6-2.7,1.5-3.8,2.6c-1.1,1.1-1.9,2.4-2.5,3.9c-0.6,1.5-0.9,3-0.9,4.6c0,1.6,0.3,3.1,0.9,4.6c0.6,1.5,1.4,2.8,2.5,3.9
	c1.1,1.1,2.4,2,3.8,2.6c1.4,0.6,2.9,0.9,4.5,0.9c1.6,0,3-0.3,4.5-0.9c1.4-0.6,2.7-1.5,3.8-2.6c1.1-1.1,1.9-2.4,2.5-3.9
	c0.6-1.5,0.9-3,0.9-4.6c0-1.6-0.3-3.1-0.9-4.6s-1.4-2.8-2.5-3.9C469.1,257.5,467.8,256.6,466.4,256z M341.2,283.8
	c-2.2,0-4,0.8-5.5,2.3c-1.5,1.6-2.3,3.5-2.3,5.7c0,2.2,0.8,4.1,2.3,5.7c1.5,1.6,3.4,2.4,5.5,2.4c2.2,0,4-0.8,5.5-2.4
	c1.5-1.6,2.3-3.5,2.3-5.7c0-2.2-0.8-4.1-2.3-5.7S343.3,283.8,341.2,283.8z M317,308.6c-2.2,0-4,0.8-5.5,2.3
	c-1.5,1.6-2.3,3.5-2.3,5.7c0,2.2,0.8,4.1,2.3,5.7s3.4,2.4,5.5,2.4c2.2,0,4-0.8,5.5-2.4c1.5-1.6,2.3-3.5,2.3-5.7
	c0-2.2-0.8-4.1-2.3-5.7C321,309.4,319.2,308.6,317,308.6z M292.9,333.5c-2.2,0-4,0.8-5.5,2.3c-1.5,1.6-2.3,3.5-2.3,5.7
	c0,2.2,0.8,4.1,2.3,5.7c1.5,1.6,3.4,2.4,5.5,2.4c2.2,0,4-0.8,5.5-2.4c1.5-1.6,2.3-3.5,2.3-5.7c0-2.2-0.8-4.1-2.3-5.7
	C296.9,334.2,295,333.5,292.9,333.5z M341.2,333.4c-2.2,0-4,0.8-5.5,2.4s-2.3,3.5-2.3,5.7c0,2.2,0.8,4.1,2.3,5.7s3.4,2.4,5.5,2.3
	c2.2,0,4-0.8,5.5-2.3c1.5-1.6,2.3-3.5,2.3-5.7c0-2.2-0.8-4.1-2.3-5.7C345.2,334.2,343.3,333.4,341.2,333.4z M389.5,333.5
	c-2.2,0-4,0.8-5.5,2.3c-1.5,1.6-2.3,3.5-2.3,5.7c0,2.2,0.8,4.1,2.3,5.7c1.5,1.6,3.4,2.4,5.5,2.4c2.2,0,4-0.8,5.5-2.4
	c1.5-1.6,2.3-3.5,2.3-5.7c0-2.2-0.8-4.1-2.3-5.7C393.5,334.2,391.6,333.5,389.5,333.5z M365.3,308.6c-2.2,0-4,0.8-5.5,2.4
	c-1.5,1.6-2.3,3.5-2.3,5.7c0,2.2,0.8,4.1,2.3,5.7c1.5,1.6,3.4,2.3,5.5,2.3c2.2,0,4-0.8,5.5-2.3c1.5-1.6,2.3-3.5,2.3-5.7
	c0-2.2-0.8-4.1-2.3-5.7C369.3,309.4,367.5,308.6,365.3,308.6z"/>
</svg>
