<?xml version="1.0" encoding="UTF-8" standalone="no"?>
<!DOCTYPE svg PUBLIC "-//W3C//DTD SVG 1.1//EN" "http://www.w3.org/Graphics/SVG/1.1/DTD/svg11.dtd">
<svg xmlns:xl="http://www.w3.org/1999/xlink" version="1.1" xmlns="http://www.w3.org/2000/svg" xmlns:dc="http://purl.org/dc/elements/1.1/" viewBox="-153 -46 652 230" width="652" height="230">
  <defs/>
  <g id="Canvas_1" fill="none" stroke-dasharray="none" fill-opacity="1" stroke-opacity="1" stroke="none">
    <title>Canvas 1</title>
    <rect  x="-153" y="-46" width="652" height="230"/>
    <g id="Canvas_1_Layer_1">
      <title>Layer 1</title>
      <g id="Graphic_2">
        <title>XMLID_15_</title>
        <path d="M 340.1 -18.2 C 341.6 -16.6 342.4 -14.7 342.4 -12.5 C 342.4 -10.3 341.6 -8.4 340.1 -6.8 C 338.6 -5.2 336.7 -4.5 334.6 -4.5 C 332.4 -4.5 330.6 -5.3 329.1 -6.8 C 327.6 -8.4 326.8 -10.3 326.8 -12.5 C 326.8 -14.7 327.6 -16.6 329.1 -18.2 C 330.6 -19.8 332.5 -20.6 334.6 -20.6 C 336.7 -20.5 338.6 -19.8 340.1 -18.2 Z M 358.7 3.3 C 356.3 3.3 354.2 4.2 352.5 5.9 C 350.8 7.7 349.9 9.8 349.9 12.3 C 349.9 14.8 350.8 16.9 352.5 18.7 C 354.2 20.5 356.3 21.3 358.7 21.3 C 361.1 21.3 363.2 20.4 364.9 18.7 C 366.6 16.9 367.5 14.8 367.5 12.3 C 367.5 9.8 366.6 7.7 364.9 5.9 C 363.2 4.2 361.1 3.3 358.7 3.3 Z M 382.9 27.1 C 380.2 27.1 377.9 28.1 376 30 C 374.1 32 373.1 34.3 373.1 37.1 C 373.1 39.9 374.1 42.2 376 44.2 C 377.9 46.2 380.2 47.1 382.9 47.1 C 385.6 47.1 387.9 46.1 389.8 44.2 C 391.7 42.2 392.7 39.9 392.7 37.1 C 392.7 34.3 391.7 32 389.8 30 C 387.8 28 385.5 27.1 382.9 27.1 Z M 411.1 51.7 C 409.8 51.1 408.4 50.9 407 50.9 C 405.6 50.9 404.2 51.2 402.9 51.7 C 401.6 52.3 400.4 53.1 399.4 54.1 C 398.4 55.1 397.6 56.3 397.1 57.7 C 396.6 59.1 396.3 60.5 396.3 61.9 C 396.3 63.4 396.6 64.8 397.1 66.1 C 397.6 67.5 398.4 68.6 399.4 69.7 C 400.4 70.7 401.6 71.5 402.9 72.1 C 404.2 72.7 405.6 72.9 407 72.9 C 408.4 72.9 409.8 72.6 411.1 72.1 C 412.4 71.5 413.6 70.7 414.6 69.7 C 415.6 68.7 416.4 67.5 416.9 66.1 C 417.4 64.7 417.7 63.3 417.7 61.9 C 417.7 60.5 417.4 59 416.9 57.7 C 416.4 56.3 415.6 55.2 414.6 54.1 C 413.6 53.1 412.4 52.3 411.1 51.7 Z M 435.6 75.6 C 434.2 75 432.7 74.7 431.1 74.7 C 429.5 74.7 428.1 75 426.6 75.6 C 425.2 76.2 423.9 77.1 422.8 78.2 C 421.7 79.3 420.9 80.6 420.3 82.1 C 419.7 83.6 419.4 85.1 419.4 86.7 C 419.4 88.3 419.7 89.8 420.3 91.3 C 420.9 92.8 421.7 94.1 422.8 95.2 C 423.9 96.3 425.2 97.2 426.6 97.8 C 428 98.4 429.5 98.7 431.1 98.7 C 432.7 98.7 434.1 98.4 435.6 97.8 C 437 97.2 438.3 96.3 439.4 95.2 C 440.5 94.1 441.3 92.8 441.9 91.3 C 442.5 89.8 442.8 88.3 442.8 86.7 C 442.8 85.1 442.5 83.6 441.9 82.1 C 441.3 80.6 440.5 79.3 439.4 78.2 C 438.3 77.1 437.1 76.2 435.6 75.6 Z" fill="#1edcff"/>
      </g>
      <g id="Graphic_3">
        <title>XMLID_32_</title>
        <path d="M -120 127.5 C -116.1 130.7 -110 133.7 -102.7 133.7 C -87.7 133.7 -84.5 121.7 -84.5 103.3 C -84.5 84.9 -87.3 73.3 -101.8 73.3 C -109.5 73.3 -115.7 77.1 -120 81.1 Z M -100.9 144.4 C -108.9 144.4 -116.3 141.1 -120 137.9 L -120 171.2 L -133 171.2 L -133 64.1 L -122 64.1 L -120.9 72 C -117.3 66.9 -109 62.5 -99.9 62.5 C -77.4 62.5 -71.5 81.2 -71.5 103.4 C -71.6 128.1 -79.6 144.4 -100.9 144.4 Z M -16.6 75.2 C -25.2 76.9 -34 80 -40.5 83.4 L -40.5 142.7 L -53.5 142.7 L -53.5 64.1 L -42.8 64.1 L -41.4 73.3 C -36.8 68.5 -28.3 63.9 -18.2 63 Z M 3.8 98.8 L 38.5 98.8 L 38.5 95.9 C 38.5 81.3 34 72.4 21.4 72.4 C 7 72.5 3.9 83.1 3.8 98.8 Z M 3.8 109.2 C 4.6 125.8 8.6 133.8 24.2 133.8 C 32.4 133.8 40.9 131.7 46.7 129.4 L 48.7 139.5 C 42.4 142.2 32.3 144.3 24 144.3 C -3.6 144.3 -9.2 125 -9.2 102.9 C -9.2 80.2 -1.9 62.5 21.5 62.5 C 42.3 62.5 51 77.6 51 96.4 L 51 109.2 L 3.8 109.2 Z M 87.7 144.3 C 80 144.3 70.1 142.6 63.5 139.1 L 66 128.6 C 71.9 131.5 80.4 133.5 87.1 133.5 C 97.3 133.5 102.7 130.6 102.7 121.8 C 102.7 113.4 97.1 110.9 86.8 108.3 C 70 104.2 63.6 98.2 63.6 84.7 C 63.6 70 71.5 62.5 89.4 62.5 C 96.8 62.5 104.7 63.9 110.1 66.5 L 107.9 77.1 C 103.1 75 95.7 73.3 89.7 73.3 C 80 73.3 76.3 76 76.3 83.9 C 76.3 92.1 80 93.7 91 96.7 C 106 100.8 115.4 105.7 115.4 120.8 C 115.4 137.3 103.6 144.3 87.7 144.3 Z M 170.6 141.9 C 167.4 143.2 159.8 144.3 154.9 144.3 C 141.8 144.3 136.2 136.8 136.2 124.6 L 136.2 74.8 L 122.9 74.8 L 122.9 64 L 136.2 64 L 136.2 44.8 L 149.2 42.9 L 149.2 64 L 171 64 L 169.9 74.8 L 149.2 74.8 L 149.2 123.9 C 149.2 131.2 150.9 133.4 158 133.4 C 161.1 133.4 165.6 132.8 169.6 131.8 Z M 213.5 73.2 C 197.4 73.2 194.2 86.7 194.2 103.3 C 194.2 119.9 197.4 133.4 213.5 133.4 C 229.6 133.4 232.8 119.9 232.8 103.3 C 232.8 86.7 229.6 73.2 213.5 73.2 Z M 213.5 144.3 C 191.3 144.3 181.2 127.2 181.2 103.4 C 181.2 79.6 191.2 62.5 213.5 62.5 C 235.7 62.5 245.8 79.6 245.8 103.4 C 245.8 127.1 235.7 144.3 213.5 144.3 Z M 291.1 -17.4 C 292.4 -16 293.1 -14.4 293.1 -12.4 C 293.1 -10.5 292.4 -8.8 291.1 -7.4 C 289.8 -6 288.2 -5.3 286.3 -5.3 C 284.4 -5.3 282.8 -6 281.5 -7.4 C 280.2 -8.8 279.5 -10.4 279.5 -12.4 C 279.5 -14.3 280.2 -16 281.5 -17.4 C 282.8 -18.8 284.4 -19.5 286.3 -19.5 C 288.2 -19.5 289.8 -18.8 291.1 -17.4 Z M 310.4 4.3 C 308.2 4.3 306.4 5.1 304.9 6.7 C 303.4 8.3 302.6 10.2 302.6 12.4 C 302.6 14.6 303.4 16.5 304.9 18.1 C 306.4 19.7 308.3 20.5 310.4 20.5 C 312.6 20.5 314.4 19.7 315.9 18.1 C 317.4 16.5 318.2 14.6 318.2 12.4 C 318.2 10.2 317.4 8.3 315.9 6.7 C 314.4 5 312.6 4.3 310.4 4.3 Z M 334.6 28.1 C 332.2 28.1 330.1 29 328.4 30.7 C 326.7 32.5 325.8 34.6 325.8 37.1 C 325.8 39.6 326.7 41.7 328.4 43.5 C 330.1 45.3 332.2 46.1 334.6 46.1 C 337 46.1 339.1 45.2 340.8 43.5 C 342.5 41.7 343.4 39.6 343.4 37.1 C 343.4 34.6 342.5 32.5 340.8 30.7 C 339.1 29 337 28.1 334.6 28.1 Z M 358.7 51.9 C 356 51.9 353.7 52.9 351.8 54.8 C 349.9 56.8 348.9 59.1 348.9 61.9 C 348.9 64.7 349.9 67 351.8 69 C 353.7 71 356 71.9 358.7 71.9 C 361.4 71.9 363.7 70.9 365.6 69 C 367.5 67 368.5 64.7 368.5 61.9 C 368.5 59.1 367.5 56.8 365.6 54.8 C 363.7 52.9 361.4 51.9 358.7 51.9 Z M 387 76.5 C 385.7 75.9 384.3 75.7 382.9 75.7 C 381.5 75.7 380.1 76 378.8 76.5 C 377.5 77.1 376.3 77.9 375.3 78.9 C 374.3 79.9 373.5 81.1 373 82.5 C 372.5 83.9 372.2 85.3 372.2 86.7 C 372.2 88.2 372.5 89.6 373 90.9 C 373.5 92.3 374.3 93.4 375.3 94.5 C 376.3 95.5 377.5 96.3 378.8 96.9 C 380.1 97.5 381.5 97.7 382.9 97.7 C 384.3 97.7 385.7 97.4 387 96.9 C 388.3 96.3 389.5 95.5 390.5 94.5 C 391.5 93.5 392.3 92.3 392.8 90.9 C 393.3 89.5 393.6 88.1 393.6 86.7 C 393.6 85.2 393.3 83.8 392.8 82.5 C 392.3 81.1 391.5 80 390.5 78.9 C 389.5 77.9 388.3 77.1 387 76.5 Z M 411.5 100.4 C 410.1 99.8 408.6 99.5 407 99.5 C 405.4 99.5 404 99.8 402.5 100.4 C 401.1 101 399.8 101.9 398.7 103 C 397.6 104.1 396.8 105.4 396.2 106.9 C 395.6 108.4 395.3 109.9 395.3 111.5 C 395.3 113.1 395.6 114.6 396.2 116.1 C 396.8 117.6 397.6 118.9 398.7 120 C 399.8 121.1 401.1 122 402.5 122.6 C 403.9 123.2 405.4 123.5 407 123.5 C 408.6 123.5 410 123.2 411.5 122.6 C 412.9 122 414.2 121.1 415.3 120 C 416.4 118.9 417.2 117.6 417.8 116.1 C 418.4 114.6 418.7 113.1 418.7 111.5 C 418.7 109.9 418.4 108.4 417.8 106.9 C 417.2 105.4 416.4 104.1 415.3 103 C 414.2 101.8 412.9 101 411.5 100.4 Z" fill="#808080"/>
      </g>
      <g id="Graphic_4">
        <title>XMLID_21_</title>
        <path d="M 389.1 -18.9 C 390.8 -17.1 391.7 -15 391.7 -12.5 C 391.7 -10 390.8 -7.9 389.1 -6.1 C 387.4 -4.3 385.3 -3.5 382.9 -3.5 C 380.5 -3.5 378.4 -4.4 376.7 -6.1 C 375 -7.9 374.1 -10 374.1 -12.5 C 374.1 -15 375 -17.1 376.7 -18.9 C 378.4 -20.7 380.5 -21.5 382.9 -21.5 C 385.3 -21.5 387.3 -20.7 389.1 -18.9 Z M 407 2.3 C 404.3 2.3 402 3.3 400.1 5.2 C 398.2 7.2 397.2 9.5 397.2 12.3 C 397.2 15.1 398.2 17.4 400.1 19.4 C 402 21.4 404.3 22.3 407 22.3 C 409.7 22.3 412 21.3 413.9 19.4 C 415.8 17.4 416.8 15.1 416.8 12.3 C 416.8 9.5 415.8 7.2 413.9 5.2 C 412 3.3 409.7 2.3 407 2.3 Z M 435.3 26.9 C 434 26.3 432.6 26.1 431.2 26.1 C 429.8 26.1 428.4 26.4 427.1 26.9 C 425.8 27.5 424.6 28.3 423.6 29.3 C 422.6 30.3 421.8 31.5 421.3 32.9 C 420.8 34.3 420.5 35.7 420.5 37.1 C 420.5 38.6 420.8 40 421.3 41.3 C 421.8 42.7 422.6 43.8 423.6 44.9 C 424.6 45.9 425.8 46.7 427.1 47.3 C 428.4 47.9 429.8 48.1 431.2 48.1 C 432.6 48.1 434 47.8 435.3 47.3 C 436.6 46.7 437.8 45.9 438.8 44.9 C 439.8 43.9 440.6 42.7 441.1 41.3 C 441.6 39.9 441.9 38.5 441.9 37.1 C 441.9 35.6 441.6 34.2 441.1 32.9 C 440.6 31.5 439.8 30.4 438.8 29.3 C 437.8 28.3 436.6 27.5 435.3 26.9 Z M 459.8 50.8 C 458.4 50.2 456.9 49.9 455.3 49.9 C 453.7 49.9 452.3 50.2 450.8 50.8 C 449.4 51.4 448.1 52.3 447 53.4 C 445.9 54.5 445.1 55.8 444.5 57.3 C 443.9 58.8 443.6 60.3 443.6 61.9 C 443.6 63.5 443.9 65 444.5 66.5 C 445.1 68 445.9 69.3 447 70.4 C 448.1 71.5 449.4 72.4 450.8 73 C 452.2 73.6 453.7 73.9 455.3 73.9 C 456.9 73.9 458.3 73.6 459.8 73 C 461.2 72.4 462.5 71.5 463.6 70.4 C 464.7 69.3 465.5 68 466.1 66.5 C 466.7 65 467 63.5 467 61.9 C 467 60.3 466.7 58.8 466.1 57.3 C 465.5 55.8 464.7 54.5 463.6 53.4 C 462.5 52.3 461.2 51.4 459.8 50.8 Z M 334.6 78.6 C 332.4 78.6 330.6 79.4 329.1 80.9 C 327.6 82.5 326.8 84.4 326.8 86.6 C 326.8 88.8 327.6 90.7 329.1 92.3 C 330.6 93.9 332.5 94.7 334.6 94.7 C 336.8 94.7 338.6 93.9 340.1 92.3 C 341.6 90.7 342.4 88.8 342.4 86.6 C 342.4 84.4 341.6 82.5 340.1 80.9 C 338.6 79.3 336.7 78.6 334.6 78.6 Z M 310.4 103.4 C 308.2 103.4 306.4 104.2 304.9 105.7 C 303.4 107.3 302.6 109.2 302.6 111.4 C 302.6 113.6 303.4 115.5 304.9 117.1 C 306.4 118.7 308.3 119.5 310.4 119.5 C 312.6 119.5 314.4 118.7 315.9 117.1 C 317.4 115.5 318.2 113.6 318.2 111.4 C 318.2 109.2 317.4 107.3 315.9 105.7 C 314.4 104.2 312.6 103.4 310.4 103.4 Z M 286.3 128.3 C 284.1 128.3 282.3 129.1 280.8 130.6 C 279.3 132.2 278.5 134.1 278.5 136.3 C 278.5 138.5 279.3 140.4 280.8 142 C 282.3 143.6 284.2 144.4 286.3 144.4 C 288.5 144.4 290.3 143.6 291.8 142 C 293.3 140.4 294.1 138.5 294.1 136.3 C 294.1 134.1 293.3 132.2 291.8 130.6 C 290.3 129 288.4 128.3 286.3 128.3 Z M 334.6 128.2 C 332.4 128.2 330.6 129 329.1 130.6 C 327.6 132.2 326.8 134.1 326.8 136.3 C 326.8 138.5 327.6 140.4 329.1 142 C 330.6 143.6 332.5 144.4 334.6 144.3 C 336.8 144.3 338.6 143.5 340.1 142 C 341.6 140.4 342.4 138.5 342.4 136.3 C 342.4 134.1 341.6 132.2 340.1 130.6 C 338.6 129 336.7 128.2 334.6 128.2 Z M 382.9 128.3 C 380.7 128.3 378.9 129.1 377.4 130.6 C 375.9 132.2 375.1 134.1 375.1 136.3 C 375.1 138.5 375.9 140.4 377.4 142 C 378.9 143.6 380.8 144.4 382.9 144.4 C 385.1 144.4 386.9 143.6 388.4 142 C 389.9 140.4 390.7 138.5 390.7 136.3 C 390.7 134.1 389.9 132.2 388.4 130.6 C 386.9 129 385 128.3 382.9 128.3 Z M 358.7 103.4 C 356.5 103.4 354.7 104.2 353.2 105.8 C 351.7 107.4 350.9 109.3 350.9 111.5 C 350.9 113.7 351.7 115.6 353.2 117.2 C 354.7 118.8 356.6 119.5 358.7 119.5 C 360.9 119.5 362.7 118.7 364.2 117.2 C 365.7 115.6 366.5 113.7 366.5 111.5 C 366.5 109.3 365.7 107.4 364.2 105.8 C 362.7 104.2 360.9 103.4 358.7 103.4 Z" fill="#5b87da"/>
      </g>
    </g>
  </g>
</svg>
