<?xml version="1.0" encoding="UTF-8" standalone="no"?>
<!DOCTYPE svg PUBLIC "-//W3C//DTD SVG 1.1//EN" "http://www.w3.org/Graphics/SVG/1.1/DTD/svg11.dtd">
<svg xmlns:xl="http://www.w3.org/1999/xlink" version="1.1" xmlns="http://www.w3.org/2000/svg" xmlns:dc="http://purl.org/dc/elements/1.1/" viewBox="0 -18 256 256" width="256" height="256">
  <defs/>
  <g id="Canvas_1" fill="none" stroke-dasharray="none" fill-opacity="1" stroke-opacity="1" stroke="none">
    <title>Canvas 1</title>
    <rect fill="white" x="0" y="-18" width="256" height="256"/>
    <g id="Canvas_1_Layer_1">
      <title>Layer 1</title>
      <g id="Group_2">
        <g id="Graphic_13">
          <path d="M 245.9697 168.94326 C 232.30826 176.06448 161.53605 205.1634 146.46858 213.01763 C 131.4021 220.87388 123.03184 220.79788 111.12947 215.1077 C 99.2271 209.41752 23.912747 178.99557 10.346323 172.51137 C 3.5651114 169.27027 0 166.53518 0 163.9511 L 0 138.0753 C 0 138.0753 98.04906 116.72963 113.87856 111.05145 C 129.70705 105.37227 135.19922 105.16726 148.66965 110.10142 C 162.14107 115.03657 242.68658 129.56903 256 134.44518 C 256 134.44518 255.994 157.5559 255.994 159.95497 C 255.996 162.51305 252.9239 165.31914 245.9697 168.94326" fill="#912626"/>
        </g>
        <g id="Graphic_12">
          <path d="M 245.96492 143.22007 C 232.30394 150.33806 161.534 179.43803 146.46702 187.29202 C 131.40103 195.14902 123.03104 195.07202 111.12905 189.38202 C 99.22606 183.69603 23.915134 153.26906 10.349147 146.78806 C -3.2168405 140.30307 -3.5018403 135.84007 9.825147 130.62208 C 23.151134 125.40208 98.04906 96.01711 113.88005 90.33812 C 129.70803 84.66112 135.19903 84.45412 148.66901 89.39012 C 162.14 94.32411 232.48794 122.32509 245.79992 127.20008 C 259.1149 132.08108 259.6259 136.09907 245.96492 143.22007" fill="#c6302b"/>
        </g>
        <g id="Graphic_11">
          <path d="M 245.9697 127.07435 C 232.30826 134.19558 161.53605 163.29449 146.46858 171.15173 C 131.4021 179.00498 123.03184 178.92897 111.12947 173.2388 C 99.2261 167.55162 23.912747 137.12667 10.346323 130.64246 C 3.5651114 127.40136 0 124.66928 0 122.0852 L 0 96.20639 C 0 96.20639 98.04906 74.86172 113.87856 69.182545 C 129.70705 63.50437 135.19922 63.29836 148.66965 68.232515 C 162.14107 73.16767 242.68658 87.69712 256 92.57428 C 256 92.57428 255.994 115.685 255.994 118.08707 C 255.996 120.64415 252.9239 123.45024 245.9697 127.07435" fill="#912626"/>
        </g>
        <g id="Graphic_10">
          <path d="M 245.96492 101.35116 C 232.30394 108.47116 161.534 137.56913 146.46702 145.42612 C 131.40103 153.28011 123.03104 153.20311 111.12905 147.51312 C 99.22606 141.82712 23.915134 111.40115 10.349147 104.91916 C -3.2168405 98.43617 -3.5018403 93.97217 9.825147 88.75218 C 23.151134 83.53518 98.04906 54.14821 113.88005 48.470214 C 129.70803 42.79222 135.19903 42.58622 148.66901 47.521215 C 162.14 52.45521 232.48794 80.45418 245.79992 85.33118 C 259.1149 90.21017 259.6259 94.23017 245.96492 101.35016 L 245.96492 101.35116" fill="#c6302b"/>
        </g>
        <g id="Graphic_9">
          <path d="M 245.9697 83.65257 C 232.30826 90.77379 161.53605 119.8737 146.46858 127.73094 C 131.4021 135.58519 123.03184 135.50819 111.12947 129.81801 C 99.2261 124.13083 23.912747 93.70488 10.346323 87.22268 C 3.5651114 83.98058 0 81.24749 0 78.66541 L 0 52.7856 C 0 52.7856 98.04906 31.441935 113.87856 25.763757 C 129.70705 20.08458 135.19922 19.879573 148.66965 24.813728 C 162.14107 29.74888 242.68658 44.278336 256 49.15549 C 256 49.15549 255.994 72.26621 255.994 74.667285 C 255.996 77.222365 252.9239 80.02845 245.9697 83.65257" fill="#912626"/>
        </g>
        <g id="Graphic_8">
          <path d="M 245.96492 57.92939 C 232.30394 65.04938 161.534 94.14935 146.46702 102.00434 C 131.40103 109.85834 123.03104 109.78134 111.12905 104.09334 C 99.22706 98.40535 23.915134 67.98138 10.349147 61.49838 C -3.2168405 55.01539 -3.5018403 50.550394 9.825147 45.3314 C 23.151134 40.113404 98.04906 10.729432 113.88005 5.0494374 C 129.70803 -.62955715 135.19903 -.833557 148.66901 4.1014383 C 162.14 9.036434 232.48794 37.035407 245.79992 41.9124 C 259.1149 46.7884 259.6259 50.809394 245.96492 57.92939" fill="#c6302b"/>
        </g>
        <g id="Graphic_7">
          <path d="M 159.28298 32.757085 L 137.27392 35.042233 L 132.34642 46.89761 L 124.3876 33.66797 L 98.97315 31.383814 L 117.93699 24.54524 L 112.24744 14.047256 L 130.00174 20.991008 L 146.73997 15.510822 L 142.21631 26.366015 L 159.28298 32.757085" fill="white"/>
        </g>
        <g id="Graphic_6">
          <path d="M 131.03169 90.27473 L 89.9546 73.23783 L 148.81575 64.20341 L 131.03169 90.27473" fill="white"/>
        </g>
        <g id="Graphic_5">
          <path d="M 74.08161 39.346605 C 91.45687 39.346605 105.54183 44.806946 105.54183 51.541333 C 105.54183 58.27671 91.45687 63.73606 74.08161 63.73606 C 56.70735 63.73606 42.621395 58.27671 42.621395 51.541333 C 42.621395 44.806946 56.70735 39.346605 74.08161 39.346605" fill="white"/>
        </g>
        <g id="Graphic_4">
          <path d="M 185.29476 35.997767 L 220.1306 49.76422 L 185.32453 63.516775 L 185.29476 35.997767" fill="#621b1c"/>
        </g>
        <g id="Graphic_3">
          <path d="M 146.75485 51.242667 L 185.29476 35.997767 L 185.32453 63.516775 L 181.54605 64.995225 L 146.75485 51.242667" fill="#9a2928"/>
        </g>
      </g>
    </g>
  </g>
</svg>
