<?xml version="1.0" encoding="UTF-8" standalone="no"?>
<!DOCTYPE svg PUBLIC "-//W3C//DTD SVG 1.1//EN" "http://www.w3.org/Graphics/SVG/1.1/DTD/svg11.dtd">
<svg xmlns:xl="http://www.w3.org/1999/xlink" version="1.1" xmlns="http://www.w3.org/2000/svg" xmlns:dc="http://purl.org/dc/elements/1.1/" viewBox="0 0 180 105" width="180" height="105">
  <defs/>
  <g id="Canvas_1" fill="none" stroke-dasharray="none" fill-opacity="1" stroke-opacity="1" stroke="none">
    <title>Canvas 1</title>
    <rect x="0" y="0" width="180" height="105"/>
    <g id="Canvas_1_Layer_1">
      <title>Layer 1</title>
      <g id="Graphic_2">
        <path d="M 44.26964 41.3992 C 44.26964 43.24921 44.46964 44.74297 44.819644 45.83673 C 45.219647 46.936735 45.71965 48.13674 46.419654 49.43675 C 46.669656 49.8305 46.769656 50.230505 46.769656 50.58051 C 46.769656 51.08051 46.469655 51.580513 45.81965 52.080516 L 42.67588 54.17428 C 42.29591 54.44825 41.843906 54.60471 41.375873 54.62428 C 40.87587 54.62428 40.375867 54.37428 39.882114 53.92428 C 39.210713 53.2021 38.61005 52.41726 38.088353 51.580513 C 37.529644 50.621974 37.012495 49.63981 36.538343 48.636745 C 32.65082 53.224273 27.75704 55.51804 21.869503 55.51804 C 17.681977 55.51804 14.338207 54.32428 11.894442 51.930515 C 9.450677 49.5305 8.206919 46.34298 8.206919 42.349206 C 8.206919 38.11168 9.700678 34.66166 12.744447 32.074143 C 15.788216 29.480377 19.82574 28.18037 24.963272 28.18037 C 26.663283 28.18037 28.407043 28.33037 30.250805 28.58037 C 32.100816 28.830373 34.000828 29.230376 35.98834 29.68038 L 35.98834 26.036606 C 35.98834 22.242833 35.194585 19.599066 33.644576 18.055307 C 32.050816 16.505297 29.35705 15.761543 25.519526 15.761543 C 23.769515 15.761543 21.969504 15.955294 20.125742 16.405297 C 18.28198 16.8553 16.48197 17.405303 14.73821 18.105307 C 14.16966 18.359877 13.585076 18.577008 12.988198 18.755311 C 12.731145 18.83816 12.464226 18.8865 12.194443 18.899062 C 11.494439 18.899062 11.144437 18.39906 11.144437 17.355303 L 11.144437 14.911537 C 11.144437 14.111533 11.244438 13.511529 11.494439 13.161527 C 11.871978 12.707766 12.351787 12.350051 12.894448 12.11777 C 14.893279 11.125324 17.001377 10.370185 19.175736 9.867756 C 21.71962 9.216498 24.337476 8.899246 26.963284 8.924001 C 32.90082 8.924001 37.238348 10.274009 40.032115 12.967776 C 42.77588 15.655292 44.16964 19.749067 44.16964 25.2366 L 44.16964 41.3992 Z M 24.019516 48.98675 C 25.663276 48.98675 27.357037 48.686745 29.157048 48.08674 C 30.986644 47.454494 32.619608 46.3558 33.894577 44.89922 C 34.700397 43.97789 35.282226 42.882683 35.594588 41.6992 C 35.88834 40.505445 36.09459 39.055436 36.09459 37.361676 L 36.09459 35.267913 C 34.58045 34.898804 33.046777 34.61502 31.500812 34.417908 C 29.946076 34.220378 28.380516 34.12018 26.813283 34.117906 C 23.469513 34.117906 21.025748 34.76791 19.375738 36.11792 C 17.731978 37.461676 16.938223 39.35544 16.938223 41.849203 C 16.938223 44.19297 17.531976 45.94298 18.781984 47.136736 C 19.975741 48.386744 21.719502 48.98675 24.019516 48.98675 Z M 64.08226 54.37428 C 63.18226 54.37428 62.58225 54.22428 62.18225 53.87428 C 61.78225 53.574276 61.43225 52.87427 61.132245 51.930515 L 49.41342 13.361528 C 49.185463 12.714824 49.03442 12.043534 48.96342 11.361516 C 48.96342 10.561511 49.36342 10.111508 50.15718 10.111508 L 55.05096 10.111508 C 55.99471 10.111508 56.64472 10.267759 56.98847 10.611511 C 57.39472 10.911513 57.694724 11.611517 57.988475 12.561523 L 66.37603 45.586726 L 74.157325 12.561523 C 74.40733 11.561517 74.70733 10.911513 75.10108 10.611511 C 75.70074 10.243775 76.39893 10.069227 77.10109 10.111508 L 81.08862 10.111508 C 82.03862 10.111508 82.68863 10.267759 83.08863 10.611511 C 83.48238 10.911513 83.83863 11.611517 84.03239 12.561523 L 91.91368 45.98673 L 100.54499 12.561523 C 100.84499 11.561517 101.19499 10.911513 101.54499 10.611511 C 102.12394 10.243946 102.80431 10.06893 103.48876 10.111508 L 108.13253 10.111508 C 108.92629 10.111508 109.38254 10.51776 109.38254 11.361516 C 109.38254 11.611517 109.32629 11.861519 109.27629 12.16152 C 109.198 12.587995 109.08085 13.00641 108.92629 13.411528 L 96.90747 51.974266 C 96.60746 52.97427 96.25746 53.618026 95.85746 53.91803 C 95.29432 54.27932 94.63178 54.454246 93.9637 54.41803 L 89.66992 54.41803 C 88.72616 54.41803 88.07616 54.26803 87.66991 53.91803 C 87.27616 53.568025 86.92615 52.91802 86.7324 51.918015 L 78.994855 19.742817 L 71.30731 51.868015 C 71.05731 52.86802 70.76355 53.518025 70.3698 53.86803 C 69.96355 54.21803 69.263545 54.36803 68.36979 54.36803 Z M 128.18266 55.71804 C 125.58889 55.71804 122.99513 55.41804 120.50136 54.82428 C 118.0076 54.22428 116.06383 53.574276 114.76382 52.82427 C 113.96382 52.38052 113.42007 51.880515 113.22007 51.43051 C 113.02517 50.989335 112.92306 50.5128 112.92006 50.030504 L 112.92006 47.48674 C 112.92006 46.44298 113.32007 45.94298 114.06382 45.94298 C 114.36382 45.94298 114.66382 45.99298 114.96383 46.09298 C 115.26383 46.19298 115.71383 46.39298 116.21383 46.59298 C 117.9076 47.342987 119.75136 47.93674 121.70137 48.336743 C 123.69513 48.736746 125.63889 48.936747 127.6389 48.936747 C 130.77642 48.936747 133.22644 48.386744 134.9202 47.286737 C 136.57304 46.288143 137.56317 44.47966 137.51397 42.54921 C 137.55092 41.25184 137.067 39.99367 136.1702 39.055436 C 135.2702 38.11168 133.57019 37.261675 131.12643 36.46167 L 123.89513 34.211656 C 120.25136 33.0679 117.55759 31.37414 115.91383 29.130375 C 114.30505 27.059628 113.42609 24.51505 113.41382 21.89283 C 113.41382 19.799068 113.87007 17.955306 114.76382 16.355296 C 115.66383 14.761537 116.85759 13.361528 118.3576 12.267771 C 119.8576 11.117764 121.54512 10.267759 123.54513 9.674005 C 125.54514 9.074002 127.6389 8.824 129.83267 8.824 C 130.92642 8.824 132.07643 8.874 133.17644 9.024001 C 134.3202 9.174002 135.36395 9.374003 136.41396 9.574005 C 137.41396 9.824006 138.36397 10.074008 139.25773 10.36776 C 140.15773 10.667761 140.85774 10.967763 141.35774 11.267765 C 141.94673 11.564273 142.45989 11.991902 142.85775 12.517773 C 143.1799 13.00312 143.33564 13.58 143.3015 14.161533 L 143.3015 16.505297 C 143.3015 17.555304 142.9015 18.105307 142.1515 18.105307 C 141.48748 18.02917 140.84444 17.825434 140.25773 17.505303 C 137.24376 16.173865 133.97724 15.510755 130.68267 15.561541 C 127.8389 15.561541 125.58889 16.005294 124.04513 16.9553 C 122.49512 17.905306 121.70137 19.349065 121.70137 21.392827 C 121.70137 22.792836 122.20137 23.992843 123.20138 24.9366 C 124.19513 25.886605 126.0389 26.83661 128.68266 27.686616 L 135.7702 29.92413 C 139.35773 31.074137 141.95774 32.674147 143.5015 34.71791 C 145.04526 36.76167 145.79527 39.105436 145.79527 41.6992 C 145.79527 43.842966 145.34526 45.79298 144.5015 47.48674 C 143.61445 49.19462 142.37202 50.69279 140.85774 51.880515 C 139.30773 53.13052 137.46396 54.02428 135.3202 54.67428 C 133.07019 55.368037 130.73267 55.71804 128.18266 55.71804 Z M 137.61397 79.96819 C 121.20136 92.09326 97.35122 98.52455 76.85109 98.52455 C 48.113415 98.52455 22.225755 87.89949 2.6631348 70.23688 C 1.1193753 68.84312 2.513134 66.94311 4.3631453 68.043115 C 25.513275 80.31194 51.607186 87.74949 78.59485 87.74949 C 96.80746 87.74949 116.80759 83.95571 135.2202 76.174415 C 137.96397 74.92441 140.30773 77.96818 137.61397 79.96819 Z M 144.4515 72.18064 C 142.3515 69.49312 130.57642 70.88688 125.23889 71.53689 C 123.64513 71.73689 123.39513 70.33688 124.84514 69.28687 C 134.2202 62.70558 149.63904 64.59934 151.4328 66.79311 C 153.22656 69.04312 150.9328 84.45572 142.1515 91.83701 C 140.80774 92.98702 139.50773 92.38701 140.10773 90.89326 C 142.10774 85.95572 146.54527 74.83066 144.4515 72.18064 Z" fill="black"/>
      </g>
    </g>
  </g>
</svg>
