<?xml version="1.0" encoding="UTF-8" standalone="no"?>
<!DOCTYPE svg PUBLIC "-//W3C//DTD SVG 1.1//EN" "http://www.w3.org/Graphics/SVG/1.1/DTD/svg11.dtd">
<svg xmlns:xl="http://www.w3.org/1999/xlink" version="1.1" xmlns="http://www.w3.org/2000/svg" xmlns:dc="http://purl.org/dc/elements/1.1/" viewBox="0 -142 512 230" width="512" height="230">
  <defs>
    <linearGradient x1="0" x2="1" id="Gradient" gradientUnits="userSpaceOnUse">
      <stop offset="0" stop-color="#97d9f6"/>
      <stop offset=".920245" stop-color="#0f80cc"/>
      <stop offset="1" stop-color="#0f80cc"/>
    </linearGradient>
    <linearGradient id="Obj_Gradient" xl:href="#Gradient" gradientTransform="translate(79.10939 30.986233) rotate(-90) scale(156.03113)"/>
  </defs>
  <g id="Canvas_1" fill="none" stroke-dasharray="none" fill-opacity="1" stroke-opacity="1" stroke="none">
    <title>Canvas 1</title>
    <rect x="0" y="-142" width="512" height="230"/>
    <g id="Canvas_1_Layer_1">
      <title>Layer 1</title>
      <g id="Group_2">
        <g id="Graphic_6">
          <path d="M 194.74033 -27.955797 C 187.91956 -27.955797 182.37348 -25.936792 178.12155 -21.900548 C 173.86961 -17.86077 171.7127 -12.565551 171.7127 -6.0773374 C 171.7127 -2.7148554 172.2484 .35094957 173.30387 3.1602316 C 174.35934 5.9751706 176.00177 8.582906 178.20994 10.939238 C 180.41812 13.29769 184.838 16.50141 191.42541 20.574597 C 199.5085 25.50913 204.79823 29.513905 207.33702 32.64088 C 209.87757 35.76521 211.13812 39.039467 211.13812 42.453036 C 211.13812 47.023555 209.6336 50.67191 206.54144 53.41436 C 203.44398 56.15806 199.30166 57.52486 194.16575 57.52486 C 188.74873 57.52486 184.03006 55.615297 179.9779 51.8232 C 175.92575 48.02563 173.88022 43.0027 173.83425 36.70718 L 171.31492 36.70718 L 171.31492 59.55801 L 173.83425 59.55801 C 174.60331 57.3942 175.66762 56.28729 177.06077 56.28729 C 177.73083 56.28729 179.30077 56.74943 181.74586 57.61326 C 187.69503 59.73002 192.5799 60.75138 196.4199 60.75138 C 203.03735 60.75138 208.68597 58.43377 213.39227 53.723754 C 218.0915 49.01587 220.4641 43.337014 220.4641 36.70718 C 220.4641 31.566317 218.89768 26.99243 215.8232 23.005536 C 212.74873 19.013845 206.7695 14.370826 197.83425 9.038685 C 190.14541 4.4191716 185.15448 .6568066 182.85083 -2.2762324 C 180.54365 -5.2050424 179.35912 -8.444799 179.35912 -11.99999 C 179.35912 -15.8453 180.77171 -18.93392 183.55801 -21.237565 C 186.3443 -23.54298 189.99514 -24.68508 194.56354 -24.68508 C 199.70475 -24.68508 203.99028 -23.159333 207.38122 -20.088394 C 210.76862 -17.012151 212.72751 -12.749256 213.30387 -7.270707 L 215.8232 -7.270707 L 215.8232 -27.07182 L 213.48066 -27.07182 C 213.19425 -26.062316 212.92906 -25.417013 212.68508 -25.127068 C 212.44818 -24.83889 211.99204 -24.68508 211.31492 -24.68508 C 210.4999 -24.68508 209.04663 -25.028062 206.98343 -25.701653 C 202.56354 -27.190272 198.4884 -27.955797 194.74033 -27.955797 Z M 277.08287 -27.955797 C 268.7717 -27.955797 261.22608 -25.996902 254.40884 -22.077344 C 247.581 -18.164858 242.17635 -12.73193 238.18785 -5.8121444 C 234.2011 1.1070976 232.221 8.455769 232.221 16.287304 C 232.221 26.808748 235.66497 36.182266 242.60773 44.397787 C 249.55403 52.60836 257.87757 57.72447 267.5359 59.690605 C 269.7441 60.84119 272.90343 63.811356 277.03867 68.61878 C 281.699 74.0441 285.64155 77.95712 288.88398 80.28729 C 292.12287 82.61869 295.6199 84.32742 299.3149 85.45856 C 303.01348 86.58493 307.0126 87.13812 311.337 87.13812 C 316.5737 87.13812 321.26232 86.22797 325.39227 84.35359 L 324.4641 82.05525 C 322.06674 82.91996 319.51028 83.33701 316.81768 83.33701 C 313.1633 83.33701 309.47006 82.13197 305.76796 79.7127 C 302.07116 77.28742 297.44796 72.66016 291.9337 65.83425 C 289.34188 62.56353 287.5527 60.499975 286.54144 59.690605 C 297.1085 57.62705 305.798 52.50563 312.5746 44.30939 C 319.3494 36.11668 322.74033 26.766515 322.74033 16.287304 C 322.74033 3.8445866 318.31337 -6.6125044 309.52486 -15.138117 C 300.72928 -23.664615 289.91293 -27.955797 277.08287 -27.955797 Z M 328.4862 -27.955797 L 328.6187 -25.259664 C 334.1524 -25.259664 337.25164 -23.62961 337.9447 -20.353587 C 338.2028 -19.181432 338.32126 -17.017101 338.34247 -13.900548 L 338.29834 45.723754 C 338.25238 50.17688 337.61768 53.020107 336.3978 54.25414 C 335.17613 55.479334 333.11116 56.246627 330.12155 56.55248 L 329.98902 59.248616 L 385.14924 59.248616 L 386.5636 45.723754 L 384.04427 45.723754 C 383.3247 49.408174 381.6752 52.04756 379.0498 53.54696 C 376.4173 55.057316 371.7623 55.8011 365.03874 55.8011 L 359.82328 55.8011 C 353.77333 55.8011 350.27278 53.613957 349.34814 49.215467 C 349.1572 48.34528 349.0918 47.41232 349.08294 46.386737 L 349.30394 -13.900548 C 349.30252 -18.346604 349.8644 -21.325963 351.0277 -22.784526 C 352.2034 -24.237786 354.32316 -25.051046 357.39234 -25.259664 L 357.2598 -27.955797 L 328.48633 -27.955797 Z M 277.96685 -24.68508 C 287.34055 -24.68508 294.99403 -20.993233 300.90608 -13.546957 C 306.81635 -6.0980154 309.74586 4.1112076 309.74586 17.038685 C 309.74586 29.288653 306.77392 39.097286 300.81768 46.475135 C 294.86144 53.85069 286.93392 57.52486 277.08287 57.52486 C 267.619 57.52486 259.9443 53.73613 254.05525 46.121544 C 248.1715 38.506958 245.25967 28.620903 245.25967 16.4641 C 245.25967 3.9717236 248.20685 -6.0283724 254.14365 -13.502758 C 260.0769 -20.96919 268.0221 -24.68508 277.96685 -24.68508 Z M 404.8177 -11.867392 C 403.47227 -11.867392 402.44685 -11.413028 401.67956 -10.497226 C 400.8946 -9.584975 400.65414 -8.480003 400.92818 -7.1381104 C 401.19337 -5.8363724 401.92707 -4.6955034 403.0939 -3.7347954 C 404.2537 -2.7749934 405.5054 -2.2762324 406.85083 -2.2762324 C 408.15204 -2.2762324 409.14387 -2.7749654 409.85635 -3.7347954 C 410.56884 -4.6955034 410.7863 -5.8363724 410.51934 -7.1381104 C 410.2453 -8.480003 409.53635 -9.584975 408.442 -10.497226 C 407.33525 -11.413028 406.1189 -11.867392 404.8177 -11.867392 Z M 441.19337 -2.7182214 C 438.9074 6.0759306 433.9518 10.834914 426.34254 11.60222 L 426.43094 14.121558 L 435.3149 14.121558 L 435.1381 43.9116 C 435.15227 49.004726 435.30785 52.395666 435.6685 54.121544 C 436.54365 58.25344 439.24155 60.35359 443.7569 60.35359 C 450.2895 60.35359 457.1421 56.37427 464.3094 48.419887 L 462.14365 46.56353 C 456.96884 51.801816 452.39337 54.430936 448.3978 54.430936 C 445.9421 54.430936 444.4199 53.01869 443.8453 50.23204 C 443.68796 49.55527 443.6243 48.76447 443.6243 47.8453 L 443.7127 14.121558 L 457.28177 14.121558 L 457.14924 10.099459 L 443.757 10.099459 L 443.757 -2.7182214 L 441.19344 -2.7182214 Z M 493.65746 8.508298 C 486.0676 8.508298 479.8939 12.192718 475.0939 19.513823 C 470.3187 26.847304 468.84066 34.972277 470.71823 43.9116 C 471.8232 49.147747 474.0243 53.205927 477.39227 56.066295 C 480.7549 58.92543 485.021 60.35359 490.12155 60.35359 C 494.8703 60.35359 501.48243 59.15121 504.2652 56.72928 C 507.055 54.30876 509.62564 50.387437 512 45.01657 L 510.09945 43.02762 C 506.3125 49.995135 498.6696 53.50276 492.9061 53.50276 C 484.9821 53.50276 480.12906 49.155356 478.32044 40.508284 C 478.0853 39.40454 477.9103 38.21878 477.79006 36.972373 C 487.2168 35.479864 494.3611 32.83694 499.1823 29.01657 C 504 25.194096 508.8371 21.14228 507.9337 16.86189 C 507.39624 14.318325 506.0756 12.318413 504.0442 10.80664 C 501.9863 9.295576 496.64354 8.508298 493.65746 8.508298 Z M 410.69613 8.817691 L 394.34254 12.574597 L 394.34254 15.491724 L 400 14.784542 C 402.74033 14.784542 404.3527 16.025477 404.8619 18.497249 C 405.03337 19.324482 405.1412 20.486199 405.17127 21.944763 L 404.99448 48.68508 C 404.9485 52.38541 404.53834 54.536476 403.7127 55.182317 C 402.88 55.82939 400.6842 56.15469 397.12707 56.15469 L 397.03867 58.67403 L 422.9834 58.67403 L 422.9393 56.15469 C 419.33444 56.15469 416.9972 55.870236 415.95587 55.314914 C 414.93223 54.76314 414.2268 53.75894 413.9227 52.22099 C 413.6876 51.11265 413.58504 49.20292 413.56913 46.56353 L 413.65753 8.817691 L 410.6962 8.817691 Z M 489.50276 13.767967 C 491.08155 13.767967 492.6073 14.377728 494.14365 15.580122 C 495.6588 16.778272 496.58166 18.11059 496.884 19.558022 C 498.36376 26.667156 492.061 31.582045 477.87845 34.32044 C 477.4736 29.136623 478.3717 24.430862 480.663 20.176807 C 482.9366 15.92681 485.8979 13.767967 489.50276 13.767967 Z" fill="#003b57"/>
        </g>
        <g id="Graphic_5">
          <path d="M 158.10864 -130.04821 L 17.370873 -130.04821 C 7.938475 -130.04821 .220994 -122.32931 .220994 -112.89727 L .220994 42.310157 C .220994 51.74166 7.938475 59.45933 17.370873 59.45933 L 110.06444 59.45933 C 109.01234 13.338014 124.76216 -76.16916 158.10864 -130.04821 Z" fill="#0f80cc"/>
        </g>
        <g id="Graphic_4">
          <path d="M 152.99571 -125.0449 L 17.370873 -125.0449 C 10.673326 -125.0449 5.2230714 -119.59605 5.2230714 -112.89727 L 5.2230714 30.98623 C 35.93918 19.1975 82.04034 9.025532 113.91641 9.487506 C 120.32197 -24.005924 139.14784 -89.64591 152.99571 -125.0449 Z" fill="url(#Obj_Gradient)"/>
        </g>
        <g id="Graphic_3">
          <path d="M 190.93604 -135.12755 C 181.29715 -143.72335 169.62687 -140.27053 158.10864 -130.04821 C 156.39903 -128.52953 154.69295 -126.84467 152.99571 -125.0449 C 133.29185 -104.14235 115.00234 -65.42412 109.32013 -35.85506 C 111.53361 -31.36622 113.26267 -25.638042 114.40124 -21.262352 C 114.69295 -20.1397 114.95638 -19.085998 115.16676 -18.189645 C 115.66709 -16.068274 115.93582 -14.692628 115.93582 -14.692628 C 115.93582 -14.692628 115.75903 -15.361092 115.03417 -17.463015 C 114.89627 -17.86611 114.74245 -18.30633 114.56035 -18.824341 C 114.48256 -19.038263 114.37472 -19.298153 114.25627 -19.575722 C 112.97096 -22.563567 109.4156 -28.869866 107.85096 -31.6155 C 106.51262 -27.667656 105.32986 -23.974396 104.3398 -20.63296 C 108.85693 -12.36812 111.60964 1.7956806 111.60964 1.7956806 C 111.60964 1.7956806 111.37096 .8777586 110.23593 -2.3259474 C 109.2282 -5.1594574 104.20897 -13.953622 103.02002 -16.009578 C 100.98617 -8.501416 100.17803 -3.4323344 100.90678 -2.1981314 C 102.32168 .19338957 103.66922 4.3197986 104.85251 8.883247 C 107.52566 19.163726 109.38378 31.678915 109.38378 31.678915 C 109.38378 31.678915 109.44389 32.508256 109.54466 33.78455 C 109.17339 42.41783 109.39615 51.36881 110.06444 59.45933 C 110.95019 70.16925 112.61737 79.36952 114.74245 84.29345 L 116.1851 83.50689 C 113.06466 73.805936 111.79704 61.092565 112.35218 46.43091 C 113.19196 24.02013 118.34908 -3.0062564 127.87836 -31.17528 C 143.97737 -73.69815 166.31372 -107.81616 186.7566 -124.10964 C 168.1241 -107.28224 142.90599 -52.81329 135.35682 -32.642683 C 126.90422 -10.05528 120.91439 11.140926 117.30422 31.448897 C 123.53273 12.410318 143.67151 4.2266206 143.67151 4.2266206 C 143.67151 4.2266206 153.54908 -7.955118 165.09207 -25.358705 C 158.1776 -23.78169 146.82378 -21.08202 143.0209 -19.483788 C 137.41118 -17.13064 135.89958 -16.327987 135.89958 -16.327987 C 135.89958 -16.327987 154.07063 -27.393622 169.66046 -32.40401 C 191.10046 -66.171965 214.4587 -114.14368 190.93604 -135.12755" fill="#003b57"/>
        </g>
      </g>
    </g>
  </g>
</svg>
